SplineFontDB: 3.0
FontName: KacstOne
FullName: KacstOne
FamilyName: KacstOne
Weight: Medium
Copyright: KACST holds the copyright of the included Arabic font which is donated under GPL by KACST. \nURW Design and Development holds the copyright of the included Latin font which is donated under GPL by URW. 
Version: 1
ItalicAngle: 0
UnderlinePosition: -800
UnderlineWidth: 100
Ascent: 1638
Descent: 410
LayerCount: 2
Layer: 0 1 "Back" 
Layer: 1 1 "Fore" 
NeedsXUIDChange: 1
XUID: [1021 678 237379909 10861362]
FSType: 0
OS2Version: 2
OS2_WeightWidthSlopeOnly: 0
OS2_UseTypoMetrics: 1
CreationTime: 1163511077
ModificationTime: 1215812584
PfmFamily: 17
TTFWeight: 500
TTFWidth: 5
LineGap: 59
VLineGap: 0
Panose: 2 0 0 0 0 0 0 0 0 0
OS2TypoAscent: -38
OS2TypoAOffset: 1
OS2TypoDescent: -190
OS2TypoDOffset: 1
OS2TypoLinegap: 59
OS2WinAscent: -1
OS2WinAOffset: 1
OS2WinDescent: -25
OS2WinDOffset: 1
HheadAscent: -564
HheadAOffset: 1
HheadDescent: 425
HheadDOffset: 1
OS2SubXSize: 1434
OS2SubYSize: 1331
OS2SubXOff: 0
OS2SubYOff: 293
OS2SupXSize: 1434
OS2SupYSize: 1331
OS2SupXOff: 0
OS2SupYOff: 928
OS2StrikeYSize: 102
OS2StrikeYPos: 530
OS2Vendor: 'GLYF'
OS2CodePages: 00000040.00000000
OS2UnicodeRanges: 00002000.00000000.00000000.00000000
Lookup: 1 0 0 "'aalt' Access All Alternates in Latin lookup 0"  {"'aalt' Access All Alternates in Latin lookup 0 subtable"  } ['aalt' ('latn' <'dflt' > ) ]
Lookup: 3 0 0 "'aalt' Access All Alternates in Latin lookup 1"  {"'aalt' Access All Alternates in Latin lookup 1 subtable"  } ['aalt' ('latn' <'dflt' > ) ]
Lookup: 1 1 0 "'isol' Isolated Forms in Arabic lookup 2"  {"'isol' Isolated Forms in Arabic lookup 2 subtable"  } ['isol' ('arab' <'dflt' > ) ]
Lookup: 1 1 0 "'init' Initial Forms in Arabic lookup 3"  {"'init' Initial Forms in Arabic lookup 3 subtable"  } ['init' ('arab' <'dflt' > ) ]
Lookup: 1 1 0 "'medi' Medial Forms in Arabic lookup 4"  {"'medi' Medial Forms in Arabic lookup 4 subtable"  } ['medi' ('arab' <'dflt' > ) ]

StartChar: arabiccomma
Encoding: 1548 1548 1
Width: 403
Flags: W
LayerCount: 2
Fore
SplineSet
277 379 m 1,0,1
 239 351 239 351 207 314 c 128,-1,2
 175 277 175 277 158.5 241 c 128,-1,3
 142 205 142 205 144 174.5 c 128,-1,4
 146 144 146 144 175 130 c 1,5,-1
 177 131 l 1,6,7
 185 138 185 138 192.5 142.5 c 128,-1,8
 200 147 200 147 207 151 c 1,9,-1
 209 153 l 1,10,11
 213 155 213 155 214 156 c 1,12,13
 219 158 219 158 222.5 159.5 c 128,-1,14
 226 161 226 161 229 163 c 1,15,-1
 234 164 l 1,16,-1
 235 164 l 1,17,18
 237 165 237 165 247 165 c 0,19,20
 254 165 254 165 260 164 c 128,-1,21
 266 163 266 163 271 161 c 0,22,23
 274 160 274 160 278 158 c 1,24,25
 279 157 279 157 280 157 c 1,26,27
 283 155 283 155 285.5 153 c 128,-1,28
 288 151 288 151 291 149 c 0,29,30
 295 145 295 145 296 143 c 2,31,32
 297 142 297 142 297.5 141 c 128,-1,33
 298 140 298 140 299 139 c 256,34,35
 300 138 300 138 302 134 c 0,36,37
 305 130 305 130 309 120 c 1,38,-1
 317 82 l 1,39,-1
 317 79 l 2,40,41
 317 74 317 74 316.5 70.5 c 128,-1,42
 316 67 316 67 315 63 c 2,43,44
 315 59 315 59 313 51 c 1,45,46
 312 49 312 49 312 48 c 1,47,-1
 311 46 l 1,48,49
 311 44 311 44 310 43 c 1,50,51
 310 41 310 41 308 37 c 0,52,53
 307 35 307 35 306.5 33.5 c 128,-1,54
 306 32 306 32 305 30 c 0,55,56
 303 26 303 26 299 20 c 0,57,58
 296 14 296 14 291 9 c 0,59,60
 285 3 l 128,-1,61
 282 0 282 0 279 -2 c 0,62,63
 277 -3 277 -3 276.5 -3.5 c 128,-1,64
 276 -4 276 -4 274 -5 c 1,65,66
 272 -7 272 -7 269.5 -8.5 c 128,-1,67
 267 -10 267 -10 264 -11 c 1,68,69
 263 -12 263 -12 263 -22 c 256,70,71
 263 -32 263 -32 262 -32 c 1,72,-1
 262 -12 l 1,73,74
 260 -14 260 -14 257 -14.5 c 128,-1,75
 254 -15 254 -15 252 -16 c 1,76,77
 251 -17 251 -17 249 -17 c 1,78,-1
 244 -19 l 1,79,-1
 241 -19 l 1,80,81
 239 -20 239 -20 236 -20 c 0,82,83
 231 -21 231 -21 221 -21 c 2,84,-1
 208 -21 l 1,85,-1
 199 -19 l 2,86,87
 188 -17 188 -17 179 -13 c 2,88,-1
 173 -10 l 1,89,90
 172 -9 172 -9 168 -7 c 2,91,92
 167 -6 167 -6 163 -4 c 2,93,94
 162 -3 162 -3 161 -2.5 c 128,-1,95
 160 -2 160 -2 158 0 c 0,96,97
 140 15 140 15 128 39 c 2,98,-1
 124 50 l 1,99,-1
 124 49 l 1,100,-1
 122 52 l 1,101,102
 120 60 120 60 119 63 c 2,103,-1
 112 88 l 1,104,-1
 111 98 l 1,105,106
 110 100 110 100 110 106 c 0,107,108
 110 107 110 107 109.5 107.5 c 128,-1,109
 109 108 109 108 109 110 c 2,110,-1
 109 143 l 2,111,112
 109 148 109 148 110 151 c 1,113,-1
 110 156 l 1,114,115
 116 193 116 193 132 230 c 128,-1,116
 148 267 148 267 170 300 c 128,-1,117
 192 333 192 333 219.5 360 c 128,-1,118
 247 387 247 387 276 405 c 1,119,-1
 277 379 l 1,0,1
EndSplineSet
EndChar

StartChar: arabicsemicolon
Encoding: 1563 1563 2
Width: 852
Flags: W
LayerCount: 2
Fore
SplineSet
580 371 m 0,0,1
 580 350 580 350 572.5 330.5 c 128,-1,2
 565 311 565 311 550.5 296.5 c 128,-1,3
 536 282 536 282 515 273 c 128,-1,4
 494 264 494 264 467 264 c 0,5,6
 405 264 405 264 349 335 c 256,7,8
 293 406 293 406 293 500 c 0,9,10
 293 597 293 597 346 668 c 0,11,12
 384 721 384 721 438 749 c 1,13,-1
 469 758 l 1,14,15
 429 732 429 732 398 674 c 0,16,17
 373 618 373 618 373 561 c 0,18,19
 373 506 373 506 406 451 c 1,20,-1
 438 471 l 1,21,22
 448 475 448 475 457.5 477.5 c 128,-1,23
 467 480 467 480 475 481 c 0,24,25
 497 481 497 481 516.5 472 c 128,-1,26
 536 463 536 463 550 448 c 128,-1,27
 564 433 564 433 572 413 c 128,-1,28
 580 393 580 393 580 371 c 0,0,1
539 74 m 0,29,30
 539 56 539 56 532 40.5 c 128,-1,31
 525 25 525 25 513.5 13.5 c 128,-1,32
 502 2 502 2 486.5 -5 c 128,-1,33
 471 -12 471 -12 453 -12 c 0,34,35
 421 -12 421 -12 396 15 c 0,36,37
 371 40 371 40 371 74 c 0,38,39
 371 106 371 106 396 131 c 0,40,41
 421 158 421 158 453 158 c 0,42,43
 486 158 486 158 512 132 c 0,44,45
 539 108 539 108 539 74 c 0,29,30
EndSplineSet
EndChar

StartChar: arabicquestionmark
Encoding: 1567 1567 3
Width: 578
Flags: W
LayerCount: 2
Fore
SplineSet
567 896 m 0,0,1
 567 830 567 830 532 786 c 256,2,3
 497 742 497 742 447 742 c 0,4,5
 410 742 410 742 385 768 c 128,-1,6
 360 794 360 794 360 830 c 0,7,8
 360 883 360 883 404 909 c 2,9,-1
 445 932 l 2,10,11
 470 951 470 951 470 982 c 0,12,13
 470 1022 470 1022 437 1048 c 128,-1,14
 404 1074 404 1074 355 1074 c 0,15,16
 292 1074 292 1074 251 1033 c 0,17,18
 211 993 211 993 211 932 c 0,19,20
 211 876 211 876 239 830 c 2,21,-1
 301 706 l 2,22,23
 378 541 378 541 378 416 c 0,24,25
 378 387 378 387 366 305 c 1,26,-1
 336 305 l 1,27,28
 337 317 337 317 337.5 329 c 128,-1,29
 338 341 338 341 340 353 c 0,30,31
 341 364 341 364 341.5 370.5 c 128,-1,32
 342 377 342 377 342 380 c 0,33,34
 342 462 342 462 300 500 c 2,35,-1
 205 585 l 2,36,37
 79 699 79 699 79 842 c 0,38,39
 79 954 79 954 156 1034 c 256,40,41
 233 1114 233 1114 342 1114 c 0,42,43
 437 1114 437 1114 502 1051 c 256,44,45
 567 988 567 988 567 896 c 0,0,1
439 97 m 2,46,47
 439 87 439 87 396 44 c 0,48,49
 352 0 352 0 345 0 c 2,50,-1
 329 0 l 2,51,52
 320 0 320 0 277 43 c 256,53,54
 234 86 234 86 234 94 c 2,55,-1
 234 110 l 2,56,57
 234 118 234 118 279 163 c 0,58,59
 324 209 324 209 332 209 c 2,60,-1
 348 209 l 2,61,62
 355 209 355 209 397 165 c 256,63,64
 439 121 439 121 439 113 c 2,65,-1
 439 97 l 2,46,47
EndSplineSet
EndChar

StartChar: hamza
Encoding: 1569 1569 4
Width: 886
Flags: W
AnchorPoint: "ArabicBelow" 443 -231 basechar 0
AnchorPoint: "ArabicAbove" 443 759 basechar 0
LayerCount: 2
Fore
SplineSet
463 230 m 1,0,1
 479 237 479 237 511.5 248 c 128,-1,2
 544 259 544 259 598 276 c 1,3,4
 592 253 592 253 584 230 c 128,-1,5
 576 207 576 207 566 182 c 1,6,7
 409 148 409 148 262 51 c 0,8,9
 212 19 212 19 210 19 c 0,10,11
 186 19 186 19 186 25 c 0,12,13
 186 26 186 26 185 25 c 1,14,15
 214 83 214 83 314 158 c 1,16,-1
 315 181 l 1,17,18
 217 280 217 280 207 331 c 1,19,20
 224 380 224 380 242 412.5 c 128,-1,21
 260 445 260 445 277 462 c 0,22,23
 321 509 321 509 413 509 c 0,24,25
 470 509 470 509 498 498 c 1,26,-1
 498 408 l 1,27,28
 441 432 441 432 386 432 c 0,29,30
 322 432 322 432 275 403 c 1,31,-1
 269 384 l 1,32,33
 279 361 279 361 298.5 339 c 128,-1,34
 318 317 318 317 347 292 c 0,35,36
 375 269 375 269 401 253.5 c 128,-1,37
 427 238 427 238 451 230 c 1,38,-1
 463 230 l 1,0,1
EndSplineSet
Substitution2: "'isol' Isolated Forms in Arabic lookup 2 subtable" hamzaisolated
Substitution2: "'aalt' Access All Alternates in Latin lookup 0 subtable" hamzaisolated
EndChar

StartChar: alefwithmaddaabove
Encoding: 1570 1570 5
Width: 652
Flags: W
AnchorPoint: "ArabicBelow" 326 -246 basechar 0
AnchorPoint: "ArabicAbove" 326 1753 basechar 0
LayerCount: 2
Fore
SplineSet
692 1501 m 1,0,1
 649 1371 649 1371 570 1371 c 0,2,3
 499 1371 499 1371 415 1393 c 0,4,5
 292 1417 292 1417 253 1417 c 0,6,7
 206 1417 206 1417 148 1362 c 1,8,9
 157 1403 157 1403 186 1442 c 0,10,11
 229 1494 229 1494 294 1494 c 0,12,13
 311 1494 311 1494 341 1488 c 128,-1,14
 371 1482 371 1482 419 1471 c 0,15,16
 458 1459 458 1459 490.5 1453.5 c 128,-1,17
 523 1448 523 1448 552 1448 c 0,18,19
 643 1448 643 1448 692 1503 c 1,20,-1
 692 1501 l 1,0,1
564 270 m 2,21,22
 564 244 564 244 550 210.5 c 128,-1,23
 536 177 536 177 506 135 c 0,24,25
 480 92 480 92 455 62 c 128,-1,26
 430 32 430 32 407 10 c 0,27,28
 405 8 405 8 403.5 7 c 128,-1,29
 402 6 402 6 401 4 c 1,30,-1
 401 15 l 2,31,32
 403 81 403 81 404.5 127 c 128,-1,33
 406 173 406 173 406 201 c 2,34,-1
 406 220 l 2,35,36
 404 299 404 299 399 400.5 c 128,-1,37
 394 502 394 502 384 635 c 0,38,39
 373 791 373 791 366.5 889 c 128,-1,40
 360 987 360 987 357 1042 c 1,41,-1
 518 1239 l 1,42,-1
 519 1241 l 1,43,44
 519 1239 519 1239 518.5 1236.5 c 128,-1,45
 518 1234 518 1234 519 1232 c 1,46,-1
 564 270 l 2,21,22
EndSplineSet
Substitution2: "'fina' Terminal Forms in Arabic lookup 5 subtable" alefwithmaddaabovefinal
Substitution2: "'isol' Isolated Forms in Arabic lookup 2 subtable" alefwithmaddaaboveisolated
AlternateSubs2: "'aalt' Access All Alternates in Latin lookup 1 subtable" alefwithmaddaaboveisolated alefwithmaddaabovefinal
EndChar

StartChar: alefwithhamzaabove
Encoding: 1571 1571 6
Width: 499
Flags: W
AnchorPoint: "ArabicBelow" 249 -246 basechar 0
AnchorPoint: "ArabicAbove" 249 1933 basechar 0
LayerCount: 2
Fore
SplineSet
365 1445 m 1,0,1
 379 1451 379 1451 407 1460.5 c 128,-1,2
 435 1470 435 1470 480 1484 c 1,3,4
 469 1444 469 1444 453 1404 c 1,5,6
 319 1375 319 1375 194 1292 c 0,7,8
 152 1265 152 1265 149 1265 c 0,9,10
 129 1265 129 1265 129 1270 c 0,11,12
 129 1271 129 1271 128 1270 c 1,13,14
 141 1296 141 1296 168 1323.5 c 128,-1,15
 195 1351 195 1351 238 1384 c 1,16,-1
 239 1403 l 1,17,18
 156 1489 156 1489 147 1531 c 1,19,20
 177 1614 177 1614 206 1643 c 0,21,22
 243 1683 243 1683 322 1683 c 0,23,24
 348 1683 348 1683 366 1680.5 c 128,-1,25
 384 1678 384 1678 395 1674 c 1,26,-1
 395 1597 l 1,27,28
 343 1617 343 1617 299 1617 c 0,29,30
 245 1617 245 1617 205 1593 c 1,31,-1
 200 1576 l 1,32,33
 208 1557 208 1557 224.5 1538 c 128,-1,34
 241 1519 241 1519 266 1498 c 0,35,36
 314 1459 314 1459 355 1445 c 1,37,-1
 365 1445 l 1,0,1
437 270 m 2,38,39
 437 244 437 244 423 210.5 c 128,-1,40
 409 177 409 177 379 135 c 0,41,42
 352 92 352 92 327.5 62 c 128,-1,43
 303 32 303 32 280 10 c 0,44,45
 278 8 278 8 276.5 7 c 128,-1,46
 275 6 275 6 274 4 c 1,47,-1
 274 15 l 2,48,49
 276 81 276 81 277.5 127 c 128,-1,50
 279 173 279 173 279 201 c 2,51,-1
 279 220 l 2,52,53
 277 299 277 299 272 400.5 c 128,-1,54
 267 502 267 502 257 635 c 0,55,56
 245 791 245 791 238.5 889 c 128,-1,57
 232 987 232 987 230 1042 c 1,58,-1
 391 1239 l 1,59,-1
 392 1241 l 1,60,61
 392 1239 392 1239 391.5 1236.5 c 128,-1,62
 391 1234 391 1234 392 1232 c 1,63,-1
 437 272 l 1,64,-1
 437 270 l 2,38,39
EndSplineSet
Substitution2: "'fina' Terminal Forms in Arabic lookup 5 subtable" alefwithhamzaabovefinal
Substitution2: "'isol' Isolated Forms in Arabic lookup 2 subtable" alefwithhamzaaboveisolated
AlternateSubs2: "'aalt' Access All Alternates in Latin lookup 1 subtable" alefwithhamzaaboveisolated alefwithhamzaabovefinal
EndChar

StartChar: wawwithhamzaabove
Encoding: 1572 1572 7
Width: 1045
Flags: W
AnchorPoint: "ArabicBelow" 522 -823 basechar 0
AnchorPoint: "ArabicAbove" 522 1500 basechar 0
LayerCount: 2
Fore
SplineSet
880 252 m 1,0,1
 868 278 868 278 850 305.5 c 128,-1,2
 832 333 832 333 809 362 c 0,3,4
 748 438 748 438 702 438 c 0,5,6
 640 438 640 438 594 323 c 1,7,-1
 599 307 l 1,8,9
 714 232 714 232 868 232 c 1,10,-1
 880 252 l 1,0,1
685 1012 m 1,11,12
 699 1019 699 1019 727.5 1028 c 128,-1,13
 756 1037 756 1037 801 1051 c 1,14,15
 796 1031 796 1031 789 1011.5 c 128,-1,16
 782 992 782 992 774 972 c 1,17,18
 705 957 705 957 641.5 929.5 c 128,-1,19
 578 902 578 902 514 860 c 0,20,21
 474 832 474 832 470 832 c 0,22,23
 450 832 450 832 450 837 c 0,24,25
 450 838 450 838 449 837 c 1,26,27
 461 863 461 863 488.5 890.5 c 128,-1,28
 516 918 516 918 559 951 c 1,29,-1
 560 971 l 1,30,31
 477 1055 477 1055 467 1098 c 1,32,33
 498 1183 498 1183 527 1210 c 0,34,35
 564 1250 564 1250 643 1250 c 0,36,37
 687 1250 687 1250 716 1242 c 1,38,-1
 716 1164 l 1,39,40
 662 1184 662 1184 620 1184 c 0,41,42
 566 1184 566 1184 526 1160 c 1,43,-1
 520 1143 l 1,44,45
 536 1110 536 1110 587 1065 c 0,46,47
 632 1029 632 1029 676 1012 c 1,48,-1
 685 1012 l 1,11,12
1014 109 m 2,49,50
 1014 -6 1014 -6 980 -118.5 c 128,-1,51
 946 -231 946 -231 877 -340 c 0,52,53
 731 -573 731 -573 536 -573 c 0,54,55
 426 -573 426 -573 299 -479 c 0,56,57
 245 -437 245 -437 200.5 -390.5 c 128,-1,58
 156 -344 156 -344 114 -287 c 1,59,-1
 113 -287 l 1,60,61
 108 -279 108 -279 104.5 -273 c 128,-1,62
 101 -267 101 -267 100 -263 c 1,63,64
 107 -263 107 -263 130 -277 c 0,65,66
 250 -352 250 -352 408 -352 c 0,67,68
 565 -352 565 -352 699 -263 c 0,69,70
 829 -175 829 -175 891 -29 c 1,71,-1
 880 -10 l 1,72,73
 491 16 491 16 491 216 c 0,74,75
 491 327 491 327 568 508 c 0,76,77
 655 699 655 699 753 699 c 0,78,79
 815 699 815 699 904 574 c 0,80,81
 1014 425 1014 425 1014 245 c 2,82,-1
 1014 109 l 2,49,50
EndSplineSet
Substitution2: "'fina' Terminal Forms in Arabic lookup 5 subtable" wawwithhamzaabovefinal
Substitution2: "'isol' Isolated Forms in Arabic lookup 2 subtable" wawwithhamzaaboveisolated
AlternateSubs2: "'aalt' Access All Alternates in Latin lookup 1 subtable" wawwithhamzaaboveisolated wawwithhamzaabovefinal
EndChar

StartChar: alefwithhamzabelow
Encoding: 1573 1573 8
Width: 484
Flags: W
AnchorPoint: "ArabicBelow" 242 -798 basechar 0
AnchorPoint: "ArabicAbove" 242 1485 basechar 0
LayerCount: 2
Fore
SplineSet
390 -368 m 1,0,1
 404 -362 404 -362 432 -352 c 128,-1,2
 460 -342 460 -342 505 -328 c 1,3,4
 500 -347 500 -347 493.5 -366.5 c 128,-1,5
 487 -386 487 -386 479 -408 c 1,6,7
 410 -423 410 -423 346.5 -450.5 c 128,-1,8
 283 -478 283 -478 219 -520 c 0,9,10
 179 -548 179 -548 174 -548 c 0,11,12
 155 -548 155 -548 155 -543 c 0,13,14
 155 -541 155 -541 154 -542 c 1,15,16
 177 -495 177 -495 264 -429 c 1,17,-1
 265 -409 l 1,18,19
 181 -324 181 -324 172 -282 c 1,20,21
 202 -199 202 -199 231 -170 c 0,22,23
 271 -130 271 -130 347 -130 c 0,24,25
 397 -130 397 -130 421 -139 c 1,26,-1
 421 -216 l 1,27,28
 367 -196 367 -196 325 -196 c 0,29,30
 272 -196 272 -196 230 -220 c 1,31,-1
 225 -237 l 1,32,33
 233 -256 233 -256 250 -275 c 128,-1,34
 267 -294 267 -294 291 -315 c 0,35,36
 334 -351 334 -351 381 -368 c 1,37,-1
 390 -368 l 1,0,1
422 270 m 2,38,39
 422 217 422 217 364 135 c 0,40,41
 337 92 337 92 312.5 62 c 128,-1,42
 288 32 288 32 265 10 c 2,43,-1
 262 7 l 1,44,-1
 262 118 l 2,45,46
 262 132 262 132 262.5 146 c 128,-1,47
 263 160 263 160 263 171 c 2,48,-1
 263 203 l 1,49,-1
 263 213 l 1,50,-1
 263 226 l 2,51,52
 263 232 263 232 263 240 c 256,53,54
 263 248 263 248 262 258 c 0,55,56
 262 300 262 300 256 401 c 0,57,58
 251 501 251 501 241 635 c 0,59,60
 230 791 230 791 223.5 889 c 128,-1,61
 217 987 217 987 215 1042 c 1,62,-1
 377 1235 l 1,63,-1
 377 1232 l 1,64,-1
 422 272 l 1,65,-1
 422 270 l 2,38,39
EndSplineSet
Substitution2: "'fina' Terminal Forms in Arabic lookup 5 subtable" alefwithhamzabelowfinal
Substitution2: "'isol' Isolated Forms in Arabic lookup 2 subtable" alefwithhamzabelowisolated
AlternateSubs2: "'aalt' Access All Alternates in Latin lookup 1 subtable" alefwithhamzabelowisolated alefwithhamzabelowfinal
EndChar

StartChar: yehwithhamzaabove
Encoding: 1574 1574 9
Width: 1412
Flags: W
AnchorPoint: "ArabicBelow" 706 -675 basechar 0
AnchorPoint: "ArabicAbove" 706 1305 basechar 0
LayerCount: 2
Fore
SplineSet
459 818 m 1,0,1
 473 824 473 824 501 833.5 c 128,-1,2
 529 843 529 843 574 857 c 1,3,4
 569 837 569 837 562.5 817 c 128,-1,5
 556 797 556 797 548 777 c 1,6,7
 479 763 479 763 415.5 735 c 128,-1,8
 352 707 352 707 288 665 c 0,9,10
 247 638 247 638 243 638 c 0,11,12
 223 638 223 638 223 642 c 1,13,14
 234 665 234 665 261 694 c 128,-1,15
 288 723 288 723 333 757 c 1,16,-1
 334 776 l 1,17,18
 250 862 250 862 241 903 c 1,19,20
 273 988 273 988 300 1015 c 0,21,22
 339 1055 339 1055 417 1055 c 0,23,24
 461 1055 461 1055 490 1047 c 1,25,-1
 490 970 l 1,26,27
 436 990 436 990 394 990 c 0,28,29
 341 990 341 990 299 966 c 1,30,-1
 294 948 l 1,31,32
 314 909 314 909 361 871 c 0,33,34
 403 835 403 835 450 818 c 1,35,-1
 459 818 l 1,0,1
1383 692 m 0,36,37
 1383 678 1383 678 1366 615 c 0,38,39
 1364 607 1364 607 1361.5 599.5 c 128,-1,40
 1359 592 1359 592 1357 584 c 0,41,42
 1352 564 1352 564 1346 547.5 c 128,-1,43
 1340 531 1340 531 1335 520 c 1,44,45
 1330 525 1330 525 1323 530 c 128,-1,46
 1316 535 1316 535 1308 540 c 0,47,48
 1244 577 1244 577 1212 577 c 0,49,50
 1099 577 1099 577 987 483 c 0,51,52
 909 421 909 421 861 340 c 1,53,-1
 864 323 l 1,54,55
 905 291 905 291 1124 230 c 0,56,57
 1314 180 1314 180 1315 167 c 0,58,59
 1315 141 1315 141 1312 111.5 c 128,-1,60
 1309 82 1309 82 1302 39 c 0,61,62
 1284 -64 1284 -64 1273 -75 c 0,63,64
 1213 -136 1213 -136 1144.5 -187.5 c 128,-1,65
 1076 -239 1076 -239 998 -287 c 0,66,67
 767 -425 767 -425 565 -425 c 0,68,69
 376 -425 376 -425 277 -301 c 0,70,71
 184 -189 184 -189 184 7 c 0,72,73
 184 156 184 156 239 297 c 1,74,-1
 239 298 l 1,75,76
 282 421 282 421 341 498 c 0,77,78
 353 515 353 515 362.5 525.5 c 128,-1,79
 372 536 372 536 377 541 c 1,80,81
 375 532 375 532 370 518.5 c 128,-1,82
 365 505 365 505 354 488 c 1,83,-1
 353 488 l 1,84,85
 249 288 249 288 249 135 c 0,86,87
 249 -22 249 -22 363 -110 c 0,88,89
 466 -191 466 -191 624 -191 c 0,90,91
 910 -191 910 -191 1156 -20 c 1,92,-1
 1155 3 l 1,93,94
 1153 4 1153 4 1112.5 17.5 c 128,-1,95
 1072 31 1072 31 991 57 c 0,96,97
 974 62 974 62 956 68 c 128,-1,98
 938 74 938 74 918 81 c 0,99,100
 743 139 743 139 743 181 c 0,101,102
 743 347 743 347 928 553 c 0,103,104
 1115 764 1115 764 1277 764 c 0,105,106
 1383 764 1383 764 1383 692 c 0,36,37
EndSplineSet
Substitution2: "'fina' Terminal Forms in Arabic lookup 5 subtable" yehwithhamzaabovefinal
Substitution2: "'medi' Medial Forms in Arabic lookup 4 subtable" yehwithhamzaabovemedial
Substitution2: "'init' Initial Forms in Arabic lookup 3 subtable" yehwithhamzaaboveinitial
Substitution2: "'isol' Isolated Forms in Arabic lookup 2 subtable" yehwithhamzaaboveisolated
AlternateSubs2: "'aalt' Access All Alternates in Latin lookup 1 subtable" yehwithhamzaaboveisolated yehwithhamzaaboveinitial yehwithhamzaabovemedial yehwithhamzaabovefinal
EndChar

StartChar: arabicalef
Encoding: 1575 1575 10
Width: 420
Flags: W
AnchorPoint: "ArabicBelow" 210 -254 basechar 0
AnchorPoint: "ArabicAbove" 210 1491 basechar 0
LayerCount: 2
Fore
SplineSet
228 2 m 2,0,1
 228 -4 228 -4 223.5 -4 c 128,-1,2
 219 -4 219 -4 221 -2 c 128,-1,3
 223 0 223 0 228 4 c 1,4,-1
 228 2 l 2,0,1
391 270 m 2,5,6
 391 244 391 244 377 210.5 c 128,-1,7
 363 177 363 177 333 135 c 0,8,9
 306 92 306 92 281.5 62 c 128,-1,10
 257 32 257 32 234 10 c 0,11,12
 232 8 232 8 230.5 7 c 128,-1,13
 229 6 229 6 228 4 c 1,14,-1
 228 15 l 2,15,16
 230 81 230 81 231.5 127 c 128,-1,17
 233 173 233 173 233 201 c 2,18,-1
 233 220 l 2,19,20
 231 299 231 299 226 400.5 c 128,-1,21
 221 502 221 502 211 635 c 0,22,23
 200 791 200 791 193 889 c 128,-1,24
 186 987 186 987 184 1042 c 1,25,-1
 345 1239 l 1,26,-1
 346 1241 l 1,27,28
 346 1239 346 1239 345.5 1236.5 c 128,-1,29
 345 1234 345 1234 346 1232 c 1,30,-1
 391 272 l 1,31,-1
 391 270 l 2,5,6
EndSplineSet
Substitution2: "'fina' Terminal Forms in Arabic lookup 5 subtable" aleffinal
Substitution2: "'isol' Isolated Forms in Arabic lookup 2 subtable" alefisolated
AlternateSubs2: "'aalt' Access All Alternates in Latin lookup 1 subtable" alefisolated aleffinal
EndChar

StartChar: beh
Encoding: 1576 1576 11
Width: 1489
Flags: W
AnchorPoint: "ArabicBelow" 744 -864 basechar 0
AnchorPoint: "ArabicAbove" 744 944 basechar 0
LayerCount: 2
Fore
SplineSet
957 -614 m 1,0,-1
 737 -527 l 1,1,-1
 812 -355 l 1,2,-1
 1034 -439 l 1,3,-1
 957 -614 l 1,0,-1
1460 326 m 0,4,5
 1460 229 1460 229 1456.5 165 c 128,-1,6
 1453 101 1453 101 1446 65 c 0,7,8
 1443 51 1443 51 1180 18 c 0,9,10
 1071 5 1071 5 982.5 0.5 c 128,-1,11
 894 -4 894 -4 825 -4 c 0,12,13
 774 -4 774 -4 735 -3 c 128,-1,14
 696 -2 696 -2 667 0 c 0,15,16
 650 1 650 1 635.5 1.5 c 128,-1,17
 621 2 621 2 611 2 c 0,18,19
 430 2 430 2 318 77 c 0,20,21
 185 162 185 162 185 331 c 0,22,23
 185 450 185 450 287 606 c 0,24,25
 306 636 306 636 317 648 c 1,26,27
 316 639 316 639 314 629 c 128,-1,28
 312 619 312 619 311 611 c 0,29,30
 310 606 310 606 309.5 604 c 128,-1,31
 309 602 309 602 309 604 c 1,32,33
 295 559 295 559 295 501 c 0,34,35
 295 433 295 433 316.5 382.5 c 128,-1,36
 338 332 338 332 384.5 298 c 128,-1,37
 431 264 431 264 504.5 247 c 128,-1,38
 578 230 578 230 683 230 c 2,39,-1
 739 230 l 1,40,-1
 768 230 l 1,41,-1
 783 230 l 2,42,43
 793 230 793 230 798 229 c 1,44,45
 833 228 833 228 869 227.5 c 128,-1,46
 905 227 905 227 943 227 c 0,47,48
 1031 227 1031 227 1123 232 c 128,-1,49
 1215 237 1215 237 1315 253 c 1,50,-1
 1326 269 l 1,51,52
 1311 324 1311 324 1276 381.5 c 128,-1,53
 1241 439 1241 439 1174 508 c 1,54,-1
 1313 693 l 1,55,-1
 1314 694 l 1,56,57
 1314 695 1314 695 1315.5 694 c 128,-1,58
 1317 693 1317 693 1319 691 c 0,59,60
 1460 544 1460 544 1460 326 c 0,4,5
EndSplineSet
Substitution2: "'fina' Terminal Forms in Arabic lookup 5 subtable" behfinal
Substitution2: "'medi' Medial Forms in Arabic lookup 4 subtable" behmedial
Substitution2: "'init' Initial Forms in Arabic lookup 3 subtable" behinitial
Substitution2: "'isol' Isolated Forms in Arabic lookup 2 subtable" behisolated
AlternateSubs2: "'aalt' Access All Alternates in Latin lookup 1 subtable" behisolated behinitial behmedial behfinal
EndChar

StartChar: tehmarbuta
Encoding: 1577 1577 12
Width: 923
Flags: W
AnchorPoint: "ArabicBelow" 461 -254 basechar 0
AnchorPoint: "ArabicAbove" 461 1446 basechar 0
LayerCount: 2
Fore
SplineSet
616 936 m 1,0,-1
 484 1053 l 1,1,-1
 464 1051 l 1,2,-1
 368 936 l 1,3,-1
 226 1061 l 1,4,-1
 336 1196 l 1,5,-1
 474 1080 l 1,6,-1
 492 1082 l 1,7,-1
 585 1196 l 1,8,-1
 731 1071 l 1,9,-1
 616 936 l 1,0,-1
729 319 m 1,10,11
 706 331 706 331 660 368 c 128,-1,12
 614 405 614 405 536 471 c 0,13,14
 513 490 513 490 488.5 510.5 c 128,-1,15
 464 531 464 531 435 555 c 1,16,-1
 416 552 l 1,17,18
 297 382 297 382 297 315 c 0,19,20
 297 265 297 265 355 234 c 0,21,22
 398 214 398 214 451 214 c 0,23,24
 514 214 514 214 601 235 c 0,25,26
 653 248 653 248 682.5 262.5 c 128,-1,27
 712 277 712 277 732 296 c 1,28,-1
 729 319 l 1,10,11
893 434 m 0,29,30
 893 412 893 412 883.5 379 c 128,-1,31
 874 346 874 346 855 298 c 0,32,33
 822 221 822 221 766 164 c 128,-1,34
 710 107 710 107 642.5 69.5 c 128,-1,35
 575 32 575 32 501 14 c 128,-1,36
 427 -4 427 -4 357 -4 c 0,37,38
 282 -4 282 -4 233 44 c 0,39,40
 184 90 184 90 184 166 c 0,41,42
 184 313 184 313 317 494 c 1,43,44
 313 490 313 490 320 499.5 c 128,-1,45
 327 509 327 509 343 529.5 c 128,-1,46
 359 550 359 550 383.5 581 c 128,-1,47
 408 612 408 612 440 653 c 0,48,49
 462 681 462 681 483.5 708.5 c 128,-1,50
 505 736 505 736 535 775 c 1,51,52
 591 710 591 710 726 615 c 1,53,-1
 727 615 l 1,54,55
 808 562 808 562 845 522 c 0,56,57
 893 475 893 475 893 434 c 0,29,30
EndSplineSet
Substitution2: "'fina' Terminal Forms in Arabic lookup 5 subtable" tehmarbutafinal
Substitution2: "'isol' Isolated Forms in Arabic lookup 2 subtable" tehmarbutaisolated
AlternateSubs2: "'aalt' Access All Alternates in Latin lookup 1 subtable" tehmarbutaisolated tehmarbutafinal
EndChar

StartChar: teh
Encoding: 1578 1578 13
Width: 1489
Flags: W
AnchorPoint: "ArabicBelow" 744 -252 basechar 0
AnchorPoint: "ArabicAbove" 744 1157 basechar 0
LayerCount: 2
Fore
SplineSet
608 639 m 1,0,-1
 414 762 l 1,1,-1
 503 895 l 1,2,-1
 701 772 l 1,3,-1
 608 639 l 1,0,-1
932 651 m 1,4,-1
 737 774 l 1,5,-1
 827 907 l 1,6,-1
 1025 784 l 1,7,-1
 932 651 l 1,4,-1
1369 328 m 0,8,9
 1369 231 1369 231 1365.5 167 c 128,-1,10
 1362 103 1362 103 1355 67 c 0,11,12
 1352 53 1352 53 1089 20 c 0,13,14
 977 7 977 7 889.5 2.5 c 128,-1,15
 802 -2 802 -2 733 -2 c 0,16,17
 682 -2 682 -2 643 -1 c 128,-1,18
 604 0 604 0 575 2 c 0,19,20
 558 3 558 3 544 3.5 c 128,-1,21
 530 4 530 4 519 4 c 0,22,23
 340 4 340 4 226 79 c 0,24,25
 94 164 94 164 94 333 c 0,26,27
 94 453 94 453 196 608 c 0,28,29
 206 623 206 623 213 633.5 c 128,-1,30
 220 644 220 644 225 650 c 1,31,32
 224 641 224 641 222 631 c 128,-1,33
 220 621 220 621 219 613 c 0,34,35
 218 608 218 608 217.5 606 c 128,-1,36
 217 604 217 604 217 606 c 1,37,38
 204 568 204 568 204 503 c 0,39,40
 204 435 204 435 225.5 384.5 c 128,-1,41
 247 334 247 334 293.5 300 c 128,-1,42
 340 266 340 266 413.5 249 c 128,-1,43
 487 232 487 232 592 232 c 2,44,-1
 646 232 l 1,45,-1
 674 232 l 1,46,-1
 689 232 l 2,47,48
 698 232 698 232 703 231 c 256,49,50
 708 230 708 230 718 230 c 2,51,-1
 733 230 l 1,52,-1
 765 230 l 1,53,-1
 830 230 l 2,54,55
 918 230 918 230 1012.5 234.5 c 128,-1,56
 1107 239 1107 239 1210 256 c 1,57,-1
 1221 272 l 1,58,59
 1213 299 1213 299 1203 326.5 c 128,-1,60
 1193 354 1193 354 1177 383 c 128,-1,61
 1161 412 1161 412 1138.5 443.5 c 128,-1,62
 1116 475 1116 475 1083 510 c 1,63,-1
 1221 695 l 1,64,-1
 1222 696 l 1,65,66
 1222 697 1222 697 1223.5 696 c 128,-1,67
 1225 695 1225 695 1227 693 c 0,68,69
 1369 545 1369 545 1369 328 c 0,8,9
EndSplineSet
Substitution2: "'fina' Terminal Forms in Arabic lookup 5 subtable" tehfinal
Substitution2: "'medi' Medial Forms in Arabic lookup 4 subtable" tehmedial
Substitution2: "'init' Initial Forms in Arabic lookup 3 subtable" tehinitial
Substitution2: "'isol' Isolated Forms in Arabic lookup 2 subtable" tehisolated
AlternateSubs2: "'aalt' Access All Alternates in Latin lookup 1 subtable" tehisolated tehinitial tehmedial tehfinal
EndChar

StartChar: theh
Encoding: 1579 1579 14
Width: 1634
Flags: W
AnchorPoint: "ArabicBelow" 817 -248 basechar 0
AnchorPoint: "ArabicAbove" 817 1318 basechar 0
LayerCount: 2
Fore
SplineSet
645 837 m 1,0,-1
 470 941 l 1,1,-1
 552 1068 l 1,2,-1
 724 970 l 1,3,-1
 645 837 l 1,0,-1
861 596 m 1,4,-1
 693 693 l 1,5,-1
 674 688 l 1,6,-1
 605 584 l 1,7,-1
 406 692 l 1,8,-1
 493 822 l 1,9,-1
 676 718 l 1,10,-1
 694 722 l 1,11,-1
 762 831 l 1,12,-1
 944 728 l 1,13,-1
 861 596 l 1,4,-1
1307 332 m 0,14,15
 1307 143 1307 143 1292 71 c 0,16,17
 1289 57 1289 57 1027 24 c 0,18,19
 915 11 915 11 827.5 6.5 c 128,-1,20
 740 2 740 2 671 2 c 0,21,22
 620 2 620 2 581 3 c 128,-1,23
 542 4 542 4 513 6 c 0,24,25
 496 7 496 7 482 7.5 c 128,-1,26
 468 8 468 8 457 8 c 0,27,28
 276 8 276 8 164 84 c 0,29,30
 32 169 32 169 32 337 c 0,31,32
 32 457 32 457 133 612 c 0,33,34
 144 627 144 627 151 637.5 c 128,-1,35
 158 648 158 648 163 654 c 1,36,37
 162 645 162 645 160 635 c 128,-1,38
 158 625 158 625 157 617 c 0,39,40
 156 612 156 612 155.5 610 c 128,-1,41
 155 608 155 608 155 610 c 1,42,43
 142 574 142 574 142 507 c 0,44,45
 142 439 142 439 163.5 388.5 c 128,-1,46
 185 338 185 338 231.5 304 c 128,-1,47
 278 270 278 270 351.5 253 c 128,-1,48
 425 236 425 236 530 236 c 2,49,-1
 584 236 l 1,50,-1
 612 236 l 1,51,-1
 627 236 l 2,52,53
 636 236 636 236 641 235 c 256,54,55
 646 234 646 234 656 234 c 2,56,-1
 671 234 l 1,57,-1
 703 234 l 1,58,-1
 768 234 l 2,59,60
 856 234 856 234 950.5 238.5 c 128,-1,61
 1045 243 1045 243 1148 260 c 1,62,-1
 1159 276 l 1,63,64
 1151 303 1151 303 1141 330.5 c 128,-1,65
 1131 358 1131 358 1115 387 c 128,-1,66
 1099 416 1099 416 1076.5 447.5 c 128,-1,67
 1054 479 1054 479 1021 514 c 1,68,-1
 1159 699 l 1,69,-1
 1160 700 l 1,70,71
 1160 701 1160 701 1161.5 700 c 128,-1,72
 1163 699 1163 699 1165 697 c 0,73,74
 1307 549 1307 549 1307 332 c 0,14,15
EndSplineSet
Substitution2: "'fina' Terminal Forms in Arabic lookup 5 subtable" thehfinal
Substitution2: "'medi' Medial Forms in Arabic lookup 4 subtable" thehmedial
Substitution2: "'init' Initial Forms in Arabic lookup 3 subtable" thehinitial
Substitution2: "'isol' Isolated Forms in Arabic lookup 2 subtable" thehisolated
AlternateSubs2: "'aalt' Access All Alternates in Latin lookup 1 subtable" thehisolated thehinitial thehmedial thehfinal
EndChar

StartChar: jeem
Encoding: 1580 1580 15
Width: 1222
Flags: W
AnchorPoint: "ArabicBelow" 611 -984 basechar 0
AnchorPoint: "ArabicAbove" 611 929 basechar 0
LayerCount: 2
Fore
SplineSet
1191 630 m 1,0,1
 1192 628 1192 628 1190 626 c 1,2,3
 1190 627 1190 627 1190.5 627.5 c 128,-1,4
 1191 628 1191 628 1191 630 c 1,0,1
858 -263 m 1,5,-1
 638 -175 l 1,6,-1
 712 -4 l 1,7,-1
 934 -88 l 1,8,-1
 858 -263 l 1,5,-1
1270 -452 m 0,9,10
 1182 -530 1182 -530 1125 -576.5 c 128,-1,11
 1068 -623 1068 -623 1039 -643 c 0,12,13
 894 -734 894 -734 722 -734 c 0,14,15
 531 -734 531 -734 406 -609 c 0,16,17
 261 -464 261 -464 261 -206 c 0,18,19
 261 126 261 126 532 418 c 1,20,-1
 521 440 l 1,21,-1
 511 440 l 2,22,23
 491 441 491 441 472.5 441.5 c 128,-1,24
 454 442 454 442 438 442 c 0,25,26
 412 442 412 442 392 441 c 128,-1,27
 372 440 372 440 359 438 c 0,28,29
 314 431 314 431 277 413.5 c 128,-1,30
 240 396 240 396 208 368 c 0,31,32
 192 352 192 352 184 352 c 1,33,-1
 184 360 l 2,34,35
 184 366 184 366 192 396 c 0,36,37
 291 679 291 679 484 679 c 0,38,39
 527 679 527 679 589.5 672.5 c 128,-1,40
 652 666 652 666 740 653 c 256,41,42
 828 640 828 640 892.5 633 c 128,-1,43
 957 626 957 626 1002 626 c 2,44,-1
 1184 626 l 1,45,-1
 1190 626 l 1,46,47
 1189 626 1189 626 1189 625 c 1,48,-1
 1188 624 l 1,49,-1
 1078 401 l 1,50,51
 1004 398 1004 398 928 392.5 c 128,-1,52
 852 387 852 387 759 379 c 2,53,-1
 756 379 l 1,54,55
 622 340 622 340 495 205 c 0,56,57
 354 53 354 53 354 -106 c 0,58,59
 354 -499 354 -499 811 -499 c 0,60,61
 980 -499 980 -499 1252 -424 c 0,62,63
 1271 -420 1271 -420 1281 -418 c 128,-1,64
 1291 -416 1291 -416 1293 -416 c 0,65,66
 1301 -416 1301 -416 1302 -415 c 1,67,68
 1301 -420 1301 -420 1292.5 -429 c 128,-1,69
 1284 -438 1284 -438 1270 -452 c 0,9,10
EndSplineSet
Substitution2: "'fina' Terminal Forms in Arabic lookup 5 subtable" jeemfinal
Substitution2: "'medi' Medial Forms in Arabic lookup 4 subtable" jeemmedial
Substitution2: "'init' Initial Forms in Arabic lookup 3 subtable" jeeminitial
Substitution2: "'isol' Isolated Forms in Arabic lookup 2 subtable" jeemisolated
AlternateSubs2: "'aalt' Access All Alternates in Latin lookup 1 subtable" jeemisolated jeeminitial jeemmedial jeemfinal
EndChar

StartChar: hah
Encoding: 1581 1581 16
Width: 1222
Flags: W
AnchorPoint: "ArabicBelow" 611 -984 basechar 0
AnchorPoint: "ArabicAbove" 611 929 basechar 0
LayerCount: 2
Fore
SplineSet
1270 -452 m 0,0,1
 1182 -530 1182 -530 1125 -576.5 c 128,-1,2
 1068 -623 1068 -623 1039 -643 c 0,3,4
 894 -734 894 -734 722 -734 c 0,5,6
 531 -734 531 -734 406 -609 c 0,7,8
 261 -464 261 -464 261 -206 c 0,9,10
 261 126 261 126 532 418 c 1,11,-1
 521 440 l 1,12,-1
 511 440 l 2,13,14
 491 441 491 441 472.5 441.5 c 128,-1,15
 454 442 454 442 438 442 c 0,16,17
 412 442 412 442 392 441 c 128,-1,18
 372 440 372 440 359 438 c 0,19,20
 314 431 314 431 277 413.5 c 128,-1,21
 240 396 240 396 208 368 c 0,22,23
 192 352 192 352 184 352 c 1,24,-1
 184 360 l 2,25,26
 184 366 184 366 192 396 c 0,27,28
 291 679 291 679 484 679 c 0,29,30
 527 679 527 679 589.5 672.5 c 128,-1,31
 652 666 652 666 740 653 c 256,32,33
 828 640 828 640 892.5 633 c 128,-1,34
 957 626 957 626 1002 626 c 2,35,-1
 1184 626 l 1,36,-1
 1189 626 l 1,37,-1
 1078 401 l 1,38,39
 1004 398 1004 398 928 392.5 c 128,-1,40
 852 387 852 387 759 379 c 2,41,-1
 756 379 l 1,42,43
 622 340 622 340 495 205 c 0,44,45
 354 53 354 53 354 -106 c 0,46,47
 354 -499 354 -499 811 -499 c 0,48,49
 980 -499 980 -499 1252 -424 c 0,50,51
 1271 -420 1271 -420 1281 -418 c 128,-1,52
 1291 -416 1291 -416 1293 -416 c 0,53,54
 1301 -416 1301 -416 1302 -415 c 1,55,56
 1301 -420 1301 -420 1292.5 -429 c 128,-1,57
 1284 -438 1284 -438 1270 -452 c 0,0,1
EndSplineSet
Substitution2: "'fina' Terminal Forms in Arabic lookup 5 subtable" hahfinal
Substitution2: "'medi' Medial Forms in Arabic lookup 4 subtable" hahmedial
Substitution2: "'init' Initial Forms in Arabic lookup 3 subtable" hahinitial
Substitution2: "'isol' Isolated Forms in Arabic lookup 2 subtable" hahisolated
AlternateSubs2: "'aalt' Access All Alternates in Latin lookup 1 subtable" hahisolated hahinitial hahmedial hahfinal
EndChar

StartChar: khah
Encoding: 1582 1582 17
Width: 1222
Flags: W
AnchorPoint: "ArabicBelow" 611 -984 basechar 0
AnchorPoint: "ArabicAbove" 611 1392 basechar 0
LayerCount: 2
Fore
SplineSet
786 883 m 1,0,-1
 566 971 l 1,1,-1
 641 1142 l 1,2,-1
 863 1058 l 1,3,-1
 786 883 l 1,0,-1
1270 -452 m 0,4,5
 1182 -530 1182 -530 1125 -576.5 c 128,-1,6
 1068 -623 1068 -623 1039 -643 c 0,7,8
 894 -734 894 -734 722 -734 c 0,9,10
 531 -734 531 -734 406 -609 c 0,11,12
 261 -464 261 -464 261 -206 c 0,13,14
 261 126 261 126 532 418 c 1,15,-1
 521 440 l 1,16,-1
 511 440 l 2,17,18
 491 441 491 441 472.5 441.5 c 128,-1,19
 454 442 454 442 438 442 c 0,20,21
 412 442 412 442 392 441 c 128,-1,22
 372 440 372 440 359 438 c 0,23,24
 314 431 314 431 277 413.5 c 128,-1,25
 240 396 240 396 208 368 c 0,26,27
 192 352 192 352 184 352 c 1,28,-1
 184 360 l 2,29,30
 184 366 184 366 192 396 c 0,31,32
 291 679 291 679 484 679 c 0,33,34
 527 679 527 679 589.5 672.5 c 128,-1,35
 652 666 652 666 740 653 c 256,36,37
 828 640 828 640 892.5 633 c 128,-1,38
 957 626 957 626 1002 626 c 2,39,-1
 1184 626 l 1,40,-1
 1189 626 l 1,41,-1
 1078 401 l 1,42,43
 1004 398 1004 398 928 392.5 c 128,-1,44
 852 387 852 387 759 379 c 2,45,-1
 756 379 l 1,46,47
 622 340 622 340 495 205 c 0,48,49
 354 53 354 53 354 -106 c 0,50,51
 354 -499 354 -499 811 -499 c 0,52,53
 980 -499 980 -499 1252 -424 c 0,54,55
 1271 -420 1271 -420 1281 -418 c 128,-1,56
 1291 -416 1291 -416 1293 -416 c 0,57,58
 1301 -416 1301 -416 1302 -415 c 1,59,60
 1301 -420 1301 -420 1292.5 -429 c 128,-1,61
 1284 -438 1284 -438 1270 -452 c 0,4,5
EndSplineSet
Substitution2: "'fina' Terminal Forms in Arabic lookup 5 subtable" khahfinal
Substitution2: "'medi' Medial Forms in Arabic lookup 4 subtable" khahmedial
Substitution2: "'init' Initial Forms in Arabic lookup 3 subtable" khahinitial
Substitution2: "'isol' Isolated Forms in Arabic lookup 2 subtable" khahisolated
AlternateSubs2: "'aalt' Access All Alternates in Latin lookup 1 subtable" khahisolated khahinitial khahmedial khahfinal
EndChar

StartChar: dal
Encoding: 1583 1583 18
Width: 843
Flags: W
AnchorPoint: "ArabicBelow" 421 -251 basechar 0
AnchorPoint: "ArabicAbove" 421 1082 basechar 0
LayerCount: 2
Fore
SplineSet
666 831 m 1,0,1
 666 832 666 832 667 832 c 1,2,-1
 666 831 l 1,0,1
729 41 m 2,3,4
 728 22 728 22 683 13 c 0,5,6
 666 10 666 10 633 8 c 128,-1,7
 600 6 600 6 549 4 c 0,8,9
 494 2 494 2 449 0.5 c 128,-1,10
 404 -1 404 -1 368 -1 c 0,11,12
 330 -1 330 -1 302.5 0.5 c 128,-1,13
 275 2 275 2 258 4 c 0,14,15
 115 24 115 24 115 164 c 0,16,17
 115 175 115 175 116 188 c 128,-1,18
 117 201 117 201 119 215 c 0,19,20
 125 264 125 264 152 350 c 0,21,22
 182 448 182 448 192 451 c 1,23,-1
 192 446 l 2,24,25
 192 438 192 438 189 425 c 1,26,-1
 189 424 l 2,27,28
 187 409 187 409 185.5 396.5 c 128,-1,29
 184 384 184 384 184 373 c 0,30,31
 184 253 184 253 315 235 c 0,32,33
 344 231 344 231 382 228.5 c 128,-1,34
 420 226 420 226 471 226 c 0,35,36
 602 226 602 226 635 244 c 1,37,-1
 641 257 l 1,38,39
 626 475 626 475 530 652 c 1,40,-1
 664 828 l 1,41,-1
 665 829 l 1,42,43
 665 830 665 830 665.5 830.5 c 128,-1,44
 666 831 666 831 666.5 830.5 c 128,-1,45
 667 830 667 830 668 828 c 0,46,47
 700 771 700 771 720.5 692 c 128,-1,48
 741 613 741 613 753 507 c 0,49,50
 758 455 758 455 760.5 411.5 c 128,-1,51
 763 368 763 368 763 331 c 0,52,53
 763 306 763 306 762 285 c 128,-1,54
 761 264 761 264 758 243 c 2,55,-1
 729 42 l 1,56,-1
 729 41 l 2,3,4
EndSplineSet
Substitution2: "'fina' Terminal Forms in Arabic lookup 5 subtable" dalfinal
Substitution2: "'isol' Isolated Forms in Arabic lookup 2 subtable" dalisolated
AlternateSubs2: "'aalt' Access All Alternates in Latin lookup 1 subtable" dalisolated dalfinal
EndChar

StartChar: thal
Encoding: 1584 1584 19
Width: 843
Flags: W
AnchorPoint: "ArabicBelow" 421 -252 basechar 0
AnchorPoint: "ArabicAbove" 421 1392 basechar 0
LayerCount: 2
Fore
SplineSet
626 830 m 1,0,1
 626 831 626 831 627 831 c 1,2,-1
 626 830 l 1,0,1
546 903 m 1,3,-1
 355 979 l 1,4,-1
 423 1142 l 1,5,-1
 616 1070 l 1,6,-1
 546 903 l 1,3,-1
690 40 m 1,7,8
 687 21 687 21 644 12 c 0,9,10
 627 9 627 9 593.5 7 c 128,-1,11
 560 5 560 5 509 3 c 0,12,13
 454 1 454 1 409 -0.5 c 128,-1,14
 364 -2 364 -2 328 -2 c 0,15,16
 290 -2 290 -2 262.5 -0.5 c 128,-1,17
 235 1 235 1 218 3 c 0,18,19
 75 23 75 23 75 163 c 0,20,21
 75 174 75 174 76 187 c 128,-1,22
 77 200 77 200 79 214 c 0,23,24
 86 263 86 263 112 349 c 0,25,26
 127 400 127 400 137.5 424 c 128,-1,27
 148 448 148 448 153 450 c 1,28,-1
 153 445 l 2,29,30
 153 437 153 437 150 424 c 1,31,-1
 150 423 l 2,32,33
 148 408 148 408 146.5 395.5 c 128,-1,34
 145 383 145 383 145 372 c 0,35,36
 145 252 145 252 275 234 c 0,37,38
 305 230 305 230 342.5 227.5 c 128,-1,39
 380 225 380 225 431 225 c 0,40,41
 562 225 562 225 595 243 c 1,42,-1
 601 256 l 1,43,44
 594 365 594 365 566 462.5 c 128,-1,45
 538 560 538 560 490 651 c 1,46,-1
 624 827 l 1,47,-1
 625 828 l 1,48,49
 625 829 625 829 625.5 829.5 c 128,-1,50
 626 830 626 830 626.5 829.5 c 128,-1,51
 627 829 627 829 628 827 c 0,52,53
 691 714 691 714 713 506 c 0,54,55
 718 454 718 454 720.5 410.5 c 128,-1,56
 723 367 723 367 723 330 c 0,57,58
 723 305 723 305 722 284 c 128,-1,59
 721 263 721 263 718 242 c 2,60,-1
 690 41 l 1,61,-1
 690 40 l 1,7,8
EndSplineSet
Substitution2: "'fina' Terminal Forms in Arabic lookup 5 subtable" thalfinal
Substitution2: "'isol' Isolated Forms in Arabic lookup 2 subtable" thalisolated
AlternateSubs2: "'aalt' Access All Alternates in Latin lookup 1 subtable" thalisolated thalfinal
EndChar

StartChar: reh
Encoding: 1585 1585 20
Width: 868
Flags: W
AnchorPoint: "ArabicBelow" 434 -854 basechar 0
AnchorPoint: "ArabicAbove" 434 715 basechar 0
LayerCount: 2
Fore
SplineSet
21 -256 m 1,0,1
 20 -255 20 -255 18 -255 c 1,2,-1
 19 -254 l 1,3,4
 20 -254 20 -254 21 -253 c 1,5,-1
 21 -256 l 1,0,1
841 78 m 0,6,7
 841 -48 841 -48 813.5 -157.5 c 128,-1,8
 786 -267 786 -267 726 -370 c 0,9,10
 594 -604 594 -604 390 -604 c 0,11,12
 299 -604 299 -604 184 -495 c 0,13,14
 133 -447 133 -447 96 -398 c 128,-1,15
 59 -349 59 -349 36 -295 c 1,16,-1
 36 -294 l 1,17,18
 23 -267 23 -267 21 -256 c 1,19,20
 26 -258 26 -258 33.5 -262 c 128,-1,21
 41 -266 41 -266 51 -273 c 0,22,23
 118 -319 118 -319 186.5 -342.5 c 128,-1,24
 255 -366 255 -366 330 -366 c 0,25,26
 474 -366 474 -366 593 -259 c 0,27,28
 699 -162 699 -162 742 -15 c 1,29,-1
 742 -7 l 1,30,31
 719 56 719 56 672.5 119.5 c 128,-1,32
 626 183 626 183 556 249 c 1,33,-1
 654 465 l 1,34,35
 841 341 841 341 841 78 c 0,6,7
EndSplineSet
Substitution2: "'fina' Terminal Forms in Arabic lookup 5 subtable" rehfinal
Substitution2: "'isol' Isolated Forms in Arabic lookup 2 subtable" rehisolated
AlternateSubs2: "'aalt' Access All Alternates in Latin lookup 1 subtable" rehisolated rehfinal
EndChar

StartChar: zain
Encoding: 1586 1586 21
Width: 939
Flags: W
AnchorPoint: "ArabicBelow" 469 -854 basechar 0
AnchorPoint: "ArabicAbove" 469 1280 basechar 0
LayerCount: 2
Fore
SplineSet
93 -256 m 1,0,1
 92 -255 92 -255 90 -255 c 1,2,-1
 91 -254 l 1,3,4
 92 -254 92 -254 93 -253 c 1,5,-1
 93 -256 l 1,0,1
661 771 m 1,6,-1
 441 859 l 1,7,-1
 515 1030 l 1,8,-1
 737 946 l 1,9,-1
 661 771 l 1,6,-1
913 78 m 0,10,11
 913 -164 913 -164 797 -370 c 0,12,13
 665 -604 665 -604 461 -604 c 0,14,15
 368 -604 368 -604 256 -495 c 0,16,17
 155 -400 155 -400 107 -295 c 1,18,-1
 107 -294 l 1,19,20
 101 -280 101 -280 97.5 -271 c 128,-1,21
 94 -262 94 -262 93 -256 c 1,22,23
 102 -259 102 -259 122 -273 c 0,24,25
 189 -319 189 -319 258.5 -342.5 c 128,-1,26
 328 -366 328 -366 401 -366 c 0,27,28
 548 -366 548 -366 664 -259 c 0,29,30
 769 -163 769 -163 814 -15 c 1,31,-1
 814 -7 l 1,32,33
 767 117 767 117 627 249 c 1,34,-1
 725 465 l 1,35,36
 913 339 913 339 913 78 c 0,10,11
EndSplineSet
Substitution2: "'fina' Terminal Forms in Arabic lookup 5 subtable" zainfinal
Substitution2: "'isol' Isolated Forms in Arabic lookup 2 subtable" zainisolated
AlternateSubs2: "'aalt' Access All Alternates in Latin lookup 1 subtable" zainisolated zainfinal
EndChar

StartChar: seen
Encoding: 1587 1587 22
Width: 2042
Flags: W
AnchorPoint: "ArabicBelow" 1021 -759 basechar 0
AnchorPoint: "ArabicAbove" 1021 866 basechar 0
LayerCount: 2
Fore
SplineSet
2003 44 m 2,0,1
 2002 -2 2002 -2 1853 -2 c 0,2,3
 1736 -2 1736 -2 1636 29 c 1,4,-1
 1635 30 l 1,5,6
 1530 58 1530 58 1474 90 c 1,7,-1
 1458 88 l 1,8,9
 1436 64 1436 64 1412 48 c 128,-1,10
 1388 32 1388 32 1362 22 c 1,11,-1
 1361 22 l 1,12,13
 1305 1 1305 1 1173 1 c 1,14,-1
 1160 -9 l 1,15,16
 1147 -69 1147 -69 1125 -127 c 128,-1,17
 1103 -185 1103 -185 1072 -246 c 0,18,19
 1046 -300 1046 -300 1024 -333.5 c 128,-1,20
 1002 -367 1002 -367 982 -384 c 0,21,22
 919 -441 919 -441 795 -477 c 0,23,24
 679 -509 679 -509 587 -509 c 0,25,26
 184 -509 184 -509 184 -74 c 0,27,28
 184 147 184 147 310 332 c 0,29,30
 323 351 323 351 332.5 364 c 128,-1,31
 342 377 342 377 349 383 c 1,32,33
 347 374 347 374 341 360 c 128,-1,34
 335 346 335 346 327 327 c 1,35,-1
 327 326 l 1,36,37
 241 136 241 136 241 13 c 0,38,39
 241 -278 241 -278 606 -278 c 0,40,41
 719 -278 719 -278 834 -247 c 0,42,43
 973 -213 973 -213 1042 -148 c 1,44,-1
 1046 -139 l 1,45,46
 1046 84 1046 84 898 334 c 1,47,48
 946 400 946 400 974.5 439 c 128,-1,49
 1003 478 1003 478 1018 498.5 c 128,-1,50
 1033 519 1033 519 1037.5 525.5 c 128,-1,51
 1042 532 1042 532 1042 533 c 128,-1,52
 1042 534 1042 534 1043.5 532 c 128,-1,53
 1045 530 1045 530 1047 526 c 2,54,-1
 1048 523 l 1,55,56
 1082 475 1082 475 1108 407.5 c 128,-1,57
 1134 340 1134 340 1154 246 c 1,58,-1
 1167 236 l 1,59,60
 1215 237 1215 237 1275.5 241.5 c 128,-1,61
 1336 246 1336 246 1417 257 c 1,62,-1
 1426 263 l 1,63,64
 1451 300 1451 300 1451 359 c 0,65,66
 1451 386 1451 386 1442 415 c 1,67,-1
 1588 574 l 1,68,69
 1594 559 1594 559 1594 508 c 0,70,71
 1594 395 1594 395 1545 294 c 1,72,-1
 1549 278 l 1,73,74
 1632 216 1632 216 1773 216 c 0,75,76
 1858 216 1858 216 1886 241 c 1,77,-1
 1890 253 l 1,78,79
 1885 358 1885 358 1831 457 c 1,80,-1
 1969 616 l 1,81,82
 2015 537 2015 537 2015 281 c 2,83,-1
 2015 245 l 2,84,85
 2015 241 2015 241 2018 244 c 1,86,-1
 2014 236 l 1,87,-1
 2003 44 l 2,0,1
EndSplineSet
Substitution2: "'fina' Terminal Forms in Arabic lookup 5 subtable" seenfinal
Substitution2: "'medi' Medial Forms in Arabic lookup 4 subtable" seenmedial
Substitution2: "'init' Initial Forms in Arabic lookup 3 subtable" seeninitial
Substitution2: "'isol' Isolated Forms in Arabic lookup 2 subtable" seenisolated
AlternateSubs2: "'aalt' Access All Alternates in Latin lookup 1 subtable" seenisolated seeninitial seenmedial seenfinal
EndChar

StartChar: sheen
Encoding: 1588 1588 23
Width: 2042
Flags: W
AnchorPoint: "ArabicBelow" 1021 -759 basechar 0
AnchorPoint: "ArabicAbove" 1021 1494 basechar 0
LayerCount: 2
Fore
SplineSet
1614 1012 m 1,0,-1
 1439 1116 l 1,1,-1
 1522 1244 l 1,2,-1
 1694 1145 l 1,3,-1
 1614 1012 l 1,0,-1
1830 771 m 1,4,-1
 1662 868 l 1,5,-1
 1644 864 l 1,6,-1
 1575 759 l 1,7,-1
 1376 867 l 1,8,-1
 1463 997 l 1,9,-1
 1646 893 l 1,10,-1
 1663 897 l 1,11,-1
 1731 1006 l 1,12,-1
 1914 903 l 1,13,-1
 1830 771 l 1,4,-1
2003 44 m 2,14,15
 2002 -2 2002 -2 1853 -2 c 0,16,17
 1736 -2 1736 -2 1636 29 c 1,18,-1
 1635 30 l 1,19,20
 1530 58 1530 58 1474 90 c 1,21,-1
 1458 88 l 1,22,23
 1436 64 1436 64 1412 48 c 128,-1,24
 1388 32 1388 32 1362 22 c 1,25,-1
 1361 22 l 1,26,27
 1305 1 1305 1 1173 1 c 1,28,-1
 1160 -9 l 1,29,30
 1147 -69 1147 -69 1125 -127 c 128,-1,31
 1103 -185 1103 -185 1072 -246 c 0,32,33
 1046 -300 1046 -300 1024 -333.5 c 128,-1,34
 1002 -367 1002 -367 982 -384 c 0,35,36
 919 -441 919 -441 795 -477 c 0,37,38
 679 -509 679 -509 587 -509 c 0,39,40
 184 -509 184 -509 184 -74 c 0,41,42
 184 147 184 147 310 332 c 0,43,44
 323 351 323 351 332.5 364 c 128,-1,45
 342 377 342 377 349 383 c 1,46,47
 347 374 347 374 341 360 c 128,-1,48
 335 346 335 346 327 327 c 1,49,-1
 327 326 l 1,50,51
 241 136 241 136 241 13 c 0,52,53
 241 -278 241 -278 606 -278 c 0,54,55
 719 -278 719 -278 834 -247 c 0,56,57
 973 -213 973 -213 1042 -148 c 1,58,-1
 1046 -139 l 1,59,60
 1046 84 1046 84 898 334 c 1,61,62
 946 400 946 400 974.5 439 c 128,-1,63
 1003 478 1003 478 1018 498.5 c 128,-1,64
 1033 519 1033 519 1037.5 525.5 c 128,-1,65
 1042 532 1042 532 1042 533 c 128,-1,66
 1042 534 1042 534 1043.5 532 c 128,-1,67
 1045 530 1045 530 1047 526 c 2,68,-1
 1048 523 l 1,69,70
 1082 475 1082 475 1108 407.5 c 128,-1,71
 1134 340 1134 340 1154 246 c 1,72,-1
 1167 236 l 1,73,74
 1215 237 1215 237 1275.5 241.5 c 128,-1,75
 1336 246 1336 246 1417 257 c 1,76,-1
 1426 263 l 1,77,78
 1451 300 1451 300 1451 359 c 0,79,80
 1451 386 1451 386 1442 415 c 1,81,-1
 1588 574 l 1,82,83
 1594 559 1594 559 1594 508 c 0,84,85
 1594 395 1594 395 1545 294 c 1,86,-1
 1549 278 l 1,87,88
 1632 216 1632 216 1773 216 c 0,89,90
 1858 216 1858 216 1886 241 c 1,91,-1
 1890 253 l 1,92,93
 1885 358 1885 358 1831 457 c 1,94,-1
 1969 616 l 1,95,96
 2015 537 2015 537 2015 281 c 2,97,-1
 2015 245 l 2,98,99
 2015 241 2015 241 2018 244 c 1,100,-1
 2014 236 l 1,101,-1
 2003 44 l 2,14,15
EndSplineSet
Substitution2: "'fina' Terminal Forms in Arabic lookup 5 subtable" sheenfinal
Substitution2: "'medi' Medial Forms in Arabic lookup 4 subtable" sheenmedial
Substitution2: "'init' Initial Forms in Arabic lookup 3 subtable" sheeninitial
Substitution2: "'isol' Isolated Forms in Arabic lookup 2 subtable" sheenisolated
AlternateSubs2: "'aalt' Access All Alternates in Latin lookup 1 subtable" sheenisolated sheeninitial sheenmedial sheenfinal
EndChar

StartChar: sad
Encoding: 1589 1589 24
Width: 2349
Flags: W
AnchorPoint: "ArabicBelow" 1174 -759 basechar 0
AnchorPoint: "ArabicAbove" 1174 956 basechar 0
LayerCount: 2
Fore
SplineSet
2237 294 m 0,0,1
 2237 344 2237 344 2130 406 c 1,2,-1
 2129 406 l 1,3,4
 2069 440 2069 440 2009 457.5 c 128,-1,5
 1949 475 1949 475 1889 475 c 0,6,7
 1765 475 1765 475 1674 406 c 0,8,9
 1657 393 1657 393 1610.5 358 c 128,-1,10
 1564 323 1564 323 1488 266 c 1,11,-1
 1495 242 l 1,12,13
 1627 234 1627 234 1727 230 c 128,-1,14
 1827 226 1827 226 1908 226 c 2,15,-1
 1958 226 l 2,16,17
 1986 227 1986 227 2023 230 c 128,-1,18
 2060 233 2060 233 2105 240 c 0,19,20
 2237 259 2237 259 2237 294 c 0,0,1
2330 463 m 0,21,22
 2337 447 2337 447 2341 419.5 c 128,-1,23
 2345 392 2345 392 2345 352 c 0,24,25
 2345 97 2345 97 2226 41 c 0,26,27
 2144 1 2144 1 1857 -9 c 2,28,-1
 1856 -9 l 2,29,30
 1838 -10 1838 -10 1820 -10.5 c 128,-1,31
 1802 -11 1802 -11 1781 -11 c 2,32,-1
 1696 -11 l 2,33,34
 1490 -11 1490 -11 1174 1 c 1,35,-1
 1160 -9 l 1,36,37
 1147 -69 1147 -69 1125 -127 c 128,-1,38
 1103 -185 1103 -185 1072 -246 c 0,39,40
 1046 -300 1046 -300 1024 -333.5 c 128,-1,41
 1002 -367 1002 -367 982 -384 c 0,42,43
 919 -441 919 -441 795 -477 c 0,44,45
 679 -509 679 -509 587 -509 c 0,46,47
 184 -509 184 -509 184 -74 c 0,48,49
 184 147 184 147 310 332 c 0,50,51
 339 374 339 374 351 385 c 1,52,53
 349 375 349 375 343 361 c 128,-1,54
 337 347 337 347 329 327 c 1,55,-1
 329 326 l 1,56,57
 243 137 243 137 243 13 c 0,58,59
 243 -278 243 -278 606 -278 c 0,60,61
 719 -278 719 -278 834 -247 c 0,62,63
 973 -213 973 -213 1042 -148 c 1,64,-1
 1046 -139 l 1,65,66
 1046 84 1046 84 898 334 c 1,67,-1
 1044 530 l 1,68,69
 1108 451 1108 451 1157 246 c 1,70,-1
 1170 236 l 1,71,72
 1323 236 1323 236 1459 363 c 1,73,-1
 1459 364 l 1,74,75
 1473 377 1473 377 1492 393 c 128,-1,76
 1511 409 1511 409 1537 432 c 0,77,78
 1571 462 1571 462 1613.5 500.5 c 128,-1,79
 1656 539 1656 539 1710 587 c 0,80,81
 1844 706 1844 706 1953 706 c 0,82,83
 2041 706 2041 706 2174 612 c 0,84,85
 2303 525 2303 525 2330 463 c 0,21,22
EndSplineSet
Substitution2: "'fina' Terminal Forms in Arabic lookup 5 subtable" sadfinal
Substitution2: "'medi' Medial Forms in Arabic lookup 4 subtable" sadmedial
Substitution2: "'init' Initial Forms in Arabic lookup 3 subtable" sadinitial
Substitution2: "'isol' Isolated Forms in Arabic lookup 2 subtable" sadisolated
AlternateSubs2: "'aalt' Access All Alternates in Latin lookup 1 subtable" sadisolated sadinitial sadmedial sadfinal
EndChar

StartChar: dad
Encoding: 1590 1590 25
Width: 2349
Flags: W
AnchorPoint: "ArabicBelow" 1174 -759 basechar 0
AnchorPoint: "ArabicAbove" 1174 1422 basechar 0
LayerCount: 2
Fore
SplineSet
1883 914 m 1,0,-1
 1663 1001 l 1,1,-1
 1738 1172 l 1,2,-1
 1960 1089 l 1,3,-1
 1883 914 l 1,0,-1
2237 294 m 0,4,5
 2237 344 2237 344 2130 406 c 1,6,-1
 2129 406 l 1,7,8
 2069 440 2069 440 2009 457.5 c 128,-1,9
 1949 475 1949 475 1889 475 c 0,10,11
 1765 475 1765 475 1674 406 c 0,12,13
 1657 393 1657 393 1610.5 358 c 128,-1,14
 1564 323 1564 323 1488 266 c 1,15,-1
 1495 242 l 1,16,17
 1627 234 1627 234 1727 230 c 128,-1,18
 1827 226 1827 226 1908 226 c 2,19,-1
 1958 226 l 2,20,21
 1986 227 1986 227 2023 230 c 128,-1,22
 2060 233 2060 233 2105 240 c 0,23,24
 2237 259 2237 259 2237 294 c 0,4,5
2330 463 m 0,25,26
 2337 447 2337 447 2341 419.5 c 128,-1,27
 2345 392 2345 392 2345 352 c 0,28,29
 2345 97 2345 97 2226 41 c 0,30,31
 2144 1 2144 1 1857 -9 c 2,32,-1
 1856 -9 l 2,33,34
 1838 -10 1838 -10 1820 -10.5 c 128,-1,35
 1802 -11 1802 -11 1781 -11 c 2,36,-1
 1696 -11 l 2,37,38
 1490 -11 1490 -11 1174 1 c 1,39,-1
 1160 -9 l 1,40,41
 1147 -69 1147 -69 1125 -127 c 128,-1,42
 1103 -185 1103 -185 1072 -246 c 0,43,44
 1046 -300 1046 -300 1024 -333.5 c 128,-1,45
 1002 -367 1002 -367 982 -384 c 0,46,47
 919 -441 919 -441 795 -477 c 0,48,49
 679 -509 679 -509 587 -509 c 0,50,51
 184 -509 184 -509 184 -74 c 0,52,53
 184 147 184 147 310 332 c 0,54,55
 339 374 339 374 351 385 c 1,56,57
 349 375 349 375 343 361 c 128,-1,58
 337 347 337 347 329 327 c 1,59,-1
 329 326 l 1,60,61
 243 137 243 137 243 13 c 0,62,63
 243 -278 243 -278 606 -278 c 0,64,65
 719 -278 719 -278 834 -247 c 0,66,67
 973 -213 973 -213 1042 -148 c 1,68,-1
 1046 -139 l 1,69,70
 1046 84 1046 84 898 334 c 1,71,-1
 1044 530 l 1,72,73
 1108 451 1108 451 1157 246 c 1,74,-1
 1170 236 l 1,75,76
 1323 236 1323 236 1459 363 c 1,77,-1
 1460 365 l 1,78,79
 1472 379 1472 379 1494 398 c 128,-1,80
 1516 417 1516 417 1545 441 c 0,81,82
 1582 473 1582 473 1626 510.5 c 128,-1,83
 1670 548 1670 548 1709 587 c 0,84,85
 1843 706 1843 706 1953 706 c 0,86,87
 2041 706 2041 706 2174 612 c 0,88,89
 2303 525 2303 525 2330 463 c 0,25,26
EndSplineSet
Substitution2: "'fina' Terminal Forms in Arabic lookup 5 subtable" dadfinal
Substitution2: "'medi' Medial Forms in Arabic lookup 4 subtable" dadmedial
Substitution2: "'init' Initial Forms in Arabic lookup 3 subtable" dadinitial
Substitution2: "'isol' Isolated Forms in Arabic lookup 2 subtable" dadisolated
AlternateSubs2: "'aalt' Access All Alternates in Latin lookup 1 subtable" dadisolated dadinitial dadmedial dadfinal
EndChar

StartChar: tah
Encoding: 1591 1591 26
Width: 1451
Flags: W
AnchorPoint: "ArabicBelow" 725 -251 basechar 0
AnchorPoint: "ArabicAbove" 725 1486 basechar 0
LayerCount: 2
Fore
SplineSet
1328 253 m 1,0,1
 1328 371 1328 371 1179 422 c 0,2,3
 1122 443 1122 443 1075 453 c 128,-1,4
 1028 463 1028 463 992 463 c 0,5,6
 921 463 921 463 794 387 c 2,7,-1
 571 264 l 1,8,-1
 577 239 l 1,9,-1
 1315 239 l 1,10,-1
 1328 253 l 1,0,1
1422 0 m 1,11,-1
 312 -1 l 1,12,-1
 258 1 l 2,13,14
 81 1 81 1 49 237 c 1,15,-1
 111 237 l 2,16,17
 408 237 408 237 431 302 c 0,18,19
 453 361 453 361 453 488 c 0,20,21
 453 632 453 632 435 771 c 128,-1,22
 417 910 417 910 382 1056 c 1,23,-1
 519 1236 l 1,24,25
 553 1069 553 1069 675 1001 c 1,26,27
 662 980 662 980 642 951 c 128,-1,28
 622 922 622 922 594 887 c 1,29,-1
 591 877 l 1,30,31
 596 840 596 840 599 803.5 c 128,-1,32
 602 767 602 767 602 729 c 0,33,34
 602 488 602 488 511 334 c 1,35,-1
 528 315 l 1,36,37
 554 326 554 326 623.5 376.5 c 128,-1,38
 693 427 693 427 810 518 c 0,39,40
 1007 673 1007 673 1085 673 c 0,41,42
 1234 673 1234 673 1324 580 c 0,43,44
 1415 483 1415 483 1416 335 c 2,45,-1
 1416 334 l 1,46,-1
 1422 254 l 1,47,-1
 1422 0 l 1,11,-1
EndSplineSet
Substitution2: "'fina' Terminal Forms in Arabic lookup 5 subtable" tahfinal
Substitution2: "'medi' Medial Forms in Arabic lookup 4 subtable" tahmedial
Substitution2: "'init' Initial Forms in Arabic lookup 3 subtable" tahinitial
Substitution2: "'isol' Isolated Forms in Arabic lookup 2 subtable" tahisolated
AlternateSubs2: "'aalt' Access All Alternates in Latin lookup 1 subtable" tahisolated tahinitial tahmedial tahfinal
EndChar

StartChar: zah
Encoding: 1592 1592 27
Width: 1451
Flags: W
AnchorPoint: "ArabicBelow" 725 -251 basechar 0
AnchorPoint: "ArabicAbove" 725 1486 basechar 0
LayerCount: 2
Fore
SplineSet
1216 893 m 1,0,-1
 996 981 l 1,1,-1
 1070 1152 l 1,2,-1
 1292 1068 l 1,3,-1
 1216 893 l 1,0,-1
1328 253 m 1,4,5
 1328 371 1328 371 1179 422 c 0,6,7
 1122 443 1122 443 1075 453 c 128,-1,8
 1028 463 1028 463 992 463 c 0,9,10
 921 463 921 463 794 387 c 2,11,-1
 571 264 l 1,12,-1
 577 239 l 1,13,-1
 1315 239 l 1,14,-1
 1328 253 l 1,4,5
1422 0 m 1,15,-1
 312 -1 l 1,16,-1
 258 1 l 2,17,18
 81 1 81 1 49 237 c 1,19,-1
 111 237 l 2,20,21
 408 237 408 237 431 302 c 0,22,23
 453 361 453 361 453 488 c 0,24,25
 453 632 453 632 435 771 c 128,-1,26
 417 910 417 910 382 1056 c 1,27,-1
 519 1236 l 1,28,29
 553 1069 553 1069 675 1001 c 1,30,31
 662 980 662 980 642 951 c 128,-1,32
 622 922 622 922 594 887 c 1,33,-1
 591 877 l 1,34,35
 596 840 596 840 599 803.5 c 128,-1,36
 602 767 602 767 602 729 c 0,37,38
 602 488 602 488 511 334 c 1,39,-1
 528 315 l 1,40,41
 554 326 554 326 623.5 376.5 c 128,-1,42
 693 427 693 427 810 518 c 0,43,44
 1007 673 1007 673 1085 673 c 0,45,46
 1234 673 1234 673 1324 580 c 0,47,48
 1415 483 1415 483 1416 335 c 2,49,-1
 1416 334 l 1,50,-1
 1422 254 l 1,51,-1
 1422 0 l 1,15,-1
EndSplineSet
Substitution2: "'fina' Terminal Forms in Arabic lookup 5 subtable" zahfinal
Substitution2: "'medi' Medial Forms in Arabic lookup 4 subtable" zahmedial
Substitution2: "'init' Initial Forms in Arabic lookup 3 subtable" zahinitial
Substitution2: "'isol' Isolated Forms in Arabic lookup 2 subtable" zahisolated
AlternateSubs2: "'aalt' Access All Alternates in Latin lookup 1 subtable" zahisolated zahinitial zahmedial zahfinal
EndChar

StartChar: ain
Encoding: 1593 1593 28
Width: 1060
Flags: W
AnchorPoint: "ArabicBelow" 530 -1038 basechar 0
AnchorPoint: "ArabicAbove" 530 1030 basechar 0
LayerCount: 2
Fore
SplineSet
1031 438 m 1,0,1
 1029 438 1029 438 1028.5 437.5 c 128,-1,2
 1028 437 1028 437 1027 437 c 1,3,4
 1028 439 1028 439 1029 442 c 1,5,-1
 1029 439 l 2,6,7
 1029 438 1029 438 1031 438 c 1,0,1
1123 -615 m 0,8,9
 896 -788 896 -788 676 -788 c 0,10,11
 558 -788 558 -788 469.5 -754.5 c 128,-1,12
 381 -721 381 -721 315 -655 c 0,13,14
 184 -521 184 -521 184 -291 c 0,15,16
 184 -12 184 -12 414 197 c 1,17,-1
 412 217 l 1,18,19
 380 246 380 246 359 264 c 128,-1,20
 338 282 338 282 329 293 c 0,21,22
 300 328 300 328 300 375 c 0,23,24
 300 470 300 470 393 617 c 0,25,26
 493 780 493 780 590 780 c 0,27,28
 765 780 765 780 881 612 c 0,29,30
 890 598 890 598 890 592 c 0,31,32
 890 587 890 587 884 587 c 2,33,-1
 881 587 l 2,34,35
 876 587 876 587 875 588 c 1,36,37
 808 609 808 609 762 619 c 128,-1,38
 716 629 716 629 690 629 c 0,39,40
 624 629 624 629 555 581 c 0,41,42
 525 560 525 560 501.5 534 c 128,-1,43
 478 508 478 508 458 477 c 1,44,-1
 461 459 l 1,45,46
 482 442 482 442 512 419 c 128,-1,47
 542 396 542 396 582 366 c 1,48,-1
 582 365 l 1,49,50
 590 358 590 358 598.5 352 c 128,-1,51
 607 346 607 346 616 339 c 1,52,-1
 628 337 l 1,53,54
 763 379 763 379 857 404 c 128,-1,55
 951 429 951 429 1018 436 c 0,56,57
 1021 436 1021 436 1022.5 436.5 c 128,-1,58
 1024 437 1024 437 1026 437 c 2,59,-1
 1027 437 l 1,60,61
 1025 433 1025 433 1019.5 416.5 c 128,-1,62
 1014 400 1014 400 1002 356 c 0,63,64
 994 330 994 330 984.5 297 c 128,-1,65
 975 264 975 264 958 213 c 1,66,67
 582 161 582 161 402 -13 c 0,68,69
 287 -127 287 -127 287 -252 c 0,70,71
 287 -534 287 -534 856 -566 c 0,72,73
 891 -568 891 -568 924 -569 c 128,-1,74
 957 -570 957 -570 988 -570 c 0,75,76
 1023 -570 1023 -570 1052.5 -568.5 c 128,-1,77
 1082 -567 1082 -567 1111 -565 c 0,78,79
 1148 -562 1148 -562 1167 -562 c 0,80,81
 1187 -562 1187 -562 1189 -559 c 1,82,83
 1187 -567 1187 -567 1123 -615 c 0,8,9
EndSplineSet
Substitution2: "'fina' Terminal Forms in Arabic lookup 5 subtable" ainfinal
Substitution2: "'medi' Medial Forms in Arabic lookup 4 subtable" ainmedial
Substitution2: "'init' Initial Forms in Arabic lookup 3 subtable" aininitial
Substitution2: "'isol' Isolated Forms in Arabic lookup 2 subtable" ainisolated
AlternateSubs2: "'aalt' Access All Alternates in Latin lookup 1 subtable" ainisolated aininitial ainmedial ainfinal
EndChar

StartChar: ghain
Encoding: 1594 1594 29
Width: 1059
Flags: W
AnchorPoint: "ArabicBelow" 529 -1038 basechar 0
AnchorPoint: "ArabicAbove" 529 1453 basechar 0
LayerCount: 2
Fore
SplineSet
676 944 m 1,0,-1
 456 1032 l 1,1,-1
 531 1203 l 1,2,-1
 753 1119 l 1,3,-1
 676 944 l 1,0,-1
1123 -615 m 0,4,5
 896 -788 896 -788 676 -788 c 0,6,7
 558 -788 558 -788 469.5 -754.5 c 128,-1,8
 381 -721 381 -721 315 -655 c 0,9,10
 184 -521 184 -521 184 -291 c 0,11,12
 184 -12 184 -12 414 197 c 1,13,-1
 412 217 l 1,14,15
 380 246 380 246 359 264 c 128,-1,16
 338 282 338 282 329 293 c 0,17,18
 300 328 300 328 300 375 c 0,19,20
 300 470 300 470 393 617 c 0,21,22
 493 780 493 780 590 780 c 0,23,24
 765 780 765 780 881 612 c 0,25,26
 890 598 890 598 890 592 c 0,27,28
 890 588 890 588 885 588 c 2,29,-1
 880 588 l 2,30,31
 879 588 879 588 876.5 588.5 c 128,-1,32
 874 589 874 589 869 590 c 0,33,34
 743 629 743 629 690 629 c 0,35,36
 624 629 624 629 555 581 c 0,37,38
 525 560 525 560 501.5 534 c 128,-1,39
 478 508 478 508 458 477 c 1,40,-1
 461 459 l 1,41,42
 482 442 482 442 512 419 c 128,-1,43
 542 396 542 396 582 366 c 1,44,-1
 582 365 l 1,45,46
 590 358 590 358 598.5 352 c 128,-1,47
 607 346 607 346 616 339 c 1,48,-1
 628 337 l 1,49,50
 763 379 763 379 857 404 c 128,-1,51
 951 429 951 429 1018 436 c 1,52,53
 1019 437 1019 437 1029 437 c 1,54,55
 1028 436 1028 436 1028 434.5 c 128,-1,56
 1028 433 1028 433 1027.5 432 c 128,-1,57
 1027 431 1027 431 1026 429 c 2,58,-1
 958 213 l 1,59,60
 582 161 582 161 402 -13 c 0,61,62
 287 -127 287 -127 287 -252 c 0,63,64
 287 -534 287 -534 856 -566 c 0,65,66
 892 -568 892 -568 926.5 -569 c 128,-1,67
 961 -570 961 -570 993 -570 c 256,68,69
 1025 -570 1025 -570 1055 -568.5 c 128,-1,70
 1085 -567 1085 -567 1111 -565 c 0,71,72
 1118 -564 1118 -564 1133.5 -563 c 128,-1,73
 1149 -562 1149 -562 1163 -562 c 0,74,75
 1172 -562 1172 -562 1179.5 -561.5 c 128,-1,76
 1187 -561 1187 -561 1189 -559 c 1,77,78
 1187 -567 1187 -567 1123 -615 c 0,4,5
EndSplineSet
Substitution2: "'fina' Terminal Forms in Arabic lookup 5 subtable" ghainfinal
Substitution2: "'medi' Medial Forms in Arabic lookup 4 subtable" ghainmedial
Substitution2: "'init' Initial Forms in Arabic lookup 3 subtable" ghaininitial
Substitution2: "'isol' Isolated Forms in Arabic lookup 2 subtable" ghainisolated
AlternateSubs2: "'aalt' Access All Alternates in Latin lookup 1 subtable" ghainisolated ghaininitial ghainmedial ghainfinal
EndChar

StartChar: tatweel
Encoding: 1600 1600 30
Width: 356
Flags: W
LayerCount: 2
Fore
SplineSet
-13 239 m 1,0,-1
 349 239 l 1,1,-1
 349 0 l 1,2,-1
 -13 0 l 1,3,-1
 -13 239 l 1,0,-1
EndSplineSet
EndChar

StartChar: feh
Encoding: 1601 1601 31
Width: 1684
Flags: W
AnchorPoint: "ArabicBelow" 842 -251 basechar 0
AnchorPoint: "ArabicAbove" 842 1594 basechar 0
LayerCount: 2
Fore
SplineSet
1407 1106 m 1,0,-1
 1216 1181 l 1,1,-1
 1283 1344 l 1,2,-1
 1477 1273 l 1,3,-1
 1407 1106 l 1,0,-1
1566 476 m 1,4,5
 1550 533 1550 533 1531 581.5 c 128,-1,6
 1512 630 1512 630 1487 675 c 0,7,8
 1424 790 1424 790 1365 790 c 0,9,10
 1278 790 1278 790 1189 662 c 1,11,-1
 1193 644 l 1,12,13
 1256 604 1256 604 1343.5 558.5 c 128,-1,14
 1431 513 1431 513 1549 459 c 1,15,-1
 1566 476 l 1,4,5
1657 432 m 0,16,17
 1657 125 1657 125 1579 41 c 0,18,19
 1538 0 1538 0 1333 0 c 2,20,-1
 913 0 l 1,21,-1
 511 -1 l 2,22,23
 185 -1 185 -1 185 254 c 0,24,25
 185 410 185 410 246 539 c 1,26,-1
 247 540 l 1,27,-1
 247 538 l 1,28,-1
 247 520 l 1,29,-1
 247 509 l 2,30,31
 247 501 247 501 246 499 c 256,32,33
 245 497 245 497 245 490 c 2,34,-1
 245 481 l 1,35,-1
 245 462 l 2,36,37
 245 421 245 421 251 388 c 0,38,39
 274 239 274 239 450 238 c 2,40,-1
 599 239 l 1,41,-1
 1517 239 l 1,42,-1
 1523 265 l 1,43,44
 1396 325 1396 325 1320 364 c 128,-1,45
 1244 403 1244 403 1212 424 c 0,46,47
 1107 491 1107 491 1107 563 c 0,48,49
 1107 634 1107 634 1217 786 c 1,50,-1
 1218 786 l 1,51,52
 1331 941 1331 941 1396 941 c 0,53,54
 1480 941 1480 941 1562 805 c 0,55,56
 1657 647 1657 647 1657 432 c 0,16,17
EndSplineSet
Substitution2: "'fina' Terminal Forms in Arabic lookup 5 subtable" fehfinal
Substitution2: "'medi' Medial Forms in Arabic lookup 4 subtable" fehmedial
Substitution2: "'init' Initial Forms in Arabic lookup 3 subtable" fehinitial
Substitution2: "'isol' Isolated Forms in Arabic lookup 2 subtable" fehisolated
AlternateSubs2: "'aalt' Access All Alternates in Latin lookup 1 subtable" fehisolated fehinitial fehmedial fehfinal
EndChar

StartChar: qaf
Encoding: 1602 1602 32
Width: 1360
Flags: W
AnchorPoint: "ArabicBelow" 680 -866 basechar 0
AnchorPoint: "ArabicAbove" 680 1453 basechar 0
LayerCount: 2
Fore
SplineSet
1184 263 m 1,0,1
 1113 470 1113 470 971 470 c 0,2,3
 892 470 892 470 844 355 c 1,4,-1
 844 345 l 1,5,6
 857 317 857 317 883 295 c 128,-1,7
 909 273 909 273 951 258 c 1,8,-1
 952 258 l 1,9,10
 1020 233 1020 233 1087 233 c 0,11,12
 1141 233 1141 233 1176 246 c 1,13,-1
 1184 263 l 1,0,1
1073 943 m 1,14,-1
 941 1060 l 1,15,-1
 922 1058 l 1,16,-1
 825 943 l 1,17,-1
 683 1068 l 1,18,-1
 793 1203 l 1,19,-1
 931 1087 l 1,20,-1
 949 1089 l 1,21,-1
 1042 1203 l 1,22,-1
 1189 1079 l 1,23,-1
 1073 943 l 1,14,-1
1335 82 m 0,24,25
 1335 22 1335 22 1326 -40.5 c 128,-1,26
 1317 -103 1317 -103 1300 -169 c 0,27,28
 1244 -361 1244 -361 1045 -493 c 0,29,30
 856 -616 856 -616 645 -616 c 0,31,32
 185 -616 185 -616 185 -157 c 0,33,34
 185 125 185 125 310 322 c 1,35,-1
 312 324 l 1,36,-1
 312 322 l 1,37,38
 241 126 241 126 241 -17 c 0,39,40
 241 -191 241 -191 350 -288 c 0,41,42
 453 -381 453 -381 628 -381 c 0,43,44
 871 -381 871 -381 1104 -247 c 1,45,-1
 1105 -247 l 1,46,47
 1202 -192 1202 -192 1248 -134 c 1,48,-1
 1251 -126 l 1,49,50
 1250 -103 1250 -103 1246.5 -72 c 128,-1,51
 1243 -41 1243 -41 1236 4 c 1,52,-1
 1221 15 l 1,53,54
 1172 8 1172 8 1130 5 c 128,-1,55
 1088 2 1088 2 1050 2 c 0,56,57
 730 2 730 2 730 237 c 0,58,59
 730 347 730 347 814 523 c 0,60,61
 916 730 916 730 1055 730 c 0,62,63
 1153 730 1153 730 1227 611 c 0,64,65
 1335 441 1335 441 1335 82 c 0,24,25
EndSplineSet
Substitution2: "'fina' Terminal Forms in Arabic lookup 5 subtable" qaffinal
Substitution2: "'medi' Medial Forms in Arabic lookup 4 subtable" qafmedial
Substitution2: "'init' Initial Forms in Arabic lookup 3 subtable" qafinitial
Substitution2: "'isol' Isolated Forms in Arabic lookup 2 subtable" qafisolated
AlternateSubs2: "'aalt' Access All Alternates in Latin lookup 1 subtable" qafisolated qafinitial qafmedial qaffinal
EndChar

StartChar: arabickaf
Encoding: 1603 1603 33
Width: 1462
Flags: W
AnchorPoint: "ArabicBelow" 731 -251 basechar 0
AnchorPoint: "ArabicAbove" 731 1521 basechar 0
LayerCount: 2
Fore
SplineSet
841 560 m 1,0,1
 855 565 855 565 883.5 575.5 c 128,-1,2
 912 586 912 586 957 601 c 1,3,4
 952 579 952 579 946 559 c 128,-1,5
 940 539 940 539 932 520 c 1,6,7
 863 503 863 503 800 476 c 128,-1,8
 737 449 737 449 674 404 c 0,9,10
 634 376 634 376 630 376 c 0,11,12
 611 376 611 376 611 385 c 1,13,14
 630 428 630 428 717 497 c 1,15,-1
 718 516 l 1,16,17
 633 601 633 601 623 643 c 1,18,19
 638 685 638 685 652 712 c 128,-1,20
 666 739 666 739 680 755 c 0,21,22
 700 775 700 775 729.5 785 c 128,-1,23
 759 795 759 795 807 796 c 0,24,25
 830 796 830 796 845 794.5 c 128,-1,26
 860 793 860 793 871 790 c 1,27,-1
 871 714 l 1,28,29
 826 731 826 731 775 731 c 0,30,31
 748 731 748 731 725 724.5 c 128,-1,32
 702 718 702 718 680 705 c 1,33,-1
 675 687 l 1,34,35
 694 651 694 651 743 611 c 0,36,37
 789 573 789 573 833 560 c 1,38,-1
 841 560 l 1,0,1
1294 10 m 1,39,40
 1248 7 1248 7 1193 5 c 128,-1,41
 1138 3 1138 3 1066 2 c 0,42,43
 923 -1 923 -1 726 -1 c 2,44,-1
 589 -1 l 2,45,46
 555 -1 555 -1 521.5 -0.5 c 128,-1,47
 488 0 488 0 452 1 c 2,48,-1
 441 1 l 1,49,50
 440 0 440 0 434 0 c 2,51,-1
 427 0 l 1,52,-1
 382 0 l 2,53,54
 272 0 272 0 196 66 c 0,55,56
 98 152 98 152 95 299 c 2,57,-1
 95 313 l 2,58,59
 95 516 95 516 186 697 c 0,60,61
 195 714 195 714 201 725 c 128,-1,62
 207 736 207 736 212 741 c 1,63,-1
 212 739 l 2,64,65
 212 737 212 737 210 727 c 128,-1,66
 208 717 208 717 204 698 c 0,67,68
 188 644 188 644 181 590 c 128,-1,69
 174 536 174 536 174 482 c 2,70,-1
 174 471 l 2,71,72
 175 352 175 352 258 281 c 0,73,74
 334 217 334 217 449 217 c 2,75,-1
 451 217 l 1,76,77
 477 212 477 212 560 209 c 128,-1,78
 643 206 643 206 794 206 c 0,79,80
 887 206 887 206 999.5 207 c 128,-1,81
 1112 208 1112 208 1260 211 c 1,82,-1
 1273 226 l 1,83,-1
 1150 1110 l 1,84,-1
 1300 1255 l 2,85,86
 1308 1263 1308 1263 1312 1266.5 c 128,-1,87
 1316 1270 1316 1270 1317 1271 c 1,88,89
 1314 1267 1314 1267 1316 1247 c 2,90,-1
 1368 775 l 2,91,92
 1374 701 1374 701 1384.5 552.5 c 128,-1,93
 1395 404 1395 404 1412 168 c 1,94,-1
 1358 50 l 1,95,-1
 1294 10 l 1,39,40
EndSplineSet
Substitution2: "'fina' Terminal Forms in Arabic lookup 5 subtable" arabickaffinal
Substitution2: "'medi' Medial Forms in Arabic lookup 4 subtable" kafmedial
Substitution2: "'init' Initial Forms in Arabic lookup 3 subtable" kafinitial
Substitution2: "'isol' Isolated Forms in Arabic lookup 2 subtable" kafisolated
AlternateSubs2: "'aalt' Access All Alternates in Latin lookup 1 subtable" kafisolated kafinitial kafmedial arabickaffinal
EndChar

StartChar: lam
Encoding: 1604 1604 34
Width: 1082
Flags: W
AnchorPoint: "ArabicBelow" 541 -664 basechar 0
AnchorPoint: "ArabicAbove" 541 1446 basechar 0
LayerCount: 2
Fore
SplineSet
1052 -53 m 2,0,1
 1052 -140 1052 -140 927 -260 c 0,2,3
 764 -414 764 -414 526 -414 c 0,4,5
 379 -414 379 -414 282 -326 c 0,6,7
 184 -237 184 -237 184 -91 c 0,8,9
 184 12 184 12 209 110 c 128,-1,10
 234 208 234 208 283 305 c 0,11,12
 299 338 299 338 310 349 c 1,13,14
 308 332 308 332 301 307 c 0,15,16
 267 198 267 198 267 78 c 0,17,18
 267 -43 267 -43 346 -112 c 0,19,20
 422 -179 422 -179 543 -179 c 0,21,22
 614 -179 614 -179 761 -137 c 1,23,-1
 761 -136 l 1,24,25
 931 -85 931 -85 931 -22 c 2,26,-1
 931 -21 l 1,27,-1
 826 1037 l 1,28,-1
 978 1179 l 2,29,30
 990 1193 990 1193 995 1196 c 1,31,32
 992 1192 992 1192 994 1171 c 2,33,-1
 1038 495 l 2,34,35
 1043 421 1043 421 1046.5 287.5 c 128,-1,36
 1050 154 1050 154 1052 -51 c 2,37,-1
 1052 -53 l 2,0,1
EndSplineSet
Substitution2: "'fina' Terminal Forms in Arabic lookup 5 subtable" lamfinal
Substitution2: "'medi' Medial Forms in Arabic lookup 4 subtable" lammedial
Substitution2: "'init' Initial Forms in Arabic lookup 3 subtable" laminitial
Substitution2: "'isol' Isolated Forms in Arabic lookup 2 subtable" lamisolated
AlternateSubs2: "'aalt' Access All Alternates in Latin lookup 1 subtable" lamisolated laminitial lammedial lamfinal
EndChar

StartChar: meem
Encoding: 1605 1605 35
Width: 955
Flags: W
AnchorPoint: "ArabicBelow" 477 -1036 basechar 0
AnchorPoint: "ArabicAbove" 477 896 basechar 0
LayerCount: 2
Fore
SplineSet
865 34 m 2,0,1
 855 0 855 0 739 0 c 2,2,-1
 388 0 l 2,3,4
 306 -3 306 -3 279 -40 c 1,5,-1
 277 -52 l 1,6,7
 389 -382 389 -382 389 -557 c 0,8,9
 389 -633 389 -633 373 -688 c 0,10,11
 364 -733 364 -733 355.5 -757 c 128,-1,12
 347 -781 347 -781 341 -786 c 1,13,14
 339 -768 339 -768 336 -744.5 c 128,-1,15
 333 -721 333 -721 328 -689.5 c 128,-1,16
 323 -658 323 -658 316 -616.5 c 128,-1,17
 309 -575 309 -575 300 -521 c 1,18,-1
 300 -520 l 1,19,20
 289 -478 289 -478 273 -406 c 0,21,22
 257 -340 257 -340 235.5 -252.5 c 128,-1,23
 214 -165 214 -165 185 -44 c 1,24,25
 195 7 195 7 216.5 63 c 128,-1,26
 238 119 238 119 270 182 c 1,27,28
 285 197 285 197 447 211 c 0,29,30
 616 225 616 225 629 243 c 1,31,-1
 631 257 l 1,32,33
 624 275 624 275 606 300 c 128,-1,34
 588 325 588 325 556 357 c 0,35,36
 489 427 489 427 453 427 c 0,37,38
 404 427 404 427 283 339 c 0,39,40
 260 322 260 322 251 322 c 1,41,42
 251 334 251 334 266 366 c 0,43,44
 405 646 405 646 529 646 c 0,45,46
 597 646 597 646 643 603 c 0,47,48
 680 571 680 571 739 471 c 0,49,50
 790 386 790 386 818 340.5 c 128,-1,51
 846 295 846 295 857 281 c 1,52,-1
 857 280 l 1,53,54
 884 238 884 238 927 238 c 1,55,-1
 926 232 l 1,56,-1
 865 34 l 2,0,1
EndSplineSet
Substitution2: "'fina' Terminal Forms in Arabic lookup 5 subtable" meemfinal
Substitution2: "'medi' Medial Forms in Arabic lookup 4 subtable" meemmedial
Substitution2: "'init' Initial Forms in Arabic lookup 3 subtable" meeminitial
Substitution2: "'isol' Isolated Forms in Arabic lookup 2 subtable" meemisolated
AlternateSubs2: "'aalt' Access All Alternates in Latin lookup 1 subtable" meemisolated meeminitial meemmedial meemfinal
EndChar

StartChar: noon
Encoding: 1606 1606 36
Width: 1173
Flags: W
AnchorPoint: "ArabicBelow" 586 -762 basechar 0
AnchorPoint: "ArabicAbove" 586 1202 basechar 0
LayerCount: 2
Fore
SplineSet
354 398 m 1,0,1
 354 397 354 397 353 397 c 1,2,3
 354 397 354 397 354 398 c 1,0,1
724 714 m 1,4,-1
 534 789 l 1,5,-1
 601 952 l 1,6,-1
 794 881 l 1,7,-1
 724 714 l 1,4,-1
1146 91 m 0,8,9
 1146 -187 1146 -187 1048 -309 c 0,10,11
 992 -377 992 -377 796 -447 c 0,12,13
 599 -512 599 -512 507 -512 c 0,14,15
 339 -512 339 -512 257 -379 c 0,16,17
 184 -264 184 -264 184 -86 c 0,18,19
 184 -26 184 -26 195.5 37 c 128,-1,20
 207 100 207 100 229 169 c 0,21,22
 275 305 275 305 346 400 c 0,23,24
 349 404 349 404 353.5 408.5 c 128,-1,25
 358 413 358 413 355 404 c 0,26,27
 354 399 354 399 353.5 397 c 128,-1,28
 353 395 353 395 353 397 c 1,29,30
 240 165 240 165 240 2 c 0,31,32
 240 -125 240 -125 311 -205 c 0,33,34
 383 -283 383 -283 511 -283 c 0,35,36
 788 -283 788 -283 1030 -125 c 1,37,-1
 1036 -114 l 1,38,39
 1036 152 1036 152 907 320 c 1,40,41
 944 381 944 381 967.5 420 c 128,-1,42
 991 459 991 459 1004 481 c 128,-1,43
 1017 503 1017 503 1022.5 512.5 c 128,-1,44
 1028 522 1028 522 1029 525 c 1,45,46
 1146 372 1146 372 1146 91 c 0,8,9
EndSplineSet
Substitution2: "'fina' Terminal Forms in Arabic lookup 5 subtable" noonfinal
Substitution2: "'medi' Medial Forms in Arabic lookup 4 subtable" noonmedial
Substitution2: "'init' Initial Forms in Arabic lookup 3 subtable" nooninitial
Substitution2: "'isol' Isolated Forms in Arabic lookup 2 subtable" noonisolated
AlternateSubs2: "'aalt' Access All Alternates in Latin lookup 1 subtable" noonisolated nooninitial noonmedial noonfinal
EndChar

StartChar: heh
Encoding: 1607 1607 37
Width: 923
Flags: W
AnchorPoint: "ArabicBelow" 461 -254 basechar 0
AnchorPoint: "ArabicAbove" 461 1025 basechar 0
LayerCount: 2
Fore
SplineSet
742 319 m 1,0,1
 713 333 713 333 637.5 392 c 128,-1,2
 562 451 562 451 435 555 c 1,3,-1
 416 552 l 1,4,5
 297 382 297 382 297 315 c 0,6,7
 297 265 297 265 355 234 c 0,8,9
 398 214 398 214 451 214 c 0,10,11
 514 214 514 214 601 235 c 0,12,13
 706 262 706 262 746 296 c 1,14,-1
 742 319 l 1,0,1
893 434 m 0,15,16
 893 412 893 412 883.5 379 c 128,-1,17
 874 346 874 346 855 298 c 0,18,19
 821 211 821 211 789 168 c 1,20,21
 581 -4 581 -4 357 -4 c 0,22,23
 282 -4 282 -4 233 44 c 0,24,25
 184 90 184 90 184 166 c 0,26,27
 184 313 184 313 317 494 c 1,28,29
 313 490 313 490 320 499.5 c 128,-1,30
 327 509 327 509 343 529.5 c 128,-1,31
 359 550 359 550 383.5 581 c 128,-1,32
 408 612 408 612 440 653 c 0,33,34
 462 681 462 681 483.5 708.5 c 128,-1,35
 505 736 505 736 535 775 c 1,36,37
 591 710 591 710 726 615 c 1,38,-1
 727 615 l 1,39,40
 808 562 808 562 845 522 c 0,41,42
 893 475 893 475 893 434 c 0,15,16
EndSplineSet
Substitution2: "'fina' Terminal Forms in Arabic lookup 5 subtable" hehfinal
Substitution2: "'medi' Medial Forms in Arabic lookup 4 subtable" hehmedial
Substitution2: "'init' Initial Forms in Arabic lookup 3 subtable" hehinitial
Substitution2: "'isol' Isolated Forms in Arabic lookup 2 subtable" hehisolated
AlternateSubs2: "'aalt' Access All Alternates in Latin lookup 1 subtable" hehisolated hehinitial hehmedial hehfinal
EndChar

StartChar: waw
Encoding: 1608 1608 38
Width: 1045
Flags: W
AnchorPoint: "ArabicBelow" 522 -823 basechar 0
AnchorPoint: "ArabicAbove" 522 949 basechar 0
LayerCount: 2
Fore
SplineSet
880 252 m 1,0,1
 868 278 868 278 850 305.5 c 128,-1,2
 832 333 832 333 809 362 c 0,3,4
 748 438 748 438 702 438 c 0,5,6
 640 438 640 438 594 323 c 1,7,-1
 599 307 l 1,8,9
 714 232 714 232 868 232 c 1,10,-1
 880 252 l 1,0,1
1014 109 m 2,11,12
 1014 -6 1014 -6 980 -118.5 c 128,-1,13
 946 -231 946 -231 877 -340 c 0,14,15
 731 -573 731 -573 536 -573 c 0,16,17
 426 -573 426 -573 299 -479 c 0,18,19
 245 -437 245 -437 200.5 -390.5 c 128,-1,20
 156 -344 156 -344 114 -287 c 1,21,-1
 113 -287 l 1,22,23
 108 -279 108 -279 104.5 -273 c 128,-1,24
 101 -267 101 -267 100 -263 c 1,25,26
 107 -263 107 -263 130 -277 c 0,27,28
 250 -352 250 -352 408 -352 c 0,29,30
 565 -352 565 -352 699 -263 c 0,31,32
 829 -175 829 -175 891 -29 c 1,33,-1
 880 -10 l 1,34,35
 491 16 491 16 491 216 c 0,36,37
 491 327 491 327 568 508 c 0,38,39
 655 699 655 699 753 699 c 0,40,41
 815 699 815 699 904 574 c 0,42,43
 1014 425 1014 425 1014 245 c 2,44,-1
 1014 109 l 2,11,12
EndSplineSet
Substitution2: "'fina' Terminal Forms in Arabic lookup 5 subtable" wawfinal
Substitution2: "'isol' Isolated Forms in Arabic lookup 2 subtable" wawisolated
AlternateSubs2: "'aalt' Access All Alternates in Latin lookup 1 subtable" wawisolated wawfinal
EndChar

StartChar: alefmaksura
Encoding: 1609 1609 39
Width: 1412
Flags: W
AnchorPoint: "ArabicBelow" 706 -675 basechar 0
AnchorPoint: "ArabicAbove" 706 1014 basechar 0
LayerCount: 2
Fore
SplineSet
1383 692 m 0,0,1
 1383 687 1383 687 1378 661 c 128,-1,2
 1373 635 1373 635 1366 605 c 128,-1,3
 1359 575 1359 575 1351 548.5 c 128,-1,4
 1343 522 1343 522 1337 516 c 1,5,6
 1335 518 1335 518 1327.5 525 c 128,-1,7
 1320 532 1320 532 1308 540 c 0,8,9
 1244 577 1244 577 1212 577 c 0,10,11
 1099 577 1099 577 987 483 c 0,12,13
 909 421 909 421 861 340 c 1,14,-1
 864 323 l 1,15,16
 905 291 905 291 1124 230 c 0,17,18
 1314 180 1314 180 1315 167 c 2,19,-1
 1315 156 l 2,20,21
 1315 138 1315 138 1312 110 c 128,-1,22
 1309 82 1309 82 1302 39 c 0,23,24
 1284 -64 1284 -64 1273 -75 c 0,25,26
 1213 -136 1213 -136 1144.5 -187.5 c 128,-1,27
 1076 -239 1076 -239 998 -287 c 0,28,29
 767 -425 767 -425 565 -425 c 0,30,31
 376 -425 376 -425 277 -301 c 0,32,33
 184 -189 184 -189 184 7 c 0,34,35
 184 156 184 156 239 297 c 1,36,-1
 239 298 l 1,37,38
 282 421 282 421 341 498 c 0,39,40
 353 515 353 515 362.5 525.5 c 128,-1,41
 372 536 372 536 377 541 c 1,42,43
 375 532 375 532 370 518.5 c 128,-1,44
 365 505 365 505 354 488 c 1,45,-1
 353 488 l 1,46,47
 249 288 249 288 249 135 c 0,48,49
 249 -22 249 -22 363 -110 c 0,50,51
 466 -191 466 -191 624 -191 c 0,52,53
 910 -191 910 -191 1156 -20 c 1,54,-1
 1155 3 l 1,55,56
 1153 4 1153 4 1112.5 17.5 c 128,-1,57
 1072 31 1072 31 991 57 c 0,58,59
 974 62 974 62 956 68 c 128,-1,60
 938 74 938 74 918 81 c 0,61,62
 743 139 743 139 743 181 c 0,63,64
 743 347 743 347 928 553 c 0,65,66
 1115 764 1115 764 1277 764 c 0,67,68
 1383 764 1383 764 1383 692 c 0,0,1
EndSplineSet
Substitution2: "'fina' Terminal Forms in Arabic lookup 5 subtable" alefmaksurafinal
Substitution2: "'isol' Isolated Forms in Arabic lookup 2 subtable" alefmaksuraisolated
AlternateSubs2: "'aalt' Access All Alternates in Latin lookup 1 subtable" alefmaksuraisolated alefmaksurafinal
EndChar

StartChar: yeh
Encoding: 1610 1610 40
Width: 1412
Flags: W
AnchorPoint: "ArabicBelow" 706 -1020 basechar 0
AnchorPoint: "ArabicAbove" 706 1041 basechar 0
LayerCount: 2
Fore
SplineSet
765 -770 m 1,0,-1
 632 -653 l 1,1,-1
 613 -655 l 1,2,-1
 516 -770 l 1,3,-1
 375 -645 l 1,4,-1
 485 -510 l 1,5,-1
 622 -626 l 1,6,-1
 641 -624 l 1,7,-1
 733 -510 l 1,8,-1
 880 -635 l 1,9,-1
 765 -770 l 1,0,-1
1366 719 m 0,10,11
 1366 714 1366 714 1361 688 c 128,-1,12
 1356 662 1356 662 1348.5 632 c 128,-1,13
 1341 602 1341 602 1333.5 576 c 128,-1,14
 1326 550 1326 550 1320 544 c 1,15,16
 1318 546 1318 546 1310.5 552.5 c 128,-1,17
 1303 559 1303 559 1290 567 c 0,18,19
 1225 605 1225 605 1195 605 c 0,20,21
 1086 605 1086 605 970 510 c 0,22,23
 932 481 932 481 900.5 445.5 c 128,-1,24
 869 410 869 410 843 368 c 1,25,-1
 846 350 l 1,26,27
 866 335 866 335 930.5 311.5 c 128,-1,28
 995 288 995 288 1107 258 c 0,29,30
 1296 207 1296 207 1298 195 c 1,31,-1
 1298 183 l 2,32,33
 1298 166 1298 166 1294.5 137.5 c 128,-1,34
 1291 109 1291 109 1284 66 c 0,35,36
 1268 -36 1268 -36 1256 -48 c 0,37,38
 1195 -108 1195 -108 1127 -160 c 128,-1,39
 1059 -212 1059 -212 981 -260 c 0,40,41
 748 -397 748 -397 548 -397 c 0,42,43
 359 -397 359 -397 260 -274 c 0,44,45
 167 -162 167 -162 167 35 c 0,46,47
 167 187 167 187 222 325 c 1,48,-1
 222 326 l 1,49,50
 244 387 244 387 269.5 437.5 c 128,-1,51
 295 488 295 488 324 526 c 0,52,53
 348 559 348 559 360 568 c 1,54,55
 358 559 358 559 352.5 545.5 c 128,-1,56
 347 532 347 532 337 515 c 1,57,-1
 336 515 l 1,58,59
 231 315 231 315 231 163 c 0,60,61
 231 8 231 8 345 -82 c 0,62,63
 399 -124 399 -124 462.5 -144 c 128,-1,64
 526 -164 526 -164 607 -164 c 0,65,66
 893 -164 893 -164 1139 7 c 1,67,-1
 1138 31 l 1,68,69
 1136 32 1136 32 1095.5 45.5 c 128,-1,70
 1055 59 1055 59 974 85 c 0,71,72
 957 90 957 90 938.5 96 c 128,-1,73
 920 102 920 102 900 109 c 0,74,75
 726 167 726 167 726 209 c 0,76,77
 726 375 726 375 911 581 c 0,78,79
 1098 791 1098 791 1260 791 c 0,80,81
 1366 791 1366 791 1366 719 c 0,10,11
EndSplineSet
Substitution2: "'fina' Terminal Forms in Arabic lookup 5 subtable" yehfinal
Substitution2: "'medi' Medial Forms in Arabic lookup 4 subtable" yehmedial
Substitution2: "'init' Initial Forms in Arabic lookup 3 subtable" yehinitial
Substitution2: "'isol' Isolated Forms in Arabic lookup 2 subtable" yehisolated
AlternateSubs2: "'aalt' Access All Alternates in Latin lookup 1 subtable" yehisolated yehinitial yehmedial yehfinal
EndChar

StartChar: fathatan
Encoding: 1611 1611 41
Width: 0
Flags: W
AnchorPoint: "ArabicAboveLigature" 230 1275 mark 0
AnchorPoint: "ArabicAbove" 230 1275 mark 0
LayerCount: 2
Fore
SplineSet
398 2164 m 1,0,1
 398 2098 398 2098 363 2078 c 2,2,-1
 60 1906 l 1,3,4
 63 1944 63 1944 74 1965 c 0,5,6
 86 1985 86 1985 126 2007 c 2,7,-1
 398 2164 l 1,0,1
398 2018 m 1,8,9
 398 1952 398 1952 363 1932 c 2,10,-1
 60 1760 l 1,11,12
 63 1798 63 1798 74 1819 c 0,13,14
 86 1839 86 1839 126 1861 c 2,15,-1
 398 2018 l 1,8,9
EndSplineSet
AlternateSubs2: "'aalt' Access All Alternates in Latin lookup 1 subtable" fathatanisolated fathatanlow
EndChar

StartChar: dammatan
Encoding: 1612 1612 42
Width: 0
Flags: W
AnchorPoint: "ArabicAboveLigature" 230 1275 mark 0
AnchorPoint: "ArabicAbove" 230 1275 mark 0
LayerCount: 2
Fore
SplineSet
396 1582 m 0,0,1
 396 1565 396 1565 395.5 1550 c 128,-1,2
 395 1535 395 1535 394 1523 c 1,3,4
 374 1534 374 1534 351 1548.5 c 128,-1,5
 328 1563 328 1563 302 1582 c 1,6,7
 176 1453 176 1453 62 1437 c 1,8,9
 105 1526 105 1526 105 1566 c 0,10,11
 105 1621 105 1621 56 1621 c 0,12,13
 14 1621 14 1621 7 1545 c 1,14,15
 -3 1574 -3 1574 -3 1597 c 256,16,17
 -3 1620 -3 1620 3.5 1640 c 128,-1,18
 10 1660 10 1660 21.5 1675 c 128,-1,19
 33 1690 33 1690 48 1698.5 c 128,-1,20
 63 1707 63 1707 81 1707 c 0,21,22
 148 1707 148 1707 148 1607 c 2,23,-1
 142 1515 l 1,24,25
 207 1540 207 1540 266 1605 c 1,26,27
 200 1648 200 1648 200 1699 c 0,28,29
 200 1752 200 1752 240 1798 c 0,30,31
 280 1846 280 1846 322 1846 c 0,32,33
 344 1846 344 1846 367 1819 c 0,34,35
 390 1793 390 1793 390 1766 c 0,36,37
 390 1736 390 1736 379 1708 c 0,38,-1
 357 1652 l 1,39,40
 396 1622 396 1622 396 1582 c 0,0,1
320 1726 m 0,41,42
 320 1779 320 1779 279 1779 c 0,43,44
 253 1779 253 1779 253 1756 c 0,45,46
 253 1730 253 1730 316 1687 c 1,47,48
 320 1696 320 1696 320 1726 c 0,41,42
EndSplineSet
AlternateSubs2: "'aalt' Access All Alternates in Latin lookup 1 subtable" dammatanisolated dammatanlow
EndChar

StartChar: kasratan
Encoding: 1613 1613 43
Width: 0
Flags: W
AnchorPoint: "ArabicBelowLigature" 165 -500 mark 0
AnchorPoint: "ArabicBelow" 165 -500 mark 0
LayerCount: 2
Fore
SplineSet
339 -620 m 1,0,1
 339 -686 339 -686 304 -706 c 2,2,-1
 1 -878 l 1,3,4
 4 -840 4 -840 15 -818 c 1,5,6
 28 -800 28 -800 67 -777 c 2,7,-1
 339 -620 l 1,0,1
339 -767 m 1,8,9
 339 -833 339 -833 304 -853 c 2,10,-1
 1 -1025 l 1,11,12
 4 -987 4 -987 15 -965 c 1,13,14
 28 -947 28 -947 67 -924 c 2,15,-1
 339 -767 l 1,8,9
EndSplineSet
AlternateSubs2: "'aalt' Access All Alternates in Latin lookup 1 subtable" kasratanisolated kasratanlow
EndChar

StartChar: fatha
Encoding: 1614 1614 44
Width: 0
Flags: W
AnchorPoint: "ArabicAboveLigature" 230 1275 mark 0
AnchorPoint: "ArabicAbove" 230 1275 mark 0
LayerCount: 2
Fore
SplineSet
283 1910 m 1,0,1
 283 1856 283 1856 254 1839 c 2,2,-1
 5 1698 l 1,3,4
 7 1732 7 1732 16 1747 c 0,5,6
 26 1762 26 1762 59 1781 c 2,7,-1
 283 1910 l 1,0,1
EndSplineSet
AlternateSubs2: "'aalt' Access All Alternates in Latin lookup 1 subtable" fathaisolated fathalow
EndChar

StartChar: damma
Encoding: 1615 1615 45
Width: 0
Flags: W
AnchorPoint: "ArabicAboveLigature" 230 1275 mark 0
AnchorPoint: "ArabicAbove" 230 1275 mark 0
LayerCount: 2
Fore
SplineSet
280 1883 m 1,0,-1
 273 1802 l 1,1,-1
 208 1845 l 1,2,3
 109 1727 109 1727 46 1727 c 0,4,5
 28 1727 28 1727 -2 1737 c 1,6,7
 40 1760 40 1760 83.5 1791.5 c 128,-1,8
 127 1823 127 1823 173 1865 c 1,9,10
 123 1903 123 1903 123 1938 c 0,11,12
 123 1988 123 1988 159 2041 c 0,13,14
 185 2076 185 2076 218 2076 c 0,15,16
 273 2076 273 2076 273 2004 c 0,17,18
 273 1962 273 1962 248 1908 c 1,19,20
 254 1904 254 1904 262 1897.5 c 128,-1,21
 270 1891 270 1891 280 1883 c 1,0,-1
223 1956 m 0,22,23
 223 1974 223 1974 209.5 1990 c 128,-1,24
 196 2006 196 2006 179 2006 c 0,25,26
 164 2006 164 2006 164 1989 c 0,27,28
 164 1964 164 1964 218 1928 c 1,29,30
 223 1948 223 1948 223 1956 c 0,22,23
EndSplineSet
AlternateSubs2: "'aalt' Access All Alternates in Latin lookup 1 subtable" dammaisolated dammalow
EndChar

StartChar: kasra
Encoding: 1616 1616 46
Width: 0
Flags: W
AnchorPoint: "ArabicBelowLigature" 165 -500 mark 0
AnchorPoint: "ArabicBelow" 165 -500 mark 0
LayerCount: 2
Fore
SplineSet
351 -620 m 1,0,1
 351 -686 351 -686 316 -706 c 2,2,-1
 13 -878 l 1,3,4
 16 -840 16 -840 27 -818 c 1,5,6
 40 -800 40 -800 79 -777 c 2,7,-1
 351 -620 l 1,0,1
EndSplineSet
AlternateSubs2: "'aalt' Access All Alternates in Latin lookup 1 subtable" kasraisolated kasralow
EndChar

StartChar: shadda
Encoding: 1617 1617 47
Width: 0
Flags: W
AnchorPoint: "ArabicAboveLigature" 300 1650 mark 0
AnchorPoint: "ArabicAbove" 300 1650 mark 0
LayerCount: 2
Fore
SplineSet
355 1683 m 0,0,1
 355 1515 355 1515 251 1515 c 0,2,3
 215 1515 215 1515 187 1536 c 1,4,5
 179 1501 179 1501 148 1476 c 0,6,7
 116 1450 116 1450 83 1450 c 0,8,9
 1 1450 1 1450 1 1558 c 0,10,11
 1 1583 1 1583 23 1659 c 1,12,-1
 46 1663 l 1,13,14
 46 1552 46 1552 85 1552 c 0,15,16
 149 1552 149 1552 175 1714 c 1,17,-1
 193 1720 l 1,18,19
 216 1622 216 1622 251 1622 c 0,20,21
 309 1622 309 1622 318 1769 c 1,22,-1
 341 1779 l 1,23,24
 355 1718 355 1718 355 1683 c 0,0,1
EndSplineSet
AlternateSubs2: "'aalt' Access All Alternates in Latin lookup 1 subtable" shaddaisolated shaddalow
EndChar

StartChar: sukun
Encoding: 1618 1618 48
Width: 0
Flags: W
AnchorPoint: "ArabicAboveLigature" 230 1275 mark 0
AnchorPoint: "ArabicAbove" 230 1275 mark 0
LayerCount: 2
Fore
SplineSet
260 1614 m 0,0,1
 260 1549 260 1549 214 1500 c 0,2,3
 167 1450 167 1450 109 1450 c 0,4,5
 2 1450 2 1450 2 1571 c 0,6,7
 2 1655 2 1655 40 1708 c 0,8,9
 77 1762 77 1762 139 1762 c 0,10,11
 186 1762 186 1762 223 1716 c 0,12,13
 260 1673 260 1673 260 1614 c 0,0,1
205 1590 m 0,14,15
 205 1616 205 1616 162 1647 c 0,16,17
 121 1676 121 1676 94 1676 c 0,18,19
 35 1676 35 1676 35 1608 c 0,20,21
 35 1549 35 1549 127 1549 c 0,22,23
 205 1549 205 1549 205 1590 c 0,14,15
EndSplineSet
AlternateSubs2: "'aalt' Access All Alternates in Latin lookup 1 subtable" sukunisolated sukunlow
EndChar

StartChar: arabicindicdigitzero
Encoding: 1632 1632 49
Width: 466
Flags: W
LayerCount: 2
Fore
SplineSet
362 449 m 1,0,-1
 292 205 l 1,1,-1
 98 325 l 1,2,-1
 168 569 l 1,3,-1
 362 449 l 1,0,-1
EndSplineSet
EndChar

StartChar: arabicindicdigitone
Encoding: 1633 1633 50
Width: 502
Flags: W
LayerCount: 2
Fore
SplineSet
404 134 m 2,0,1
 404 83 404 83 401 46.5 c 128,-1,2
 398 10 398 10 393 -15 c 1,3,-1
 393 -16 l 1,4,5
 385 -66 385 -66 367 -66 c 0,6,7
 355 -66 355 -66 342 0 c 0,8,9
 319 147 319 147 302.5 235 c 128,-1,10
 286 323 286 323 272 359 c 0,11,12
 258 394 258 394 246 425 c 128,-1,13
 234 456 234 456 222 484 c 0,14,15
 211 510 211 510 199 533.5 c 128,-1,16
 187 557 187 557 174 581 c 2,17,-1
 104 701 l 1,18,19
 105 714 105 714 106 723 c 128,-1,20
 107 732 107 732 109 738 c 0,21,22
 113 750 113 750 119.5 770.5 c 128,-1,23
 126 791 126 791 138 827 c 0,24,25
 171 917 171 917 177 919 c 1,26,27
 191 914 191 914 236 847 c 0,28,29
 265 805 265 805 291.5 749 c 128,-1,30
 318 693 318 693 344 618 c 0,31,32
 357 573 357 573 367.5 526 c 128,-1,33
 378 479 378 479 387 428 c 0,34,35
 395 377 395 377 399 329 c 128,-1,36
 403 281 403 281 403 235 c 2,37,-1
 403 199 l 1,38,-1
 404 134 l 2,0,1
EndSplineSet
EndChar

StartChar: arabicindicdigittwo
Encoding: 1634 1634 51
Width: 724
Flags: W
LayerCount: 2
Fore
SplineSet
183 720 m 1,0,-1
 183 792 l 2,1,2
 185 812 185 812 189 834.5 c 128,-1,3
 193 857 193 857 204 875 c 0,4,5
 228 915 228 915 281.5 931 c 128,-1,6
 335 947 335 947 400 950 c 128,-1,7
 465 953 465 953 531 948 c 128,-1,8
 597 943 597 943 673 930 c 1,9,10
 654 809 654 809 648 782 c 1,11,12
 632 788 632 788 569 795.5 c 128,-1,13
 506 803 506 803 484 802 c 128,-1,14
 462 801 462 801 454 800 c 0,15,16
 401 795 401 795 373 777.5 c 128,-1,17
 345 760 345 760 335.5 734.5 c 128,-1,18
 326 709 326 709 330.5 676.5 c 128,-1,19
 335 644 335 644 347.5 609 c 128,-1,20
 360 574 360 574 375.5 538 c 128,-1,21
 391 502 391 502 404 470 c 0,22,23
 405 467 405 467 407 462.5 c 128,-1,24
 409 458 409 458 413 444.5 c 128,-1,25
 417 431 417 431 424.5 404.5 c 128,-1,26
 432 378 432 378 444 331 c 2,27,-1
 460 233 l 1,28,-1
 467 155 l 1,29,-1
 470 73 l 2,30,31
 470 -78 470 -78 440 -78 c 0,32,33
 420 -78 420 -78 402 19 c 0,34,35
 388 95 388 95 369 178 c 0,36,37
 362 211 362 211 348 248 c 2,38,-1
 329 311 l 2,39,40
 297 402 297 402 265.5 475 c 128,-1,41
 234 548 234 548 209 631 c 2,42,-1
 183 720 l 1,0,-1
EndSplineSet
EndChar

StartChar: arabicindicdigitthree
Encoding: 1635 1635 52
Width: 939
Flags: W
LayerCount: 2
Fore
SplineSet
765 964 m 1,0,1
 766 964 766 964 766.5 964.5 c 128,-1,2
 767 965 767 965 768 965 c 1,3,-1
 765 964 l 1,0,1
768 944 m 1,4,5
 771 944 771 944 776 940 c 1,6,-1
 779 927 l 1,7,-1
 781 898 l 2,8,9
 781 856 781 856 773 813 c 128,-1,10
 765 770 765 770 748 720 c 0,11,12
 714 618 714 618 669 602 c 1,13,-1
 668 601 l 1,14,15
 659 599 659 599 650 597.5 c 128,-1,16
 641 596 641 596 637 596 c 0,17,18
 601 596 601 596 568 613 c 1,19,-1
 567 613 l 1,20,-1
 530 630 l 1,21,-1
 510 640 l 1,22,-1
 496 651 l 1,23,-1
 483 649 l 1,24,25
 459 619 459 619 436 599.5 c 128,-1,26
 413 580 413 580 392 569 c 2,27,-1
 353 555 l 1,28,-1
 346 538 l 1,29,-1
 361 472 l 1,30,-1
 376 395 l 1,31,-1
 383 330 l 1,32,-1
 390 273 l 1,33,-1
 390 117 l 2,34,35
 390 61 390 61 389 22.5 c 128,-1,36
 388 -16 388 -16 384 -40.5 c 128,-1,37
 380 -65 380 -65 374 -75.5 c 128,-1,38
 368 -86 368 -86 358 -86 c 0,39,40
 340 -86 340 -86 325 66 c 0,41,42
 309 230 309 230 272 348 c 0,43,44
 259 394 259 394 246.5 434 c 128,-1,45
 234 474 234 474 221 508 c 0,46,47
 208 545 208 545 197.5 573.5 c 128,-1,48
 187 602 187 602 178 623 c 1,49,-1
 177 624 l 1,50,-1
 123 732 l 1,51,-1
 100 778 l 1,52,-1
 122 831 l 2,53,54
 137 862 137 862 152.5 887 c 128,-1,55
 168 912 168 912 184 933 c 1,56,-1
 242 858 l 2,57,58
 319 762 319 762 369 762 c 0,59,60
 384 762 384 762 401 772 c 0,61,62
 455 815 455 815 487 872 c 2,63,-1
 553 981 l 1,64,65
 563 981 563 981 563 950 c 2,66,-1
 563 923 l 1,67,-1
 565 896 l 1,68,-1
 565 894 l 1,69,70
 570 875 570 875 600 846 c 1,71,-1
 600 845 l 1,72,73
 616 833 616 833 633 826 c 128,-1,74
 650 819 650 819 669 819 c 0,75,76
 695 819 695 819 718 848 c 2,77,-1
 721 852 l 1,78,-1
 746 918 l 2,79,80
 754 936 754 936 768 944 c 1,4,5
EndSplineSet
EndChar

StartChar: arabicindicdigitfour
Encoding: 1636 1636 53
Width: 630
Flags: W
LayerCount: 2
Fore
SplineSet
462 -64 m 1,0,-1
 457 -64 l 2,1,2
 402 -64 402 -64 289 -24 c 0,3,4
 116 28 116 28 116 107 c 0,5,6
 116 125 116 125 128.5 154 c 128,-1,7
 141 183 141 183 164 218 c 2,8,-1
 286 386 l 1,9,-1
 288 396 l 1,10,11
 288 416 288 416 188 484 c 0,12,13
 165 498 165 498 145.5 515 c 128,-1,14
 126 532 126 532 112 547 c 1,15,16
 111 555 111 555 110.5 561 c 128,-1,17
 110 567 110 567 109 575 c 0,18,19
 109 598 109 598 115.5 622.5 c 128,-1,20
 122 647 122 647 134 675 c 1,21,-1
 134 674 l 1,22,23
 158 720 158 720 193.5 764.5 c 128,-1,24
 229 809 229 809 274 850 c 0,25,26
 312 882 312 882 344 904 c 128,-1,27
 376 926 376 926 396 933 c 1,28,29
 390 896 390 896 385.5 864 c 128,-1,30
 381 832 381 832 376 795 c 1,31,-1
 311 775 l 1,32,33
 237 740 237 740 226 703 c 1,34,35
 226 670 226 670 309 621 c 0,36,37
 343 605 343 605 374.5 589.5 c 128,-1,38
 406 574 406 574 439 559 c 1,39,-1
 440 551 l 2,40,41
 440 533 440 533 423 501.5 c 128,-1,42
 406 470 406 470 377 433 c 2,43,-1
 295 346 l 2,44,45
 273 324 273 324 251 286 c 0,46,47
 239 266 239 266 237 247.5 c 128,-1,48
 235 229 235 229 240 215 c 1,49,-1
 244 209 l 1,50,51
 251 204 251 204 267 195.5 c 128,-1,52
 283 187 283 187 311 176 c 2,53,-1
 426 134 l 2,54,55
 444 129 444 129 462 124.5 c 128,-1,56
 480 120 480 120 499 115 c 0,57,58
 505 113 505 113 510 111 c 128,-1,59
 515 109 515 109 521 107 c 1,60,-1
 462 -64 l 1,0,-1
EndSplineSet
EndChar

StartChar: arabicindicdigitfive
Encoding: 1637 1637 54
Width: 740
Flags: W
LayerCount: 2
Fore
SplineSet
555 359 m 1,0,1
 560 364 560 364 560.5 367 c 128,-1,2
 561 370 561 370 561 374 c 0,3,4
 561 390 561 390 542.5 420.5 c 128,-1,5
 524 451 524 451 487 502 c 1,6,-1
 486 502 l 1,7,8
 388 624 388 624 313 624 c 0,9,10
 288 624 288 624 244 547 c 0,11,12
 202 472 202 472 202 411 c 2,13,-1
 202 410 l 1,14,-1
 206 368 l 1,15,16
 213 346 213 346 261 319 c 1,17,-1
 263 319 l 1,18,-1
 282 312 l 1,19,-1
 283 311 l 1,20,-1
 314 304 l 1,21,-1
 316 304 l 1,22,-1
 374 300 l 1,23,-1
 396 300 l 1,24,-1
 421 301 l 1,25,-1
 422 301 l 2,26,27
 442 303 442 303 448 306 c 1,28,-1
 473 313 l 2,29,30
 500 320 500 320 520.5 332 c 128,-1,31
 541 344 541 344 556 359 c 1,32,-1
 555 359 l 1,0,1
640 494 m 2,33,34
 640 423 640 423 616 321 c 0,35,36
 593 225 593 225 563 198 c 0,37,38
 513 159 513 159 442 130 c 0,39,40
 425 124 425 124 408 119.5 c 128,-1,41
 391 115 391 115 372 110 c 2,42,-1
 338 105 l 1,43,-1
 305 103 l 2,44,45
 262 103 262 103 221 116.5 c 128,-1,46
 180 130 180 130 143 172 c 0,47,48
 103 215 103 215 103 305 c 0,49,50
 103 454 103 454 206 641 c 0,51,52
 307 823 307 823 390 823 c 0,53,54
 447 823 447 823 522 737 c 0,55,56
 596 651 596 651 635 542 c 1,57,-1
 639 516 l 1,58,-1
 640 494 l 2,33,34
EndSplineSet
EndChar

StartChar: arabicindicdigitsix
Encoding: 1638 1638 55
Width: 770
Flags: W
LayerCount: 2
Fore
SplineSet
634 -57 m 2,0,1
 632 -57 632 -57 632 -55 c 1,2,3
 635 -57 635 -57 636 -57 c 1,4,-1
 634 -57 l 2,0,1
675 150 m 2,5,6
 674 138 674 138 668 107 c 128,-1,7
 662 76 662 76 652 31 c 0,8,9
 630 -43 630 -43 632 -55 c 1,10,11
 621 -48 621 -48 602 -19.5 c 128,-1,12
 583 9 583 9 560 54 c 0,13,14
 522 129 522 129 502 210 c 128,-1,15
 482 291 482 291 482 375 c 2,16,-1
 482 474 l 2,17,18
 485 519 485 519 485.5 549 c 128,-1,19
 486 579 486 579 486 591 c 0,20,21
 487 603 487 603 489.5 625 c 128,-1,22
 492 647 492 647 495 673 c 1,23,-1
 471 698 l 1,24,25
 460 696 460 696 445.5 693 c 128,-1,26
 431 690 431 690 419 688 c 0,27,28
 415 687 415 687 410 687 c 0,29,30
 406 687 406 687 403 686 c 0,31,32
 371 681 371 681 351 678 c 128,-1,33
 331 675 331 675 312 675 c 0,34,35
 230 675 230 675 201 691 c 0,36,37
 145 714 145 714 115 766 c 1,38,-1
 117 763 l 1,39,40
 115 768 115 768 113 775.5 c 128,-1,41
 111 783 111 783 109 789 c 1,42,-1
 107 819 l 2,43,44
 107 859 107 859 133 965 c 1,45,-1
 191 928 l 2,46,47
 236 907 236 907 280.5 896 c 128,-1,48
 325 885 325 885 375 885 c 0,49,50
 406 885 406 885 450 893 c 128,-1,51
 494 901 494 901 546 915 c 1,52,-1
 548 915 l 1,53,-1
 542 885 l 1,54,-1
 542 886 l 1,55,-1
 528 808 l 2,56,57
 527 794 527 794 526 779 c 128,-1,58
 525 764 525 764 524 750 c 2,59,-1
 513 643 l 1,60,-1
 518 643 l 1,61,-1
 518 599 l 1,62,-1
 523 552 l 1,63,-1
 527 516 l 1,64,-1
 545 435 l 2,65,66
 557 388 557 388 574.5 341.5 c 128,-1,67
 592 295 592 295 615 251 c 0,68,69
 630 223 630 223 643 201.5 c 128,-1,70
 656 180 656 180 675 155 c 1,71,-1
 675 150 l 2,5,6
EndSplineSet
EndChar

StartChar: arabicindicdigitseven
Encoding: 1639 1639 56
Width: 919
Flags: W
LayerCount: 2
Fore
SplineSet
814 763 m 1,0,1
 800 749 800 749 776 715.5 c 128,-1,2
 752 682 752 682 720 628 c 0,3,4
 691 579 691 579 661.5 514.5 c 128,-1,5
 632 450 632 450 601 369 c 2,6,-1
 568 271 l 1,7,-1
 510 87 l 2,8,9
 478 -11 478 -11 466 -15 c 1,10,11
 453 -15 453 -15 428 73 c 0,12,13
 416 119 416 119 404 158.5 c 128,-1,14
 392 198 392 198 379 234 c 0,15,16
 368 267 368 267 355.5 297 c 128,-1,17
 343 327 343 327 329 355 c 2,18,-1
 289 442 l 2,19,20
 278 463 278 463 269 480.5 c 128,-1,21
 260 498 260 498 250 514 c 0,22,23
 232 546 232 546 212 576 c 128,-1,24
 192 606 192 606 170 634 c 1,25,-1
 170 635 l 1,26,-1
 119 692 l 1,27,-1
 100 710 l 1,28,-1
 126 784 l 2,29,30
 140 823 140 823 152 849.5 c 128,-1,31
 164 876 164 876 174 889 c 1,32,-1
 217 844 l 1,33,-1
 243 809 l 1,34,-1
 275 759 l 2,35,36
 286 742 286 742 296.5 721 c 128,-1,37
 307 700 307 700 320 674 c 2,38,-1
 418 438 l 1,39,-1
 479 279 l 1,40,-1
 501 279 l 1,41,-1
 544 409 l 1,42,-1
 569 484 l 1,43,-1
 598 562 l 1,44,-1
 626 633 l 1,45,-1
 655 698 l 2,46,47
 670 736 670 736 694.5 776 c 128,-1,48
 719 816 719 816 751 861 c 0,49,50
 770 887 770 887 780.5 901.5 c 128,-1,51
 791 916 791 916 796 921 c 1,52,53
 796 916 796 916 799 895 c 0,54,55
 802 875 802 875 814 763 c 1,0,1
EndSplineSet
EndChar

StartChar: arabicindicdigiteight
Encoding: 1640 1640 57
Width: 903
Flags: W
LayerCount: 2
Fore
SplineSet
793 104 m 2,0,1
 777 47 777 47 764 13.5 c 128,-1,2
 751 -20 751 -20 740 -34 c 1,3,-1
 697 13 l 2,4,5
 681 33 681 33 668 53.5 c 128,-1,6
 655 74 655 74 644 94 c 0,7,8
 637 105 637 105 625.5 127.5 c 128,-1,9
 614 150 614 150 597 186 c 2,10,-1
 558 273 l 1,11,-1
 501 417 l 1,12,-1
 441 573 l 1,13,-1
 419 573 l 1,14,-1
 394 500 l 1,15,-1
 350 382 l 1,16,-1
 315 293 l 1,17,-1
 263 171 l 2,18,19
 246 128 246 128 221.5 84 c 128,-1,20
 197 40 197 40 166 -5 c 0,21,22
 121 -70 121 -70 117 -71 c 1,23,24
 105 -62 105 -62 105 58 c 2,25,-1
 103 115 l 1,26,-1
 195 232 l 1,27,-1
 196 233 l 1,28,29
 223 281 223 281 252 343 c 128,-1,30
 281 405 281 405 313 486 c 2,31,-1
 386 703 l 2,32,33
 439 867 439 867 452 867 c 0,34,35
 469 867 469 867 495 780 c 0,36,37
 514 697 514 697 536 634 c 128,-1,38
 558 571 558 571 590 509 c 0,39,40
 625 431 625 431 655.5 372.5 c 128,-1,41
 686 314 686 314 712 276 c 2,42,-1
 806 152 l 1,43,-1
 793 104 l 2,0,1
EndSplineSet
EndChar

StartChar: arabicindicdigitnine
Encoding: 1641 1641 58
Width: 757
Flags: W
LayerCount: 2
Fore
SplineSet
420 579 m 1,0,1
 412 641 412 641 400 663 c 1,2,3
 374 739 374 739 321 752 c 1,4,-1
 317 752 l 2,5,6
 294 752 294 752 257 709 c 2,7,-1
 256 708 l 1,8,9
 225 665 225 665 225 642 c 1,10,11
 231 628 231 628 251.5 616.5 c 128,-1,12
 272 605 272 605 309 586 c 1,13,-1
 311 586 l 1,14,15
 380 562 380 562 398 562 c 2,16,-1
 400 562 l 1,17,-1
 410 564 l 1,18,-1
 420 579 l 1,0,1
660 111 m 2,19,20
 660 82 660 82 636 -5 c 0,21,22
 610 -95 610 -95 608 -97 c 1,23,24
 584 -92 584 -92 522 52 c 2,25,-1
 499 115 l 1,26,-1
 477 185 l 2,27,28
 469 217 469 217 461 258 c 128,-1,29
 453 299 453 299 445 350 c 1,30,-1
 434 360 l 1,31,-1
 419 363 l 1,32,-1
 370 369 l 2,33,34
 315 369 315 369 258 378 c 0,35,36
 201 388 201 388 154 434 c 1,37,-1
 153 434 l 1,38,39
 107 478 107 478 103 539 c 0,40,41
 103 593 103 593 126.5 657 c 128,-1,42
 150 721 150 721 198 794 c 0,43,44
 294 939 294 939 360 939 c 0,45,46
 427 939 427 939 476 842 c 0,47,48
 529 738 529 738 529 544 c 0,49,50
 529 450 529 450 544.5 368.5 c 128,-1,51
 560 287 560 287 595 217 c 0,52,53
 603 200 603 200 615 180.5 c 128,-1,54
 627 161 627 161 642 138 c 1,55,-1
 643 137 l 1,56,-1
 659 119 l 1,57,-1
 660 111 l 2,19,20
EndSplineSet
EndChar

StartChar: arabicpercentsign
Encoding: 1642 1642 59
Width: 567
Flags: W
LayerCount: 2
Fore
SplineSet
197 869 m 1,0,-1
 31 869 l 1,1,-1
 31 1049 l 1,2,-1
 197 1049 l 1,3,-1
 197 869 l 1,0,-1
520 1049 m 1,4,-1
 109 8 l 1,5,-1
 16 8 l 1,6,-1
 427 1049 l 1,7,-1
 520 1049 l 1,4,-1
508 -7 m 1,8,-1
 341 -7 l 1,9,-1
 341 172 l 1,10,-1
 508 172 l 1,11,-1
 508 -7 l 1,8,-1
EndSplineSet
EndChar

StartChar: arabicfivepointedstar
Encoding: 1645 1645 60
Width: 815
Flags: W
LayerCount: 2
Fore
SplineSet
765 1190 m 1,0,-1
 547 1029 l 1,1,-1
 629 770 l 1,2,-1
 408 928 l 1,3,-1
 187 770 l 1,4,-1
 269 1029 l 1,5,-1
 51 1190 l 1,6,-1
 322 1190 l 1,7,-1
 408 1450 l 1,8,-1
 494 1190 l 1,9,-1
 765 1190 l 1,0,-1
EndSplineSet
EndChar

StartChar: shaddawithdammatanisolated
Encoding: 64606 64606 62
Width: 482
Flags: W
LayerCount: 2
Fore
SplineSet
482 1788 m 0,0,1
 482 1779 482 1779 475 1769 c 1,2,3
 451 1775 451 1775 381 1800 c 1,4,5
 248 1730 248 1730 174 1730 c 0,6,7
 132 1730 132 1730 92 1743 c 1,8,9
 156 1777 156 1777 156 1818 c 0,10,11
 156 1872 156 1872 106 1872 c 1,12,13
 113 1872 113 1872 104 1870.5 c 128,-1,14
 95 1869 95 1869 70 1865 c 1,15,16
 94 1941 94 1941 141 1941 c 0,17,18
 166 1941 166 1941 184.5 1919 c 128,-1,19
 203 1897 203 1897 203 1865 c 0,20,21
 203 1841 203 1841 186 1792 c 1,22,23
 258 1800 258 1800 319 1837 c 1,24,25
 266 1873 266 1873 266 1915 c 0,26,27
 266 1951 266 1951 309 1988 c 0,28,29
 352 2027 352 2027 393 2027 c 0,30,31
 415 2027 415 2027 438 2003 c 0,32,33
 461 1977 461 1977 461 1953 c 0,34,35
 461 1925 461 1925 436 1874 c 1,36,37
 482 1846 482 1846 482 1788 c 0,0,1
455 1677 m 0,38,39
 455 1640 455 1640 447 1609 c 128,-1,40
 439 1578 439 1578 425 1556 c 128,-1,41
 411 1534 411 1534 391.5 1521.5 c 128,-1,42
 372 1509 372 1509 350 1509 c 0,43,44
 330 1509 330 1509 282 1532 c 2,45,-1
 278 1534 l 1,46,47
 233 1450 233 1450 174 1450 c 0,48,49
 94 1450 94 1450 94 1554 c 0,50,51
 94 1583 94 1583 117 1650 c 1,52,-1
 137 1652 l 1,53,54
 141 1552 141 1552 186 1552 c 0,55,56
 233 1552 233 1552 272 1687 c 1,57,-1
 291 1689 l 1,58,59
 307 1616 307 1616 356 1616 c 0,60,61
 407 1616 407 1616 430 1726 c 1,62,-1
 450 1726 l 1,63,64
 452 1715 452 1715 453.5 1703 c 128,-1,65
 455 1691 455 1691 455 1677 c 0,38,39
395 1941 m 0,66,67
 395 1982 395 1982 364 1982 c 0,68,69
 334 1982 334 1982 334 1958 c 256,70,71
 334 1934 334 1934 381 1902 c 1,72,73
 395 1928 395 1928 395 1941 c 0,66,67
EndSplineSet
Ligature2: "'liga' Standard Ligatures in Arabic lookup 7 subtable" shadda dammatan
AlternateSubs2: "'aalt' Access All Alternates in Latin lookup 1 subtable" shaddawithdammatanisolated shaddawithdammatanisolatedlow
EndChar

StartChar: shaddawithkasratanisolated
Encoding: 64607 64607 63
Width: 420
Flags: W
LayerCount: 2
Fore
SplineSet
420 1940 m 0,0,1
 420 1772 420 1772 316 1772 c 0,2,3
 280 1772 280 1772 252 1793 c 1,4,5
 244 1758 244 1758 213 1733 c 0,6,7
 181 1707 181 1707 148 1707 c 0,8,9
 66 1707 66 1707 66 1815 c 0,10,11
 66 1840 66 1840 88 1916 c 1,12,-1
 111 1920 l 1,13,14
 111 1809 111 1809 150 1809 c 0,15,16
 214 1809 214 1809 240 1971 c 1,17,-1
 258 1977 l 1,18,19
 281 1879 281 1879 316 1879 c 0,20,21
 374 1879 374 1879 383 2026 c 1,22,-1
 406 2036 l 1,23,24
 420 1975 420 1975 420 1940 c 0,0,1
412 1773 m 1,25,26
 397 1707 397 1707 353 1687 c 2,27,-1
 70 1560 l 1,28,29
 98 1633 98 1633 156 1659 c 2,30,-1
 412 1773 l 1,25,26
412 1656 m 1,31,32
 397 1594 397 1594 346 1572 c 2,33,-1
 70 1450 l 1,34,35
 90 1520 90 1520 142 1542 c 2,36,-1
 412 1656 l 1,31,32
EndSplineSet
Ligature2: "'liga' Standard Ligatures in Arabic lookup 7 subtable" shadda kasratan
AlternateSubs2: "'aalt' Access All Alternates in Latin lookup 1 subtable" shaddawithkasratanisolated shaddawithkasratanisolatedlow
EndChar

StartChar: shaddawithfathaisolated
Encoding: 64608 64608 64
Width: 414
Flags: W
LayerCount: 2
Fore
SplineSet
408 1845 m 1,0,1
 398 1784 398 1784 359 1769 c 2,2,-1
 64 1653 l 1,3,4
 91 1722 91 1722 150 1745 c 2,5,-1
 408 1845 l 1,0,1
414 1673 m 0,6,7
 414 1638 414 1638 406 1608.5 c 128,-1,8
 398 1579 398 1579 384 1557 c 128,-1,9
 370 1535 370 1535 350.5 1523 c 128,-1,10
 331 1511 331 1511 308 1511 c 0,11,12
 290 1511 290 1511 246 1534 c 2,13,-1
 242 1536 l 1,14,15
 204 1450 204 1450 138 1450 c 0,16,17
 60 1450 60 1450 60 1548 c 1,18,19
 60 1543 60 1543 66 1609 c 1,20,-1
 95 1628 l 1,21,22
 105 1550 105 1550 148 1550 c 0,23,24
 203 1550 203 1550 236 1683 c 1,25,-1
 258 1689 l 1,26,27
 283 1616 283 1616 316 1616 c 0,28,29
 373 1616 373 1616 381 1738 c 1,30,-1
 408 1747 l 1,31,32
 414 1714 414 1714 414 1673 c 0,6,7
EndSplineSet
Ligature2: "'liga' Standard Ligatures in Arabic lookup 7 subtable" shadda fatha
AlternateSubs2: "'aalt' Access All Alternates in Latin lookup 1 subtable" shaddawithfathaisolated shaddawithfathaisolatedlow
EndChar

StartChar: shaddawithdammaisolated
Encoding: 64609 64609 65
Width: 424
Flags: W
LayerCount: 2
Fore
SplineSet
424 1763 m 1,0,1
 381 1769 381 1769 314 1792 c 1,2,3
 192 1694 192 1694 129 1694 c 0,4,5
 107 1694 107 1694 64 1714 c 1,6,7
 130 1736 130 1736 182.5 1760 c 128,-1,8
 235 1784 235 1784 273 1812 c 1,9,10
 224 1849 224 1849 224 1896 c 0,11,12
 224 1938 224 1938 262 1979 c 0,13,14
 301 2019 301 2019 344 2019 c 0,15,16
 366 2019 366 2019 392 1995 c 0,17,18
 418 1972 418 1972 418 1952 c 0,19,20
 418 1907 418 1907 382 1864 c 1,21,22
 390 1860 390 1860 399 1854.5 c 128,-1,23
 408 1849 408 1849 417 1842 c 0,24,25
 424 1835 424 1835 424 1800 c 2,26,-1
 424 1763 l 1,0,1
418 1720 m 1,27,28
 418 1505 418 1505 310 1505 c 0,29,30
 268 1505 268 1505 240 1530 c 1,31,32
 208 1450 208 1450 136 1450 c 0,33,34
 58 1450 58 1450 58 1548 c 0,35,36
 58 1592 58 1592 80 1632 c 1,37,-1
 101 1634 l 1,38,39
 107 1552 107 1552 148 1552 c 0,40,41
 194 1552 194 1552 236 1671 c 1,42,-1
 260 1677 l 1,43,44
 272 1610 272 1610 314 1610 c 0,45,46
 370 1610 370 1610 394 1714 c 1,47,-1
 418 1720 l 1,27,28
353 1927 m 0,48,49
 353 1976 353 1976 310 1976 c 0,50,51
 285 1976 285 1976 285 1946 c 0,52,53
 285 1922 285 1922 344 1884 c 1,54,55
 353 1908 353 1908 353 1927 c 0,48,49
EndSplineSet
Ligature2: "'liga' Standard Ligatures in Arabic lookup 7 subtable" shadda damma
AlternateSubs2: "'aalt' Access All Alternates in Latin lookup 1 subtable" shaddawithdammaisolated shaddawithdammaisolatedlow
EndChar

StartChar: shaddawithkasraisolated
Encoding: 64610 64610 66
Width: 420
Flags: W
LayerCount: 2
Fore
SplineSet
420 1830 m 0,0,1
 420 1662 420 1662 316 1662 c 0,2,3
 280 1662 280 1662 252 1683 c 1,4,5
 244 1648 244 1648 213 1623 c 0,6,7
 181 1597 181 1597 148 1597 c 0,8,9
 66 1597 66 1597 66 1705 c 0,10,11
 66 1730 66 1730 88 1806 c 1,12,-1
 111 1810 l 1,13,14
 111 1699 111 1699 150 1699 c 0,15,16
 214 1699 214 1699 240 1861 c 1,17,-1
 258 1867 l 1,18,19
 281 1769 281 1769 316 1769 c 0,20,21
 374 1769 374 1769 383 1916 c 1,22,-1
 406 1926 l 1,23,24
 420 1865 420 1865 420 1830 c 0,0,1
412 1663 m 1,25,26
 397 1597 397 1597 353 1577 c 2,27,-1
 70 1450 l 1,28,29
 98 1523 98 1523 156 1549 c 2,30,-1
 412 1663 l 1,25,26
EndSplineSet
Ligature2: "'liga' Standard Ligatures in Arabic lookup 7 subtable" shadda kasra
AlternateSubs2: "'aalt' Access All Alternates in Latin lookup 1 subtable" shaddawithkasraisolated shaddawithkasraisolatedlow
EndChar

StartChar: shaddawithfathamedial
Encoding: 64754 64754 67
Width: 1284
Flags: W
LayerCount: 2
Fore
SplineSet
807 1552 m 1,0,1
 807 1486 807 1486 772 1466 c 2,2,-1
 469 1294 l 1,3,4
 472 1332 472 1332 483 1353 c 0,5,6
 495 1373 495 1373 535 1395 c 2,7,-1
 807 1552 l 1,0,1
819 1263 m 0,8,9
 819 1095 819 1095 715 1095 c 0,10,11
 679 1095 679 1095 651 1116 c 1,12,13
 643 1081 643 1081 612 1056 c 0,14,15
 580 1030 580 1030 547 1030 c 0,16,17
 465 1030 465 1030 465 1138 c 0,18,19
 465 1163 465 1163 487 1239 c 1,20,-1
 510 1243 l 1,21,22
 510 1132 510 1132 549 1132 c 0,23,24
 613 1132 613 1132 639 1294 c 1,25,-1
 657 1300 l 1,26,27
 680 1202 680 1202 715 1202 c 0,28,29
 773 1202 773 1202 782 1349 c 1,30,-1
 805 1359 l 1,31,32
 819 1298 819 1298 819 1263 c 0,8,9
1354 129 m 1,33,-1
 0 129 l 1,34,-1
 0 250 l 1,35,-1
 1354 250 l 1,36,-1
 1354 129 l 1,33,-1
EndSplineSet
Ligature2: "'liga' Standard Ligatures in Arabic lookup 6 subtable" tatweel shadda fatha
EndChar

StartChar: shaddawithdammamedial
Encoding: 64755 64755 68
Width: 1284
Flags: W
LayerCount: 2
Fore
SplineSet
813 1503 m 1,0,-1
 805 1404 l 1,1,-1
 725 1456 l 1,2,3
 605 1312 605 1312 528 1312 c 0,4,5
 509 1312 509 1312 469 1324 c 1,6,7
 571 1381 571 1381 682 1480 c 1,8,9
 621 1525 621 1525 621 1570 c 0,10,11
 621 1630 621 1630 666 1695 c 0,12,13
 696 1738 696 1738 737 1738 c 0,14,15
 805 1738 805 1738 805 1650 c 0,16,17
 805 1599 805 1599 774 1533 c 1,18,19
 787 1522 787 1522 813 1503 c 1,0,-1
819 1263 m 0,20,21
 819 1095 819 1095 715 1095 c 0,22,23
 679 1095 679 1095 651 1116 c 1,24,25
 643 1081 643 1081 612 1056 c 0,26,27
 580 1030 580 1030 547 1030 c 0,28,29
 465 1030 465 1030 465 1138 c 0,30,31
 465 1163 465 1163 487 1239 c 1,32,-1
 510 1243 l 1,33,34
 510 1132 510 1132 549 1132 c 0,35,36
 613 1132 613 1132 639 1294 c 1,37,-1
 657 1300 l 1,38,39
 680 1202 680 1202 715 1202 c 0,40,41
 773 1202 773 1202 782 1349 c 1,42,-1
 805 1359 l 1,43,44
 819 1298 819 1298 819 1263 c 0,20,21
743 1591 m 0,45,46
 743 1614 743 1614 727 1633 c 128,-1,47
 711 1652 711 1652 690 1652 c 0,48,49
 672 1652 672 1652 672 1632 c 0,50,51
 672 1601 672 1601 737 1557 c 1,52,53
 743 1576 743 1576 743 1591 c 0,45,46
1354 129 m 1,54,-1
 0 129 l 1,55,-1
 0 250 l 1,56,-1
 1354 250 l 1,57,-1
 1354 129 l 1,54,-1
EndSplineSet
Ligature2: "'liga' Standard Ligatures in Arabic lookup 6 subtable" tatweel shadda damma
EndChar

StartChar: shaddawithkasramedial
Encoding: 64756 64756 69
Width: 1284
Flags: W
LayerCount: 2
Fore
SplineSet
819 1491 m 0,0,1
 819 1323 819 1323 715 1323 c 0,2,3
 679 1323 679 1323 651 1344 c 1,4,5
 643 1309 643 1309 612 1284 c 0,6,7
 580 1258 580 1258 547 1258 c 0,8,9
 465 1258 465 1258 465 1366 c 0,10,11
 465 1391 465 1391 487 1467 c 1,12,-1
 510 1471 l 1,13,14
 510 1360 510 1360 549 1360 c 0,15,16
 613 1360 613 1360 639 1522 c 1,17,-1
 657 1528 l 1,18,19
 680 1430 680 1430 715 1430 c 0,20,21
 773 1430 773 1430 782 1577 c 1,22,-1
 805 1587 l 1,23,24
 819 1526 819 1526 819 1491 c 0,0,1
807 1288 m 1,25,26
 807 1222 807 1222 772 1202 c 2,27,-1
 469 1030 l 1,28,29
 472 1068 472 1068 483 1089 c 0,30,31
 495 1109 495 1109 535 1131 c 2,32,-1
 807 1288 l 1,25,26
1354 129 m 1,33,-1
 0 129 l 1,34,-1
 0 250 l 1,35,-1
 1354 250 l 1,36,-1
 1354 129 l 1,33,-1
EndSplineSet
Ligature2: "'liga' Standard Ligatures in Arabic lookup 6 subtable" tatweel shadda kasra
EndChar

StartChar: ornateleftparenthesis
Encoding: 64830 64830 70
Width: 1135
Flags: W
LayerCount: 2
Fore
SplineSet
1075 -612 m 0,0,1
 1075 -627 1075 -627 1051 -627 c 0,2,3
 975 -627 975 -627 822 -476 c 0,4,5
 621 -280 621 -280 508 23 c 1,6,7
 299 26 299 26 299 78 c 1,8,9
 436 222 436 222 436 301 c 1,10,11
 374 301 374 301 302.5 227.5 c 128,-1,12
 231 154 231 154 221 154 c 0,13,14
 183 154 183 154 166 317 c 1,15,16
 55 371 55 371 55 412 c 0,17,18
 55 458 55 458 160 520 c 1,19,20
 171 676 171 676 209 676 c 1,21,22
 362 532 362 532 436 532 c 1,23,24
 429 609 429 609 358 678 c 128,-1,25
 287 747 287 747 287 756 c 0,26,27
 287 772 287 772 348 791 c 0,28,29
 417 812 417 812 502 815 c 1,30,31
 574 1032 574 1032 697 1203 c 0,32,33
 792 1336 792 1336 901 1422 c 0,34,35
 988 1491 988 1491 1024 1491 c 0,36,37
 1044 1491 1044 1491 1044 1468 c 0,38,39
 1044 1458 1044 1458 971 1377 c 0,40,41
 881 1276 881 1276 824 1169 c 0,42,43
 735 1005 735 1005 705 805 c 1,44,45
 805 789 805 789 805 760 c 1,46,47
 664 618 664 618 664 539 c 1,48,49
 736 539 736 539 879 686 c 1,50,51
 897 686 897 686 916 633 c 128,-1,52
 935 580 935 580 938 522 c 1,53,54
 1044 467 1044 467 1044 422 c 0,55,56
 1044 385 1044 385 944 326 c 1,57,58
 936 166 936 166 889 166 c 1,59,-1
 821 231 l 2,60,61
 752 299 752 299 668 307 c 1,62,63
 668 236 668 236 741.5 164 c 128,-1,64
 815 92 815 92 815 80 c 0,65,66
 815 57 815 57 707 35 c 1,67,68
 739 -128 739 -128 837.5 -301.5 c 128,-1,69
 936 -475 936 -475 1055 -578 c 0,70,71
 1075 -595 1075 -595 1075 -612 c 0,0,1
956 1417 m 1,72,73
 678 1229 678 1229 528 768 c 1,74,75
 407 762 407 762 387 759 c 0,76,77
 362 755 362 755 362 743 c 1,78,-1
 401 705 l 2,79,80
 449 660 449 660 479 600 c 1,81,82
 524 682 524 682 553 682 c 0,83,84
 572 682 572 682 618 600 c 1,85,86
 628 624 628 624 683 673 c 0,87,88
 731 716 731 716 731 750 c 0,89,90
 731 760 731 760 701 766 c 2,91,-1
 655 774 l 1,92,93
 714 1018 714 1018 753 1109 c 0,94,95
 812 1247 812 1247 956 1417 c 1,72,73
989 428 m 0,96,97
 989 454 989 454 897 485 c 1,98,99
 886 612 886 612 872 612 c 0,100,101
 864 612 864 612 818 565 c 0,102,103
 766 512 766 512 713 492 c 1,104,105
 809 450 809 450 809 418 c 0,106,107
 809 385 809 385 717 350 c 1,108,109
 783 328 783 328 834 280 c 2,110,-1
 879 238 l 1,111,112
 897 238 897 238 897 354 c 1,113,114
 989 406 989 406 989 428 c 0,96,97
680 418 m 0,115,116
 680 471 680 471 642 509 c 128,-1,117
 604 547 604 547 551 547 c 0,118,119
 497 547 497 547 459.5 509 c 128,-1,120
 422 471 422 471 422 418 c 0,121,122
 422 366 422 366 459.5 329.5 c 128,-1,123
 497 293 497 293 551 293 c 0,124,125
 604 293 604 293 642 329.5 c 128,-1,126
 680 366 680 366 680 418 c 0,115,116
387 348 m 1,127,128
 293 390 293 390 293 422 c 0,129,130
 293 456 293 456 385 489 c 1,131,132
 358 498 358 498 304 553 c 0,133,134
 257 602 257 602 221 602 c 0,135,136
 203 602 203 602 203 485 c 1,137,138
 111 433 111 433 111 412 c 0,139,140
 111 387 111 387 203 354 c 1,141,142
 214 227 214 227 227 227 c 0,143,144
 235 227 235 227 282 274 c 0,145,146
 334 328 334 328 387 348 c 1,127,128
1001 -571 m 1,147,148
 888 -469 888 -469 800 -315 c 0,149,150
 694 -130 694 -130 664 68 c 1,151,152
 743 75 743 75 743 90 c 1,153,-1
 700 131 l 2,154,155
 649 178 649 178 618 240 c 1,156,157
 581 158 581 158 551 158 c 0,158,159
 511 158 511 158 483 240 c 1,160,161
 455 173 455 173 410 127 c 2,162,-1
 373 86 l 1,163,164
 373 78 373 78 465 68 c 0,165,166
 490 68 490 68 535 72 c 1,167,168
 672 -359 672 -359 1001 -571 c 1,147,148
EndSplineSet
EndChar

StartChar: ornaterightparenthesis
Encoding: 64831 64831 71
Width: 1135
Flags: W
LayerCount: 2
Fore
SplineSet
1079 453 m 0,0,1
 1079 405 1079 405 975 344 c 1,2,3
 964 188 964 188 926 188 c 1,4,5
 773 332 773 332 698 332 c 1,6,7
 706 255 706 255 777 186.5 c 128,-1,8
 848 118 848 118 848 109 c 0,9,10
 848 93 848 93 787 73 c 0,11,12
 718 52 718 52 633 49 c 1,13,14
 561 -168 561 -168 438 -339 c 0,15,16
 343 -472 343 -472 234 -558 c 0,17,18
 147 -627 147 -627 111 -627 c 0,19,20
 90 -627 90 -627 90 -606 c 0,21,22
 90 -596 90 -596 163 -514 c 0,23,24
 253 -412 253 -412 311 -306 c 0,25,26
 399 -142 399 -142 430 59 c 1,27,28
 330 76 330 76 330 104 c 1,29,30
 471 247 471 247 471 326 c 1,31,32
 398 326 398 326 256 178 c 1,33,34
 237 178 237 178 218.5 230.5 c 128,-1,35
 200 283 200 283 197 342 c 1,36,37
 90 398 90 398 90 442 c 0,38,39
 90 480 90 480 190 539 c 1,40,41
 200 698 200 698 246 698 c 1,42,-1
 314 633 l 2,43,44
 383 565 383 565 467 557 c 1,45,46
 467 629 467 629 393 701 c 128,-1,47
 319 773 319 773 319 784 c 0,48,49
 319 807 319 807 428 829 c 1,50,51
 396 993 396 993 297.5 1166 c 128,-1,52
 199 1339 199 1339 80 1442 c 0,53,54
 59 1460 59 1460 59 1475 c 0,55,56
 59 1491 59 1491 84 1491 c 0,57,58
 160 1491 160 1491 313 1341 c 0,59,60
 514 1144 514 1144 627 842 c 1,61,62
 836 839 836 839 836 786 c 1,63,64
 698 642 698 642 698 563 c 1,65,66
 760 563 760 563 832 637 c 128,-1,67
 904 711 904 711 913 711 c 0,68,69
 951 711 951 711 969 547 c 1,70,71
 1079 493 1079 493 1079 453 c 0,0,1
762 778 m 1,72,73
 762 787 762 787 670 797 c 0,74,75
 645 797 645 797 600 793 c 1,76,77
 460 1223 460 1223 133 1436 c 1,78,79
 247 1331 247 1331 335 1178 c 0,80,81
 441 993 441 993 471 797 c 1,82,83
 391 790 391 790 391 774 c 1,84,-1
 434 733 l 2,85,86
 486 687 486 687 516 625 c 1,87,88
 555 707 555 707 584 707 c 0,89,90
 624 707 624 707 651 625 c 1,91,92
 679 691 679 691 724 737 c 2,93,-1
 762 778 l 1,72,73
1024 453 m 0,94,95
 1024 476 1024 476 932 510 c 1,96,97
 921 637 921 637 907 637 c 0,98,99
 899 637 899 637 853 590 c 0,100,101
 801 536 801 536 748 516 c 1,102,103
 842 474 842 474 842 442 c 0,104,105
 842 408 842 408 750 375 c 1,106,107
 777 366 777 366 830 311 c 0,108,109
 877 262 877 262 913 262 c 0,110,111
 932 262 932 262 932 379 c 1,112,113
 1024 433 1024 433 1024 453 c 0,94,95
713 446 m 0,114,115
 713 498 713 498 675 534.5 c 128,-1,116
 637 571 637 571 584 571 c 256,117,118
 531 571 531 571 493 534.5 c 128,-1,119
 455 498 455 498 455 446 c 0,120,121
 455 393 455 393 493 355 c 128,-1,122
 531 317 531 317 584 317 c 256,123,124
 637 317 637 317 675 355 c 128,-1,125
 713 393 713 393 713 446 c 0,114,115
422 373 m 1,126,127
 326 413 326 413 326 446 c 0,128,129
 326 481 326 481 418 514 c 1,130,131
 351 536 351 536 300 584 c 2,132,-1
 256 627 l 1,133,134
 238 627 238 627 238 510 c 1,135,136
 145 458 145 458 145 436 c 0,137,138
 145 410 145 410 238 379 c 1,139,140
 249 252 249 252 262 252 c 0,141,142
 270 252 270 252 317 299 c 0,143,144
 369 353 369 353 422 373 c 1,126,127
772 121 m 1,145,-1
 733 160 l 2,146,147
 686 204 686 204 655 264 c 1,148,149
 612 182 612 182 582 182 c 0,150,151
 562 182 562 182 516 264 c 1,152,153
 494 209 494 209 446 160 c 2,154,-1
 403 115 l 1,155,156
 403 105 403 105 434 98 c 0,157,158
 456 94 456 94 479 90 c 1,159,160
 422 -153 422 -153 382 -246 c 0,161,162
 323 -382 323 -382 178 -553 c 1,163,164
 458 -364 458 -364 606 96 c 1,165,166
 727 102 727 102 749.5 105.5 c 128,-1,167
 772 109 772 109 772 121 c 1,145,-1
EndSplineSet
EndChar

StartChar: allahisolated
Encoding: 65010 65010 72
Width: 1530
Flags: W
LayerCount: 2
Fore
SplineSet
1499 187 m 0,0,1
 1499 126 1499 126 1486.5 80.5 c 128,-1,2
 1474 35 1474 35 1451 0 c 1,3,4
 1447 0 1447 0 1441 -0.5 c 128,-1,5
 1435 -1 1435 -1 1426 -1 c 2,6,-1
 645 -1 l 2,7,8
 570 -1 570 -1 533 78 c 0,9,10
 505 128 505 128 481 276 c 1,11,-1
 455 279 l 1,12,13
 386 116 386 116 365 110 c 1,14,15
 230 110 230 110 139 156 c 1,16,-1
 137 156 l 1,17,18
 25 205 25 205 25 277 c 0,19,20
 25 294 25 294 39.5 334.5 c 128,-1,21
 54 375 54 375 81 439 c 0,22,23
 140 562 140 562 183 593 c 1,24,25
 193 598 193 598 221 611.5 c 128,-1,26
 249 625 249 625 297 645 c 2,27,-1
 438 702 l 1,28,-1
 446 715 l 1,29,-1
 440 808 l 1,30,31
 476 846 476 846 550 912 c 1,32,33
 552 903 552 903 558.5 781.5 c 128,-1,34
 565 660 565 660 576 422 c 0,35,36
 582 304 582 304 602 269 c 0,37,38
 619 237 619 237 679 237 c 2,39,-1
 835 237 l 1,40,-1
 878 241 l 1,41,-1
 890 255 l 1,42,-1
 890 323 l 2,43,44
 890 369 890 369 886 381 c 1,45,46
 879 468 879 468 873 531 c 128,-1,47
 867 594 867 594 862.5 638 c 128,-1,48
 858 682 858 682 854 710 c 128,-1,49
 850 738 850 738 847.5 755.5 c 128,-1,50
 845 773 845 773 843 781.5 c 128,-1,51
 841 790 841 790 840 796 c 0,52,53
 839 800 839 800 839.5 798.5 c 128,-1,54
 840 797 840 797 839 802 c 1,55,-1
 983 959 l 1,56,-1
 1052 250 l 1,57,-1
 1065 237 l 1,58,-1
 1279 237 l 1,59,-1
 1322 241 l 1,60,-1
 1334 255 l 1,61,-1
 1334 260 l 2,62,63
 1335 277 1335 277 1335.5 293 c 128,-1,64
 1336 309 1336 309 1336 323 c 0,65,66
 1336 369 1336 369 1332 381 c 1,67,68
 1320 513 1320 513 1310.5 612.5 c 128,-1,69
 1301 712 1301 712 1293.5 784 c 128,-1,70
 1286 856 1286 856 1281 902 c 128,-1,71
 1276 948 1276 948 1273 972 c 0,72,73
 1272 977 1272 977 1271.5 982 c 128,-1,74
 1271 987 1271 987 1270 989 c 1,75,-1
 1426 1150 l 1,76,-1
 1497 240 l 2,77,78
 1498 226 1498 226 1498.5 213.5 c 128,-1,79
 1499 201 1499 201 1499 187 c 0,0,1
461 330 m 1,80,-1
 475 343 l 1,81,82
 474 372 474 372 471 435.5 c 128,-1,83
 468 499 468 499 462 599 c 1,84,-1
 445 610 l 1,85,86
 236 546 236 546 167 444 c 1,87,-1
 169 428 l 1,88,89
 264 330 264 330 461 330 c 1,80,-1
1091 1216 m 0,90,91
 1091 1098 1091 1098 988 1097 c 2,92,-1
 985 1097 l 2,93,94
 934 1097 934 1097 903 1142 c 1,95,-1
 882 1143 l 1,96,97
 836 1079 836 1079 743 1079 c 256,98,99
 650 1079 650 1079 650 1160 c 0,100,101
 650 1215 650 1215 685 1256 c 1,102,103
 680 1242 680 1242 678 1229.5 c 128,-1,104
 676 1217 676 1217 676 1207 c 0,105,106
 676 1174 676 1174 694 1161 c 0,107,108
 712 1146 712 1146 753 1146 c 2,109,-1
 769 1146 l 2,110,111
 810 1149 810 1149 857 1164 c 1,112,-1
 864 1170 l 1,113,114
 873 1186 873 1186 873 1220 c 0,115,116
 873 1230 873 1230 872.5 1234 c 128,-1,117
 872 1238 872 1238 872 1243 c 1,118,-1
 891 1259 l 1,119,-1
 908 1222 l 2,120,121
 938 1160 938 1160 988 1160 c 0,122,123
 1049 1160 1049 1160 1049 1209 c 0,124,125
 1049 1240 1049 1240 1028 1264 c 1,126,-1
 1057 1308 l 1,127,128
 1091 1277 1091 1277 1091 1216 c 0,90,91
882 1454 m 0,129,130
 882 1380 882 1380 873 1371 c 1,131,-1
 873 1373 l 1,132,133
 872 1378 872 1378 871.5 1384 c 128,-1,134
 871 1390 871 1390 870 1399 c 0,135,136
 865 1459 865 1459 841 1495 c 1,137,-1
 874 1531 l 1,138,139
 882 1509 882 1509 882 1454 c 0,129,130
692 1262 m 1,140,-1
 685 1256 l 1,141,-1
 688 1262 l 2,142,143
 690 1267 690 1267 691 1270 c 128,-1,144
 692 1273 692 1273 693 1275 c 1,145,146
 695 1270 695 1270 700 1270 c 1,147,-1
 692 1262 l 1,140,-1
1448 -4 m 1,148,149
 1449 -3 1449 -3 1449.5 -2 c 128,-1,150
 1450 -1 1450 -1 1451 0 c 1,151,152
 1453 0 1453 0 1453.5 0.5 c 128,-1,153
 1454 1 1454 1 1455 1 c 1,154,-1
 1448 -4 l 1,148,149
873 1371 m 1,155,156
 873 1369 873 1369 871.5 1369.5 c 128,-1,157
 870 1370 870 1370 871 1370 c 128,-1,158
 872 1370 872 1370 873 1371 c 1,155,156
EndSplineSet
Ligature2: "'liga' Standard Ligatures in Arabic lookup 6 subtable" laminitial lammedial hehfinal
EndChar

StartChar: fathatanisolated
Encoding: 65136 65136 73
Width: 408
Flags: W
LayerCount: 2
Fore
SplineSet
408 2054 m 1,0,1
 408 1988 408 1988 373 1968 c 2,2,-1
 70 1796 l 1,3,4
 73 1834 73 1834 84 1855 c 0,5,6
 96 1875 96 1875 136 1897 c 2,7,-1
 408 2054 l 1,0,1
408 1908 m 1,8,9
 408 1842 408 1842 373 1822 c 2,10,-1
 70 1650 l 1,11,12
 73 1688 73 1688 84 1709 c 0,13,14
 96 1729 96 1729 136 1751 c 2,15,-1
 408 1908 l 1,8,9
EndSplineSet
EndChar

StartChar: tatweelwithfathatanabove
Encoding: 65137 65137 74
Width: 1284
Flags: W
LayerCount: 2
Fore
SplineSet
811 1434 m 1,0,1
 811 1368 811 1368 776 1348 c 2,2,-1
 473 1176 l 1,3,4
 476 1214 476 1214 487 1235 c 0,5,6
 499 1255 499 1255 539 1277 c 2,7,-1
 811 1434 l 1,0,1
811 1288 m 1,8,9
 811 1222 811 1222 776 1202 c 2,10,-1
 473 1030 l 1,11,12
 476 1068 476 1068 487 1089 c 0,13,14
 499 1109 499 1109 539 1131 c 2,15,-1
 811 1288 l 1,8,9
1354 129 m 1,16,-1
 0 129 l 1,17,-1
 0 250 l 1,18,-1
 1354 250 l 1,19,-1
 1354 129 l 1,16,-1
EndSplineSet
Ligature2: "'liga' Standard Ligatures in Arabic lookup 6 subtable" tatweel fathatan
EndChar

StartChar: dammatanisolated
Encoding: 65138 65138 75
Width: 463
Flags: W
LayerCount: 2
Fore
SplineSet
463 1582 m 0,0,1
 463 1565 463 1565 462.5 1550 c 128,-1,2
 462 1535 462 1535 461 1523 c 1,3,4
 441 1534 441 1534 418 1548.5 c 128,-1,5
 395 1563 395 1563 369 1582 c 1,6,7
 243 1453 243 1453 129 1437 c 1,8,9
 172 1526 172 1526 172 1566 c 0,10,11
 172 1621 172 1621 123 1621 c 0,12,13
 81 1621 81 1621 74 1545 c 1,14,15
 64 1574 64 1574 64 1597 c 256,16,17
 64 1620 64 1620 70.5 1640 c 128,-1,18
 77 1660 77 1660 88.5 1675 c 128,-1,19
 100 1690 100 1690 115 1698.5 c 128,-1,20
 130 1707 130 1707 148 1707 c 0,21,22
 215 1707 215 1707 215 1607 c 2,23,-1
 209 1515 l 1,24,25
 274 1540 274 1540 333 1605 c 1,26,27
 267 1648 267 1648 267 1699 c 0,28,29
 267 1752 267 1752 307 1798 c 0,30,31
 347 1846 347 1846 389 1846 c 0,32,33
 411 1846 411 1846 434 1819 c 0,34,35
 457 1793 457 1793 457 1766 c 0,36,37
 457 1736 457 1736 446 1708 c 128,-1,38
 424 1652 l 1,39,40
 463 1622 463 1622 463 1582 c 0,0,1
387 1726 m 0,41,42
 387 1779 387 1779 346 1779 c 0,43,44
 320 1779 320 1779 320 1756 c 0,45,46
 320 1730 320 1730 383 1687 c 1,47,48
 387 1696 387 1696 387 1726 c 0,41,42
EndSplineSet
EndChar

StartChar: kasratanisolated
Encoding: 65140 65140 76
Width: 408
Flags: W
LayerCount: 2
Fore
SplineSet
408 -620 m 1,0,1
 408 -686 408 -686 373 -706 c 2,2,-1
 70 -878 l 1,3,4
 73 -840 73 -840 84 -818 c 1,5,6
 97 -800 97 -800 136 -777 c 2,7,-1
 408 -620 l 1,0,1
408 -767 m 1,8,9
 408 -833 408 -833 373 -853 c 2,10,-1
 70 -1025 l 1,11,12
 73 -987 73 -987 84 -965 c 1,13,14
 97 -947 97 -947 136 -924 c 2,15,-1
 408 -767 l 1,8,9
EndSplineSet
EndChar

StartChar: fathaisolated
Encoding: 65142 65142 77
Width: 408
Flags: W
LayerCount: 2
Fore
SplineSet
408 1708 m 1,0,1
 408 1642 408 1642 373 1622 c 2,2,-1
 70 1450 l 1,3,4
 73 1488 73 1488 84 1509 c 0,5,6
 96 1529 96 1529 136 1551 c 2,7,-1
 408 1708 l 1,0,1
EndSplineSet
EndChar

StartChar: fathamedial
Encoding: 65143 65143 78
Width: 1284
Flags: W
LayerCount: 2
Fore
SplineSet
811 1288 m 1,0,1
 811 1222 811 1222 776 1202 c 2,2,-1
 473 1030 l 1,3,4
 476 1068 476 1068 487 1089 c 0,5,6
 499 1109 499 1109 539 1131 c 2,7,-1
 811 1288 l 1,0,1
1354 129 m 1,8,-1
 0 129 l 1,9,-1
 0 250 l 1,10,-1
 1354 250 l 1,11,-1
 1354 129 l 1,8,-1
EndSplineSet
Ligature2: "'liga' Standard Ligatures in Arabic lookup 6 subtable" tatweel fatha
EndChar

StartChar: dammaisolated
Encoding: 65144 65144 79
Width: 414
Flags: W
LayerCount: 2
Fore
SplineSet
414 1641 m 1,0,-1
 406 1542 l 1,1,-1
 326 1594 l 1,2,3
 206 1450 206 1450 129 1450 c 0,4,5
 110 1450 110 1450 70 1462 c 1,6,7
 172 1519 172 1519 283 1618 c 1,8,9
 222 1663 222 1663 222 1708 c 0,10,11
 222 1768 222 1768 267 1833 c 0,12,13
 297 1876 297 1876 338 1876 c 0,14,15
 406 1876 406 1876 406 1788 c 0,16,17
 406 1737 406 1737 375 1671 c 1,18,19
 388 1660 388 1660 414 1641 c 1,0,-1
344 1729 m 0,20,21
 344 1752 344 1752 328 1771 c 128,-1,22
 312 1790 312 1790 291 1790 c 0,23,24
 273 1790 273 1790 273 1770 c 0,25,26
 273 1739 273 1739 338 1695 c 1,27,28
 344 1714 344 1714 344 1729 c 0,20,21
EndSplineSet
EndChar

StartChar: dammamedial
Encoding: 65145 65145 80
Width: 1284
Flags: W
LayerCount: 2
Fore
SplineSet
814 1221 m 1,0,-1
 806 1122 l 1,1,-1
 726 1174 l 1,2,3
 606 1030 606 1030 529 1030 c 0,4,5
 510 1030 510 1030 470 1042 c 1,6,7
 572 1099 572 1099 683 1198 c 1,8,9
 622 1243 622 1243 622 1288 c 0,10,11
 622 1348 622 1348 667 1413 c 0,12,13
 697 1456 697 1456 738 1456 c 0,14,15
 806 1456 806 1456 806 1368 c 0,16,17
 806 1317 806 1317 775 1251 c 1,18,19
 788 1240 788 1240 814 1221 c 1,0,-1
744 1309 m 0,20,21
 744 1332 744 1332 728 1351 c 128,-1,22
 712 1370 712 1370 691 1370 c 0,23,24
 673 1370 673 1370 673 1350 c 0,25,26
 673 1319 673 1319 738 1275 c 1,27,28
 744 1294 744 1294 744 1309 c 0,20,21
1354 129 m 1,29,-1
 0 129 l 1,30,-1
 0 250 l 1,31,-1
 1354 250 l 1,32,-1
 1354 129 l 1,29,-1
EndSplineSet
Ligature2: "'liga' Standard Ligatures in Arabic lookup 6 subtable" tatweel damma
EndChar

StartChar: kasraisolated
Encoding: 65146 65146 81
Width: 408
Flags: W
LayerCount: 2
Fore
SplineSet
408 -620 m 1,0,1
 408 -686 408 -686 373 -706 c 2,2,-1
 70 -878 l 1,3,4
 73 -840 73 -840 84 -818 c 1,5,6
 97 -800 97 -800 136 -777 c 2,7,-1
 408 -620 l 1,0,1
EndSplineSet
EndChar

StartChar: kasramedial
Encoding: 65147 65147 82
Width: 1284
Flags: W
LayerCount: 2
Fore
SplineSet
811 -71 m 1,0,1
 811 -137 811 -137 776 -157 c 2,2,-1
 473 -329 l 1,3,4
 476 -291 476 -291 487 -269 c 1,5,6
 500 -251 500 -251 539 -228 c 2,7,-1
 811 -71 l 1,0,1
1354 129 m 1,8,-1
 0 129 l 1,9,-1
 0 250 l 1,10,-1
 1354 250 l 1,11,-1
 1354 129 l 1,8,-1
EndSplineSet
Ligature2: "'liga' Standard Ligatures in Arabic lookup 6 subtable" tatweel kasra
EndChar

StartChar: shaddaisolated
Encoding: 65148 65148 83
Width: 420
Flags: W
LayerCount: 2
Fore
SplineSet
420 1683 m 0,0,1
 420 1515 420 1515 316 1515 c 0,2,3
 280 1515 280 1515 252 1536 c 1,4,5
 244 1501 244 1501 213 1476 c 0,6,7
 181 1450 181 1450 148 1450 c 0,8,9
 66 1450 66 1450 66 1558 c 0,10,11
 66 1583 66 1583 88 1659 c 1,12,-1
 111 1663 l 1,13,14
 111 1552 111 1552 150 1552 c 0,15,16
 214 1552 214 1552 240 1714 c 1,17,-1
 258 1720 l 1,18,19
 281 1622 281 1622 316 1622 c 0,20,21
 374 1622 374 1622 383 1769 c 1,22,-1
 406 1779 l 1,23,24
 420 1718 420 1718 420 1683 c 0,0,1
EndSplineSet
EndChar

StartChar: shaddamedial
Encoding: 65149 65149 84
Width: 1284
Flags: W
LayerCount: 2
Fore
SplineSet
819 1263 m 0,0,1
 819 1095 819 1095 715 1095 c 0,2,3
 679 1095 679 1095 651 1116 c 1,4,5
 643 1081 643 1081 612 1056 c 0,6,7
 580 1030 580 1030 547 1030 c 0,8,9
 465 1030 465 1030 465 1138 c 0,10,11
 465 1163 465 1163 487 1239 c 1,12,-1
 510 1243 l 1,13,14
 510 1132 510 1132 549 1132 c 0,15,16
 613 1132 613 1132 639 1294 c 1,17,-1
 657 1300 l 1,18,19
 680 1202 680 1202 715 1202 c 0,20,21
 773 1202 773 1202 782 1349 c 1,22,-1
 805 1359 l 1,23,24
 819 1298 819 1298 819 1263 c 0,0,1
1354 129 m 1,25,-1
 0 129 l 1,26,-1
 0 250 l 1,27,-1
 1354 250 l 1,28,-1
 1354 129 l 1,25,-1
EndSplineSet
Ligature2: "'liga' Standard Ligatures in Arabic lookup 6 subtable" tatweel shadda
EndChar

StartChar: sukunisolated
Encoding: 65150 65150 85
Width: 332
Flags: W
LayerCount: 2
Fore
SplineSet
332 1614 m 0,0,1
 332 1549 332 1549 286 1500 c 0,2,3
 239 1450 239 1450 181 1450 c 0,4,5
 74 1450 74 1450 74 1571 c 0,6,7
 74 1655 74 1655 112 1708 c 0,8,9
 149 1762 149 1762 211 1762 c 0,10,11
 258 1762 258 1762 295 1716 c 0,12,13
 332 1673 332 1673 332 1614 c 0,0,1
277 1590 m 0,14,15
 277 1616 277 1616 234 1647 c 0,16,17
 193 1676 193 1676 166 1676 c 0,18,19
 107 1676 107 1676 107 1608 c 0,20,21
 107 1549 107 1549 199 1549 c 0,22,23
 277 1549 277 1549 277 1590 c 0,14,15
EndSplineSet
EndChar

StartChar: sukunmedial
Encoding: 65151 65151 86
Width: 1284
Flags: W
LayerCount: 2
Fore
SplineSet
771 1194 m 0,0,1
 771 1129 771 1129 725 1080 c 0,2,3
 678 1030 678 1030 620 1030 c 0,4,5
 513 1030 513 1030 513 1151 c 0,6,7
 513 1235 513 1235 551 1288 c 0,8,9
 588 1342 588 1342 650 1342 c 0,10,11
 697 1342 697 1342 734 1296 c 0,12,13
 771 1253 771 1253 771 1194 c 0,0,1
716 1170 m 0,14,15
 716 1196 716 1196 673 1227 c 0,16,17
 632 1256 632 1256 605 1256 c 0,18,19
 546 1256 546 1256 546 1188 c 0,20,21
 546 1129 546 1129 638 1129 c 0,22,23
 716 1129 716 1129 716 1170 c 0,14,15
1354 129 m 1,24,-1
 0 129 l 1,25,-1
 0 250 l 1,26,-1
 1354 250 l 1,27,-1
 1354 129 l 1,24,-1
EndSplineSet
Ligature2: "'liga' Standard Ligatures in Arabic lookup 6 subtable" tatweel sukun
EndChar

StartChar: hamzaisolated
Encoding: 65152 65152 87
Width: 721
Flags: W
AnchorPoint: "ArabicBelow" 360 -198 basechar 0
AnchorPoint: "ArabicAbove" 360 603 basechar 0
LayerCount: 2
Fore
SplineSet
216 52 m 1,0,1
 142 66 142 66 127 212 c 1,2,3
 183 108 183 108 308 132 c 1,4,-1
 308 284 l 2,5,6
 308 353 308 353 441 353 c 0,7,8
 570 353 570 353 570 290 c 2,9,-1
 570 258 l 1,10,11
 524 242 524 242 470 168 c 1,12,-1
 470 267 l 2,13,14
 470 287 470 287 443 287 c 0,15,16
 407 287 407 287 407 267 c 2,17,-1
 407 142 l 1,18,-1
 592 142 l 1,19,-1
 592 52 l 1,20,-1
 216 52 l 1,0,1
EndSplineSet
EndChar

StartChar: alefwithmaddaaboveisolated
Encoding: 65153 65153 88
Width: 652
Flags: W
AnchorPoint: "ArabicBelow" 326 -246 basechar 0
AnchorPoint: "ArabicAbove" 326 1753 basechar 0
LayerCount: 2
Fore
SplineSet
692 1501 m 1,0,1
 649 1371 649 1371 570 1371 c 0,2,3
 499 1371 499 1371 415 1393 c 0,4,5
 292 1417 292 1417 253 1417 c 0,6,7
 206 1417 206 1417 148 1362 c 1,8,9
 157 1403 157 1403 186 1442 c 0,10,11
 229 1494 229 1494 294 1494 c 0,12,13
 311 1494 311 1494 341 1488 c 128,-1,14
 371 1482 371 1482 419 1471 c 0,15,16
 458 1459 458 1459 490.5 1453.5 c 128,-1,17
 523 1448 523 1448 552 1448 c 0,18,19
 643 1448 643 1448 692 1503 c 1,20,-1
 692 1501 l 1,0,1
564 270 m 2,21,22
 564 244 564 244 550 210.5 c 128,-1,23
 536 177 536 177 506 135 c 0,24,25
 480 92 480 92 455 62 c 128,-1,26
 430 32 430 32 407 10 c 0,27,28
 405 8 405 8 403.5 7 c 128,-1,29
 402 6 402 6 401 4 c 1,30,-1
 401 15 l 2,31,32
 403 81 403 81 404.5 127 c 128,-1,33
 406 173 406 173 406 201 c 2,34,-1
 406 220 l 2,35,36
 404 299 404 299 399 400.5 c 128,-1,37
 394 502 394 502 384 635 c 0,38,39
 373 791 373 791 366.5 889 c 128,-1,40
 360 987 360 987 357 1042 c 1,41,-1
 518 1239 l 1,42,-1
 519 1241 l 1,43,44
 519 1239 519 1239 518.5 1236.5 c 128,-1,45
 518 1234 518 1234 519 1232 c 1,46,-1
 564 270 l 2,21,22
EndSplineSet
EndChar

StartChar: alefwithmaddaabovefinal
Encoding: 65154 65154 89
Width: 695
Flags: W
AnchorPoint: "ArabicBelow" 347 -249 basechar 0
AnchorPoint: "ArabicAbove" 347 1713 basechar 0
LayerCount: 2
Fore
SplineSet
678 1460 m 1,0,1
 636 1330 636 1330 557 1330 c 0,2,3
 524 1330 524 1330 485 1335.5 c 128,-1,4
 446 1341 446 1341 400 1353 c 0,5,6
 340 1364 340 1364 299.5 1370 c 128,-1,7
 259 1376 259 1376 239 1376 c 0,8,9
 192 1376 192 1376 134 1321 c 1,10,11
 139 1346 139 1346 148.5 1365 c 128,-1,12
 158 1384 158 1384 173 1401 c 0,13,14
 216 1453 216 1453 281 1453 c 0,15,16
 296 1453 296 1453 326.5 1447 c 128,-1,17
 357 1441 357 1441 405 1430 c 0,18,19
 477 1408 477 1408 539 1408 c 0,20,21
 630 1408 630 1408 678 1463 c 1,22,-1
 678 1460 l 1,0,1
560 1 m 2,23,24
 402 1 402 1 386 236 c 2,25,-1
 331 1049 l 1,26,27
 389 1103 389 1103 421.5 1133 c 128,-1,28
 454 1163 454 1163 469.5 1177.5 c 128,-1,29
 485 1192 485 1192 489.5 1195.5 c 128,-1,30
 494 1199 494 1199 496 1200 c 0,31,32
 499 1202 499 1202 497 1198 c 128,-1,33
 495 1194 495 1194 497 1191 c 1,34,-1
 527 399 l 2,35,36
 528 373 528 373 532 343.5 c 128,-1,37
 536 314 536 314 544 279 c 1,38,-1
 546 275 l 2,39,40
 570 237 570 237 663 237 c 2,41,-1
 698 237 l 1,42,-1
 698 1 l 1,43,-1
 560 1 l 2,23,24
EndSplineSet
EndChar

StartChar: alefwithhamzaaboveisolated
Encoding: 65155 65155 90
Width: 499
Flags: W
AnchorPoint: "ArabicBelow" 249 -246 basechar 0
AnchorPoint: "ArabicAbove" 249 1933 basechar 0
LayerCount: 2
Fore
SplineSet
365 1445 m 1,0,1
 379 1451 379 1451 407 1460.5 c 128,-1,2
 435 1470 435 1470 480 1484 c 1,3,4
 469 1444 469 1444 453 1404 c 1,5,6
 319 1375 319 1375 194 1292 c 0,7,8
 152 1265 152 1265 149 1265 c 0,9,10
 129 1265 129 1265 129 1270 c 0,11,12
 129 1271 129 1271 128 1270 c 1,13,14
 141 1296 141 1296 168 1323.5 c 128,-1,15
 195 1351 195 1351 238 1384 c 1,16,-1
 239 1403 l 1,17,18
 156 1489 156 1489 147 1531 c 1,19,20
 177 1614 177 1614 206 1643 c 0,21,22
 243 1683 243 1683 322 1683 c 0,23,24
 348 1683 348 1683 366 1680.5 c 128,-1,25
 384 1678 384 1678 395 1674 c 1,26,-1
 395 1597 l 1,27,28
 343 1617 343 1617 299 1617 c 0,29,30
 245 1617 245 1617 205 1593 c 1,31,-1
 200 1576 l 1,32,33
 208 1557 208 1557 224.5 1538 c 128,-1,34
 241 1519 241 1519 266 1498 c 0,35,36
 314 1459 314 1459 355 1445 c 1,37,-1
 365 1445 l 1,0,1
437 270 m 2,38,39
 437 244 437 244 423 210.5 c 128,-1,40
 409 177 409 177 379 135 c 0,41,42
 352 92 352 92 327.5 62 c 128,-1,43
 303 32 303 32 280 10 c 0,44,45
 278 8 278 8 276.5 7 c 128,-1,46
 275 6 275 6 274 4 c 1,47,-1
 274 15 l 2,48,49
 276 81 276 81 277.5 127 c 128,-1,50
 279 173 279 173 279 201 c 2,51,-1
 279 220 l 2,52,53
 277 299 277 299 272 400.5 c 128,-1,54
 267 502 267 502 257 635 c 0,55,56
 245 791 245 791 238.5 889 c 128,-1,57
 232 987 232 987 230 1042 c 1,58,-1
 391 1239 l 1,59,-1
 392 1241 l 1,60,61
 392 1239 392 1239 391.5 1236.5 c 128,-1,62
 391 1234 391 1234 392 1232 c 1,63,-1
 437 272 l 1,64,-1
 437 270 l 2,38,39
EndSplineSet
EndChar

StartChar: alefwithhamzaabovefinal
Encoding: 65156 65156 91
Width: 588
Flags: W
AnchorPoint: "ArabicBelow" 294 -249 basechar 0
AnchorPoint: "ArabicAbove" 294 1902 basechar 0
LayerCount: 2
Fore
SplineSet
360 1415 m 1,0,1
 374 1421 374 1421 402 1430 c 128,-1,2
 430 1439 430 1439 475 1453 c 1,3,4
 470 1433 470 1433 463 1413.5 c 128,-1,5
 456 1394 456 1394 448 1374 c 1,6,7
 315 1346 315 1346 188 1262 c 0,8,9
 148 1234 148 1234 144 1234 c 0,10,11
 124 1234 124 1234 124 1239 c 0,12,13
 124 1240 124 1240 123 1239 c 1,14,15
 134 1262 134 1262 161 1291 c 128,-1,16
 188 1320 188 1320 233 1354 c 1,17,-1
 234 1373 l 1,18,19
 153 1456 153 1456 142 1500 c 1,20,21
 174 1586 174 1586 201 1612 c 0,22,23
 238 1652 238 1652 317 1652 c 0,24,25
 361 1652 361 1652 390 1644 c 1,26,-1
 390 1566 l 1,27,28
 343 1587 343 1587 294 1587 c 0,29,30
 240 1587 240 1587 200 1562 c 1,31,-1
 195 1545 l 1,32,33
 211 1509 211 1509 261 1468 c 0,34,35
 303 1432 303 1432 350 1415 c 1,36,-1
 360 1415 l 1,0,1
464 1 m 2,37,38
 306 1 306 1 290 236 c 2,39,-1
 235 1049 l 1,40,41
 292 1103 292 1103 325 1133 c 128,-1,42
 358 1163 358 1163 374.5 1178 c 128,-1,43
 391 1193 391 1193 396 1196.5 c 128,-1,44
 401 1200 401 1200 402 1201 c 1,45,46
 399 1198 399 1198 401 1191 c 1,47,-1
 431 399 l 2,48,49
 432 373 432 373 436 343.5 c 128,-1,50
 440 314 440 314 448 279 c 1,51,-1
 450 275 l 2,52,53
 474 237 474 237 567 237 c 2,54,-1
 602 237 l 1,55,-1
 602 1 l 1,56,-1
 464 1 l 2,37,38
EndSplineSet
EndChar

StartChar: wawwithhamzaaboveisolated
Encoding: 65157 65157 92
Width: 1045
Flags: W
AnchorPoint: "ArabicBelow" 522 -823 basechar 0
AnchorPoint: "ArabicAbove" 522 1500 basechar 0
LayerCount: 2
Fore
SplineSet
880 252 m 1,0,1
 868 278 868 278 850 305.5 c 128,-1,2
 832 333 832 333 809 362 c 0,3,4
 748 438 748 438 702 438 c 0,5,6
 640 438 640 438 594 323 c 1,7,-1
 599 307 l 1,8,9
 714 232 714 232 868 232 c 1,10,-1
 880 252 l 1,0,1
685 1012 m 1,11,12
 699 1019 699 1019 727.5 1028 c 128,-1,13
 756 1037 756 1037 801 1051 c 1,14,15
 796 1031 796 1031 789 1011.5 c 128,-1,16
 782 992 782 992 774 972 c 1,17,18
 705 957 705 957 641.5 929.5 c 128,-1,19
 578 902 578 902 514 860 c 0,20,21
 474 832 474 832 470 832 c 0,22,23
 450 832 450 832 450 837 c 0,24,25
 450 838 450 838 449 837 c 1,26,27
 461 863 461 863 488.5 890.5 c 128,-1,28
 516 918 516 918 559 951 c 1,29,-1
 560 971 l 1,30,31
 477 1055 477 1055 467 1098 c 1,32,33
 498 1183 498 1183 527 1210 c 0,34,35
 564 1250 564 1250 643 1250 c 0,36,37
 687 1250 687 1250 716 1242 c 1,38,-1
 716 1164 l 1,39,40
 662 1184 662 1184 620 1184 c 0,41,42
 566 1184 566 1184 526 1160 c 1,43,-1
 520 1143 l 1,44,45
 536 1110 536 1110 587 1065 c 0,46,47
 632 1029 632 1029 676 1012 c 1,48,-1
 685 1012 l 1,11,12
1014 109 m 2,49,50
 1014 -6 1014 -6 980 -118.5 c 128,-1,51
 946 -231 946 -231 877 -340 c 0,52,53
 731 -573 731 -573 536 -573 c 0,54,55
 426 -573 426 -573 299 -479 c 0,56,57
 245 -437 245 -437 200.5 -390.5 c 128,-1,58
 156 -344 156 -344 114 -287 c 1,59,-1
 113 -287 l 1,60,61
 108 -279 108 -279 104.5 -273 c 128,-1,62
 101 -267 101 -267 100 -263 c 1,63,64
 107 -263 107 -263 130 -277 c 0,65,66
 250 -352 250 -352 408 -352 c 0,67,68
 565 -352 565 -352 699 -263 c 0,69,70
 829 -175 829 -175 891 -29 c 1,71,-1
 880 -10 l 1,72,73
 491 16 491 16 491 216 c 0,74,75
 491 327 491 327 568 508 c 0,76,77
 655 699 655 699 753 699 c 0,78,79
 815 699 815 699 904 574 c 0,80,81
 1014 425 1014 425 1014 245 c 2,82,-1
 1014 109 l 2,49,50
EndSplineSet
EndChar

StartChar: wawwithhamzaabovefinal
Encoding: 65158 65158 93
Width: 1005
Flags: W
AnchorPoint: "ArabicBelow" 502 -823 basechar 0
AnchorPoint: "ArabicAbove" 502 1500 basechar 0
LayerCount: 2
Fore
SplineSet
880 252 m 1,0,1
 868 278 868 278 850 305.5 c 128,-1,2
 832 333 832 333 809 362 c 0,3,4
 748 438 748 438 702 438 c 0,5,6
 640 438 640 438 594 323 c 1,7,-1
 599 307 l 1,8,9
 714 232 714 232 868 232 c 1,10,-1
 880 252 l 1,0,1
685 1012 m 1,11,12
 699 1019 699 1019 727.5 1028 c 128,-1,13
 756 1037 756 1037 801 1051 c 1,14,15
 796 1031 796 1031 789 1011.5 c 128,-1,16
 782 992 782 992 774 972 c 1,17,18
 705 957 705 957 641.5 929.5 c 128,-1,19
 578 902 578 902 514 860 c 0,20,21
 474 832 474 832 470 832 c 0,22,23
 450 832 450 832 450 837 c 0,24,25
 450 838 450 838 449 837 c 1,26,27
 461 863 461 863 488.5 890.5 c 128,-1,28
 516 918 516 918 559 951 c 1,29,-1
 560 971 l 1,30,31
 477 1055 477 1055 467 1098 c 1,32,33
 498 1183 498 1183 527 1210 c 0,34,35
 564 1250 564 1250 643 1250 c 0,36,37
 687 1250 687 1250 716 1242 c 1,38,-1
 716 1164 l 1,39,40
 662 1184 662 1184 620 1184 c 0,41,42
 566 1184 566 1184 526 1160 c 1,43,-1
 520 1143 l 1,44,45
 536 1110 536 1110 587 1065 c 0,46,47
 632 1029 632 1029 676 1012 c 1,48,-1
 685 1012 l 1,11,12
1014 109 m 2,49,50
 1014 -6 1014 -6 980 -118.5 c 128,-1,51
 946 -231 946 -231 877 -340 c 0,52,53
 731 -573 731 -573 536 -573 c 0,54,55
 426 -573 426 -573 299 -479 c 0,56,57
 245 -437 245 -437 200.5 -390.5 c 128,-1,58
 156 -344 156 -344 114 -287 c 1,59,-1
 113 -287 l 1,60,61
 108 -279 108 -279 104.5 -273 c 128,-1,62
 101 -267 101 -267 100 -263 c 1,63,64
 107 -263 107 -263 130 -277 c 0,65,66
 250 -352 250 -352 408 -352 c 0,67,68
 565 -352 565 -352 699 -263 c 0,69,70
 829 -175 829 -175 891 -29 c 1,71,-1
 880 -10 l 1,72,73
 491 16 491 16 491 216 c 0,74,75
 491 327 491 327 568 508 c 0,76,77
 655 699 655 699 753 699 c 0,78,79
 815 699 815 699 904 574 c 0,80,81
 1014 425 1014 425 1014 245 c 2,82,-1
 1014 109 l 2,49,50
EndSplineSet
EndChar

StartChar: alefwithhamzabelowisolated
Encoding: 65159 65159 94
Width: 484
Flags: W
AnchorPoint: "ArabicBelow" 242 -798 basechar 0
AnchorPoint: "ArabicAbove" 242 1485 basechar 0
LayerCount: 2
Fore
SplineSet
390 -368 m 1,0,1
 404 -362 404 -362 432 -352 c 128,-1,2
 460 -342 460 -342 505 -328 c 1,3,4
 500 -347 500 -347 493.5 -366.5 c 128,-1,5
 487 -386 487 -386 479 -408 c 1,6,7
 410 -423 410 -423 346.5 -450.5 c 128,-1,8
 283 -478 283 -478 219 -520 c 0,9,10
 179 -548 179 -548 174 -548 c 0,11,12
 155 -548 155 -548 155 -543 c 0,13,14
 155 -541 155 -541 154 -542 c 1,15,16
 177 -495 177 -495 264 -429 c 1,17,-1
 265 -409 l 1,18,19
 181 -324 181 -324 172 -282 c 1,20,21
 202 -199 202 -199 231 -170 c 0,22,23
 271 -130 271 -130 347 -130 c 0,24,25
 397 -130 397 -130 421 -139 c 1,26,-1
 421 -216 l 1,27,28
 367 -196 367 -196 325 -196 c 0,29,30
 272 -196 272 -196 230 -220 c 1,31,-1
 225 -237 l 1,32,33
 233 -256 233 -256 250 -275 c 128,-1,34
 267 -294 267 -294 291 -315 c 0,35,36
 334 -351 334 -351 381 -368 c 1,37,-1
 390 -368 l 1,0,1
422 270 m 2,38,39
 422 217 422 217 364 135 c 0,40,41
 337 92 337 92 312.5 62 c 128,-1,42
 288 32 288 32 265 10 c 2,43,-1
 262 7 l 1,44,-1
 262 118 l 2,45,46
 262 132 262 132 262.5 146 c 128,-1,47
 263 160 263 160 263 171 c 2,48,-1
 263 203 l 1,49,-1
 263 213 l 1,50,-1
 263 226 l 2,51,52
 263 232 263 232 263 240 c 256,53,54
 263 248 263 248 262 258 c 0,55,56
 262 300 262 300 256 401 c 0,57,58
 251 501 251 501 241 635 c 0,59,60
 230 791 230 791 223.5 889 c 128,-1,61
 217 987 217 987 215 1042 c 1,62,-1
 377 1235 l 1,63,-1
 377 1232 l 1,64,-1
 422 272 l 1,65,-1
 422 270 l 2,38,39
EndSplineSet
EndChar

StartChar: alefwithhamzabelowfinal
Encoding: 65160 65160 95
Width: 598
Flags: W
AnchorPoint: "ArabicBelow" 299 -798 basechar 0
AnchorPoint: "ArabicAbove" 299 1447 basechar 0
LayerCount: 2
Fore
SplineSet
461 -368 m 1,0,1
 475 -362 475 -362 503 -352 c 128,-1,2
 531 -342 531 -342 576 -328 c 1,3,4
 571 -347 571 -347 564.5 -366.5 c 128,-1,5
 558 -386 558 -386 550 -408 c 1,6,7
 481 -423 481 -423 417.5 -450.5 c 128,-1,8
 354 -478 354 -478 290 -520 c 0,9,10
 250 -548 250 -548 245 -548 c 0,11,12
 226 -548 226 -548 226 -543 c 0,13,14
 226 -541 226 -541 225 -542 c 1,15,16
 248 -495 248 -495 335 -429 c 1,17,-1
 336 -409 l 1,18,19
 253 -325 253 -325 243 -282 c 1,20,21
 275 -197 275 -197 302 -170 c 0,22,23
 342 -130 342 -130 419 -130 c 0,24,25
 469 -130 469 -130 492 -139 c 1,26,-1
 492 -216 l 1,27,28
 438 -196 438 -196 396 -196 c 0,29,30
 343 -196 343 -196 301 -220 c 1,31,-1
 296 -237 l 1,32,33
 312 -270 312 -270 363 -315 c 0,34,35
 408 -351 408 -351 452 -368 c 1,36,-1
 461 -368 l 1,0,1
464 1 m 2,37,38
 306 1 306 1 290 236 c 2,39,-1
 235 1048 l 1,40,-1
 401 1197 l 1,41,42
 400 1195 400 1195 400.5 1194 c 128,-1,43
 401 1193 401 1193 401 1191 c 2,44,-1
 431 399 l 2,45,46
 432 373 432 373 436 343.5 c 128,-1,47
 440 314 440 314 448 279 c 1,48,-1
 450 275 l 2,49,50
 474 237 474 237 567 237 c 2,51,-1
 602 237 l 1,52,-1
 602 1 l 1,53,-1
 464 1 l 2,37,38
EndSplineSet
EndChar

StartChar: yehwithhamzaaboveisolated
Encoding: 65161 65161 96
Width: 1412
Flags: W
AnchorPoint: "ArabicBelow" 706 -675 basechar 0
AnchorPoint: "ArabicAbove" 706 1305 basechar 0
LayerCount: 2
Fore
SplineSet
459 818 m 1,0,1
 473 824 473 824 501 833.5 c 128,-1,2
 529 843 529 843 574 857 c 1,3,4
 569 837 569 837 562.5 817 c 128,-1,5
 556 797 556 797 548 777 c 1,6,7
 479 763 479 763 415.5 735 c 128,-1,8
 352 707 352 707 288 665 c 0,9,10
 247 638 247 638 243 638 c 0,11,12
 223 638 223 638 223 642 c 1,13,14
 234 665 234 665 261 694 c 128,-1,15
 288 723 288 723 333 757 c 1,16,-1
 334 776 l 1,17,18
 250 862 250 862 241 903 c 1,19,20
 273 988 273 988 300 1015 c 0,21,22
 339 1055 339 1055 417 1055 c 0,23,24
 461 1055 461 1055 490 1047 c 1,25,-1
 490 970 l 1,26,27
 436 990 436 990 394 990 c 0,28,29
 341 990 341 990 299 966 c 1,30,-1
 294 948 l 1,31,32
 314 909 314 909 361 871 c 0,33,34
 403 835 403 835 450 818 c 1,35,-1
 459 818 l 1,0,1
1383 692 m 0,36,37
 1383 678 1383 678 1366 615 c 0,38,39
 1364 607 1364 607 1361.5 599.5 c 128,-1,40
 1359 592 1359 592 1357 584 c 0,41,42
 1352 564 1352 564 1346 547.5 c 128,-1,43
 1340 531 1340 531 1335 520 c 1,44,45
 1330 525 1330 525 1323 530 c 128,-1,46
 1316 535 1316 535 1308 540 c 0,47,48
 1244 577 1244 577 1212 577 c 0,49,50
 1099 577 1099 577 987 483 c 0,51,52
 909 421 909 421 861 340 c 1,53,-1
 864 323 l 1,54,55
 905 291 905 291 1124 230 c 0,56,57
 1314 180 1314 180 1315 167 c 0,58,59
 1315 141 1315 141 1312 111.5 c 128,-1,60
 1309 82 1309 82 1302 39 c 0,61,62
 1284 -64 1284 -64 1273 -75 c 0,63,64
 1213 -136 1213 -136 1144.5 -187.5 c 128,-1,65
 1076 -239 1076 -239 998 -287 c 0,66,67
 767 -425 767 -425 565 -425 c 0,68,69
 376 -425 376 -425 277 -301 c 0,70,71
 184 -189 184 -189 184 7 c 0,72,73
 184 156 184 156 239 297 c 1,74,-1
 239 298 l 1,75,76
 282 421 282 421 341 498 c 0,77,78
 353 515 353 515 362.5 525.5 c 128,-1,79
 372 536 372 536 377 541 c 1,80,81
 375 532 375 532 370 518.5 c 128,-1,82
 365 505 365 505 354 488 c 1,83,-1
 353 488 l 1,84,85
 249 288 249 288 249 135 c 0,86,87
 249 -22 249 -22 363 -110 c 0,88,89
 466 -191 466 -191 624 -191 c 0,90,91
 910 -191 910 -191 1156 -20 c 1,92,-1
 1155 3 l 1,93,94
 1153 4 1153 4 1112.5 17.5 c 128,-1,95
 1072 31 1072 31 991 57 c 0,96,97
 974 62 974 62 956 68 c 128,-1,98
 938 74 938 74 918 81 c 0,99,100
 743 139 743 139 743 181 c 0,101,102
 743 347 743 347 928 553 c 0,103,104
 1115 764 1115 764 1277 764 c 0,105,106
 1383 764 1383 764 1383 692 c 0,36,37
EndSplineSet
EndChar

StartChar: yehwithhamzaabovefinal
Encoding: 65162 65162 97
Width: 1320
Flags: W
AnchorPoint: "ArabicBelow" 660 -837 basechar 0
AnchorPoint: "ArabicAbove" 660 969 basechar 0
LayerCount: 2
Fore
SplineSet
439 482 m 1,0,1
 453 488 453 488 481 497 c 128,-1,2
 509 506 509 506 554 520 c 1,3,4
 549 500 549 500 542.5 480.5 c 128,-1,5
 536 461 536 461 528 441 c 1,6,7
 394 413 394 413 268 329 c 0,8,9
 225 301 225 301 223 301 c 0,10,11
 204 301 204 301 204 307 c 0,12,13
 204 308 204 308 203 307 c 1,14,15
 215 332 215 332 242.5 360 c 128,-1,16
 270 388 270 388 313 421 c 1,17,-1
 314 440 l 1,18,19
 230 526 230 526 221 567 c 1,20,21
 251 650 251 650 280 679 c 0,22,23
 319 719 319 719 396 719 c 0,24,25
 422 719 422 719 440 717 c 128,-1,26
 458 715 458 715 470 711 c 1,27,-1
 470 633 l 1,28,29
 422 654 422 654 374 654 c 0,30,31
 319 654 319 654 279 629 c 1,32,-1
 274 612 l 1,33,34
 291 577 291 577 340 535 c 0,35,36
 391 497 391 497 430 482 c 1,37,-1
 439 482 l 1,0,1
1239 0 m 1,38,-1
 1029 0 l 2,39,40
 1016 0 1016 0 1005.5 0.5 c 128,-1,41
 995 1 995 1 985 1 c 0,42,43
 977 1 977 1 968.5 1.5 c 128,-1,44
 960 2 960 2 952 2 c 0,45,46
 932 2 932 2 915.5 0 c 128,-1,47
 899 -2 899 -2 885 -9 c 1,48,-1
 886 -34 l 1,49,50
 1208 -157 1208 -157 1208 -177 c 0,51,52
 1208 -188 1208 -188 1204 -216 c 128,-1,53
 1200 -244 1200 -244 1194.5 -274.5 c 128,-1,54
 1189 -305 1189 -305 1182 -331.5 c 128,-1,55
 1175 -358 1175 -358 1169 -367 c 0,56,57
 1097 -469 1097 -469 885 -534 c 0,58,59
 699 -587 699 -587 546 -587 c 0,60,61
 383 -587 383 -587 285 -501 c 0,62,63
 185 -410 185 -410 185 -250 c 0,64,65
 185 -22 185 -22 355 178 c 0,66,67
 367 190 367 190 370 191 c 1,68,69
 368 186 368 186 364 180 c 1,70,-1
 363 179 l 1,71,72
 247 0 247 0 247 -123 c 0,73,74
 247 -256 247 -256 396 -319 c 0,75,76
 510 -365 510 -365 648 -365 c 0,77,78
 907 -365 907 -365 1021 -310 c 1,79,-1
 1021 -285 l 1,80,81
 995 -275 995 -275 948.5 -256 c 128,-1,82
 902 -237 902 -237 827 -208 c 0,83,84
 715 -162 715 -162 715 -129 c 0,85,86
 715 -100 715 -100 760 11 c 0,87,88
 785 74 785 74 807 111.5 c 128,-1,89
 829 149 829 149 847 165 c 1,90,-1
 848 165 l 1,91,92
 871 185 871 185 911.5 198.5 c 128,-1,93
 952 212 952 212 1012 222 c 0,94,95
 1108 237 1108 237 1198 237 c 2,96,-1
 1324 237 l 1,97,-1
 1324 1 l 1,98,-1
 1239 0 l 1,38,-1
EndSplineSet
EndChar

StartChar: yehwithhamzaaboveinitial
Encoding: 65163 65163 98
Width: 761
Flags: W
AnchorPoint: "ArabicBelow" 380 -250 basechar 0
AnchorPoint: "ArabicAbove" 380 1489 basechar 0
LayerCount: 2
Fore
SplineSet
430 1002 m 1,0,1
 444 1008 444 1008 472 1017.5 c 128,-1,2
 500 1027 500 1027 545 1041 c 1,3,4
 536 1001 536 1001 518 961 c 1,5,6
 384 932 384 932 259 849 c 0,7,8
 217 822 217 822 214 822 c 0,9,10
 195 822 195 822 195 827 c 0,11,12
 195 828 195 828 194 827 c 1,13,14
 206 853 206 853 232.5 880.5 c 128,-1,15
 259 908 259 908 304 941 c 1,16,-1
 305 960 l 1,17,18
 221 1046 221 1046 212 1088 c 1,19,20
 241 1168 241 1168 271 1200 c 0,21,22
 308 1239 308 1239 387 1239 c 0,23,24
 413 1239 413 1239 431 1237 c 128,-1,25
 449 1235 449 1235 460 1231 c 1,26,-1
 460 1154 l 1,27,28
 408 1174 408 1174 365 1174 c 0,29,30
 310 1174 310 1174 270 1150 c 1,31,-1
 265 1133 l 1,32,33
 273 1114 273 1114 289.5 1095 c 128,-1,34
 306 1076 306 1076 331 1055 c 0,35,36
 354 1036 354 1036 376 1023 c 128,-1,37
 398 1010 398 1010 421 1002 c 1,38,-1
 430 1002 l 1,0,1
721 104 m 2,39,40
 721 64 721 64 720 38 c 128,-1,41
 719 12 719 12 719 10 c 1,42,43
 715 2 715 2 703.5 1 c 128,-1,44
 692 0 692 0 670 0 c 2,45,-1
 -47 0 l 1,46,-1
 -47 233 l 1,47,-1
 542 233 l 1,48,-1
 554 251 l 1,49,50
 534 314 534 314 503 374 c 128,-1,51
 472 434 472 434 429 488 c 1,52,-1
 554 690 l 1,53,-1
 554 691 l 1,54,55
 556 695 556 695 558 697 c 1,56,57
 558 696 558 696 562 692 c 1,58,59
 721 473 721 473 721 164 c 2,60,-1
 721 104 l 2,39,40
EndSplineSet
EndChar

StartChar: yehwithhamzaabovemedial
Encoding: 65164 65164 99
Width: 692
Flags: W
AnchorPoint: "ArabicBelow" 346 -249 basechar 0
AnchorPoint: "ArabicAbove" 346 1489 basechar 0
LayerCount: 2
Fore
SplineSet
426 1002 m 1,0,1
 440 1008 440 1008 468 1017.5 c 128,-1,2
 496 1027 496 1027 541 1041 c 1,3,4
 532 1001 532 1001 514 961 c 1,5,6
 380 932 380 932 255 849 c 0,7,8
 213 822 213 822 210 822 c 0,9,10
 190 822 190 822 190 827 c 0,11,12
 190 828 190 828 189 827 c 1,13,14
 202 853 202 853 229 880.5 c 128,-1,15
 256 908 256 908 299 941 c 1,16,-1
 300 960 l 1,17,18
 217 1046 217 1046 208 1088 c 1,19,20
 238 1171 238 1171 267 1200 c 0,21,22
 304 1239 304 1239 383 1239 c 0,23,24
 409 1239 409 1239 427 1237 c 128,-1,25
 445 1235 445 1235 456 1231 c 1,26,-1
 456 1154 l 1,27,28
 404 1174 404 1174 361 1174 c 0,29,30
 306 1174 306 1174 266 1150 c 1,31,-1
 261 1133 l 1,32,33
 269 1114 269 1114 285.5 1095 c 128,-1,34
 302 1076 302 1076 327 1055 c 0,35,36
 378 1017 378 1017 417 1002 c 1,37,-1
 426 1002 l 1,0,1
700 105 m 2,38,39
 700 65 700 65 699 39 c 128,-1,40
 698 13 698 13 698 11 c 1,41,42
 694 3 694 3 682 2 c 128,-1,43
 670 1 670 1 649 1 c 2,44,-1
 -58 1 l 1,45,-1
 -58 238 l 1,46,-1
 520 238 l 1,47,-1
 533 256 l 1,48,49
 513 316 513 316 481.5 375.5 c 128,-1,50
 450 435 450 435 407 489 c 1,51,-1
 533 691 l 1,52,-1
 533 692 l 1,53,54
 535 696 535 696 537 698 c 1,55,56
 537 697 537 697 541 693 c 1,57,58
 700 474 700 474 700 165 c 2,59,-1
 700 105 l 2,38,39
EndSplineSet
EndChar

StartChar: alefisolated
Encoding: 65165 65165 100
Width: 420
Flags: W
AnchorPoint: "ArabicBelow" 210 -254 basechar 0
AnchorPoint: "ArabicAbove" 210 1491 basechar 0
LayerCount: 2
Fore
SplineSet
228 2 m 2,0,1
 228 -4 228 -4 223.5 -4 c 128,-1,2
 219 -4 219 -4 221 -2 c 128,-1,3
 223 0 223 0 228 4 c 1,4,-1
 228 2 l 2,0,1
391 270 m 2,5,6
 391 244 391 244 377 210.5 c 128,-1,7
 363 177 363 177 333 135 c 0,8,9
 306 92 306 92 281.5 62 c 128,-1,10
 257 32 257 32 234 10 c 0,11,12
 232 8 232 8 230.5 7 c 128,-1,13
 229 6 229 6 228 4 c 1,14,-1
 228 15 l 2,15,16
 230 81 230 81 231.5 127 c 128,-1,17
 233 173 233 173 233 201 c 2,18,-1
 233 220 l 2,19,20
 231 299 231 299 226 400.5 c 128,-1,21
 221 502 221 502 211 635 c 0,22,23
 200 791 200 791 193 889 c 128,-1,24
 186 987 186 987 184 1042 c 1,25,-1
 345 1239 l 1,26,-1
 346 1241 l 1,27,28
 346 1239 346 1239 345.5 1236.5 c 128,-1,29
 345 1234 345 1234 346 1232 c 1,30,-1
 391 272 l 1,31,-1
 391 270 l 2,5,6
EndSplineSet
EndChar

StartChar: aleffinal
Encoding: 65166 65166 101
Width: 547
Flags: W
AnchorPoint: "ArabicBelow" 273 -249 basechar 0
AnchorPoint: "ArabicAbove" 273 1450 basechar 0
LayerCount: 2
Fore
SplineSet
414 1 m 2,0,1
 257 1 257 1 239 236 c 2,2,-1
 184 1049 l 1,3,-1
 340 1195 l 1,4,5
 338 1193 338 1193 341.5 1195.5 c 128,-1,6
 345 1198 345 1198 349 1200 c 1,7,-1
 349 1197 l 2,8,9
 349 1192 349 1192 350 1191 c 1,10,-1
 380 399 l 2,11,12
 381 373 381 373 385 343.5 c 128,-1,13
 389 314 389 314 397 279 c 1,14,-1
 399 275 l 2,15,16
 412 256 412 256 440 246.5 c 128,-1,17
 468 237 468 237 516 237 c 2,18,-1
 551 237 l 1,19,-1
 551 1 l 1,20,-1
 414 1 l 2,0,1
EndSplineSet
EndChar

StartChar: behisolated
Encoding: 65167 65167 102
Width: 1489
Flags: W
AnchorPoint: "ArabicBelow" 744 -864 basechar 0
AnchorPoint: "ArabicAbove" 744 944 basechar 0
LayerCount: 2
Fore
SplineSet
957 -614 m 1,0,-1
 737 -527 l 1,1,-1
 812 -355 l 1,2,-1
 1034 -439 l 1,3,-1
 957 -614 l 1,0,-1
1460 326 m 0,4,5
 1460 229 1460 229 1456.5 165 c 128,-1,6
 1453 101 1453 101 1446 65 c 0,7,8
 1443 51 1443 51 1180 18 c 0,9,10
 1071 5 1071 5 982.5 0.5 c 128,-1,11
 894 -4 894 -4 825 -4 c 0,12,13
 774 -4 774 -4 735 -3 c 128,-1,14
 696 -2 696 -2 667 0 c 0,15,16
 650 1 650 1 635.5 1.5 c 128,-1,17
 621 2 621 2 611 2 c 0,18,19
 430 2 430 2 318 77 c 0,20,21
 185 162 185 162 185 331 c 0,22,23
 185 450 185 450 287 606 c 0,24,25
 306 636 306 636 317 648 c 1,26,27
 316 639 316 639 314 629 c 128,-1,28
 312 619 312 619 311 611 c 0,29,30
 310 606 310 606 309.5 604 c 128,-1,31
 309 602 309 602 309 604 c 1,32,33
 295 559 295 559 295 501 c 0,34,35
 295 433 295 433 316.5 382.5 c 128,-1,36
 338 332 338 332 384.5 298 c 128,-1,37
 431 264 431 264 504.5 247 c 128,-1,38
 578 230 578 230 683 230 c 2,39,-1
 739 230 l 1,40,-1
 768 230 l 1,41,-1
 783 230 l 2,42,43
 793 230 793 230 798 229 c 1,44,45
 833 228 833 228 869 227.5 c 128,-1,46
 905 227 905 227 943 227 c 0,47,48
 1031 227 1031 227 1123 232 c 128,-1,49
 1215 237 1215 237 1315 253 c 1,50,-1
 1326 269 l 1,51,52
 1311 324 1311 324 1276 381.5 c 128,-1,53
 1241 439 1241 439 1174 508 c 1,54,-1
 1313 693 l 1,55,-1
 1314 694 l 1,56,57
 1314 695 1314 695 1315.5 694 c 128,-1,58
 1317 693 1317 693 1319 691 c 0,59,60
 1460 544 1460 544 1460 326 c 0,4,5
EndSplineSet
EndChar

StartChar: behfinal
Encoding: 65168 65168 103
Width: 1297
Flags: W
AnchorPoint: "ArabicBelow" 648 -813 basechar 0
AnchorPoint: "ArabicAbove" 648 951 basechar 0
LayerCount: 2
Fore
SplineSet
926 -563 m 1,0,-1
 706 -476 l 1,1,-1
 780 -305 l 1,2,-1
 1002 -388 l 1,3,-1
 926 -563 l 1,0,-1
1306 1 m 1,4,-1
 437 1 l 1,5,-1
 315 8 l 1,6,-1
 314 8 l 2,7,8
 237 8 237 8 125 81 c 1,9,10
 31 169 31 169 31 337 c 0,11,12
 31 457 31 457 132 612 c 0,13,14
 143 627 143 627 150 637.5 c 128,-1,15
 157 648 157 648 162 654 c 1,16,17
 161 645 161 645 159 635 c 128,-1,18
 157 625 157 625 156 617 c 0,19,20
 155 612 155 612 154.5 610 c 128,-1,21
 154 608 154 608 154 610 c 1,22,23
 141 574 141 574 141 507 c 0,24,25
 141 444 141 444 160.5 394 c 128,-1,26
 180 344 180 344 223 309.5 c 128,-1,27
 266 275 266 275 333.5 257 c 128,-1,28
 401 239 401 239 497 239 c 2,29,-1
 1138 239 l 1,30,-1
 1150 259 l 1,31,-1
 1017 512 l 1,32,-1
 1158 699 l 1,33,-1
 1159 701 l 1,34,-1
 1162 698 l 1,35,-1
 1306 250 l 1,36,-1
 1306 1 l 1,4,-1
EndSplineSet
EndChar

StartChar: behinitial
Encoding: 65169 65169 104
Width: 729
Flags: W
AnchorPoint: "ArabicBelow" 364 -848 basechar 0
AnchorPoint: "ArabicAbove" 364 948 basechar 0
LayerCount: 2
Fore
SplineSet
347 -598 m 1,0,-1
 127 -510 l 1,1,-1
 202 -339 l 1,2,-1
 424 -423 l 1,3,-1
 347 -598 l 1,0,-1
674 105 m 2,4,5
 674 65 674 65 673 39 c 128,-1,6
 672 13 672 13 672 11 c 1,7,8
 668 3 668 3 656.5 2 c 128,-1,9
 645 1 645 1 623 1 c 2,10,-1
 39 1 l 1,11,12
 38 2 38 2 30 2 c 2,13,-1
 20 2 l 1,14,-1
 -84 2 l 1,15,-1
 -84 234 l 1,16,-1
 495 234 l 1,17,-1
 507 252 l 1,18,19
 487 315 487 315 456 375 c 128,-1,20
 425 435 425 435 382 489 c 1,21,-1
 507 691 l 2,22,23
 508 693 508 693 509 694.5 c 128,-1,24
 510 696 510 696 511 698 c 1,25,26
 511 697 511 697 515 693 c 1,27,28
 674 474 674 474 674 165 c 2,29,-1
 674 105 l 2,4,5
EndSplineSet
EndChar

StartChar: behmedial
Encoding: 65170 65170 105
Width: 689
Flags: W
AnchorPoint: "ArabicBelow" 344 -848 basechar 0
AnchorPoint: "ArabicAbove" 344 948 basechar 0
LayerCount: 2
Fore
SplineSet
373 -598 m 1,0,-1
 154 -510 l 1,1,-1
 237 -339 l 1,2,-1
 449 -423 l 1,3,-1
 373 -598 l 1,0,-1
700 105 m 2,4,5
 700 65 700 65 699 39 c 128,-1,6
 698 13 698 13 698 11 c 1,7,8
 694 3 694 3 682 2 c 128,-1,9
 670 1 670 1 649 1 c 2,10,-1
 -58 1 l 1,11,-1
 -58 238 l 1,12,-1
 520 238 l 1,13,-1
 533 256 l 1,14,15
 513 316 513 316 481.5 375.5 c 128,-1,16
 450 435 450 435 407 489 c 1,17,-1
 533 691 l 1,18,19
 534 695 534 695 537 698 c 1,20,21
 537 697 537 697 541 693 c 1,22,23
 700 474 700 474 700 165 c 2,24,-1
 700 105 l 2,4,5
EndSplineSet
EndChar

StartChar: tehmarbutaisolated
Encoding: 65171 65171 106
Width: 923
Flags: W
AnchorPoint: "ArabicBelow" 461 -254 basechar 0
AnchorPoint: "ArabicAbove" 461 1446 basechar 0
LayerCount: 2
Fore
SplineSet
616 936 m 1,0,-1
 484 1053 l 1,1,-1
 464 1051 l 1,2,-1
 368 936 l 1,3,-1
 226 1061 l 1,4,-1
 336 1196 l 1,5,-1
 474 1080 l 1,6,-1
 492 1082 l 1,7,-1
 585 1196 l 1,8,-1
 731 1071 l 1,9,-1
 616 936 l 1,0,-1
729 319 m 1,10,11
 706 331 706 331 660 368 c 128,-1,12
 614 405 614 405 536 471 c 0,13,14
 513 490 513 490 488.5 510.5 c 128,-1,15
 464 531 464 531 435 555 c 1,16,-1
 416 552 l 1,17,18
 297 382 297 382 297 315 c 0,19,20
 297 265 297 265 355 234 c 0,21,22
 398 214 398 214 451 214 c 0,23,24
 514 214 514 214 601 235 c 0,25,26
 653 248 653 248 682.5 262.5 c 128,-1,27
 712 277 712 277 732 296 c 1,28,-1
 729 319 l 1,10,11
893 434 m 0,29,30
 893 412 893 412 883.5 379 c 128,-1,31
 874 346 874 346 855 298 c 0,32,33
 822 221 822 221 766 164 c 128,-1,34
 710 107 710 107 642.5 69.5 c 128,-1,35
 575 32 575 32 501 14 c 128,-1,36
 427 -4 427 -4 357 -4 c 0,37,38
 282 -4 282 -4 233 44 c 0,39,40
 184 90 184 90 184 166 c 0,41,42
 184 313 184 313 317 494 c 1,43,44
 313 490 313 490 320 499.5 c 128,-1,45
 327 509 327 509 343 529.5 c 128,-1,46
 359 550 359 550 383.5 581 c 128,-1,47
 408 612 408 612 440 653 c 0,48,49
 462 681 462 681 483.5 708.5 c 128,-1,50
 505 736 505 736 535 775 c 1,51,52
 591 710 591 710 726 615 c 1,53,-1
 727 615 l 1,54,55
 808 562 808 562 845 522 c 0,56,57
 893 475 893 475 893 434 c 0,29,30
EndSplineSet
EndChar

StartChar: tehmarbutafinal
Encoding: 65172 65172 107
Width: 911
Flags: W
AnchorPoint: "ArabicBelow" 455 -249 basechar 0
AnchorPoint: "ArabicAbove" 455 1424 basechar 0
LayerCount: 2
Fore
SplineSet
633 343 m 1,0,1
 632 401 632 401 621 599 c 1,2,-1
 604 610 l 1,3,4
 393 545 393 545 326 444 c 1,5,-1
 328 428 l 1,6,7
 423 330 423 330 620 330 c 1,8,-1
 633 343 l 1,0,1
587 915 m 1,9,-1
 454 1032 l 1,10,-1
 435 1030 l 1,11,-1
 338 915 l 1,12,-1
 197 1040 l 1,13,-1
 307 1174 l 1,14,-1
 444 1058 l 1,15,-1
 462 1060 l 1,16,-1
 555 1174 l 1,17,-1
 702 1050 l 1,18,-1
 587 915 l 1,9,-1
804 1 m 2,19,20
 728 1 728 1 692 78 c 0,21,22
 664 128 664 128 640 276 c 1,23,-1
 614 279 l 1,24,25
 544 114 544 114 523 110 c 1,26,27
 389 110 389 110 297 156 c 1,28,-1
 296 156 l 1,29,30
 184 205 184 205 184 277 c 0,31,32
 184 294 184 294 198.5 334 c 128,-1,33
 213 374 213 374 240 438 c 0,34,35
 270 501 270 501 305 538.5 c 128,-1,36
 340 576 340 576 363 593 c 2,37,-1
 372 599 l 2,38,39
 382 606 382 606 400.5 617 c 128,-1,40
 419 628 419 628 456 645 c 2,41,-1
 597 702 l 1,42,-1
 605 715 l 1,43,-1
 599 808 l 1,44,45
 635 846 635 846 709 912 c 1,46,47
 711 903 711 903 717.5 781.5 c 128,-1,48
 724 660 724 660 735 422 c 0,49,50
 740 302 740 302 761 269 c 0,51,52
 781 240 781 240 838 240 c 2,53,-1
 915 240 l 1,54,-1
 915 1 l 1,55,-1
 804 1 l 2,19,20
EndSplineSet
EndChar

StartChar: tehisolated
Encoding: 65173 65173 108
Width: 1489
Flags: W
AnchorPoint: "ArabicBelow" 744 -252 basechar 0
AnchorPoint: "ArabicAbove" 744 1157 basechar 0
LayerCount: 2
Fore
SplineSet
608 639 m 1,0,-1
 414 762 l 1,1,-1
 503 895 l 1,2,-1
 701 772 l 1,3,-1
 608 639 l 1,0,-1
932 651 m 1,4,-1
 737 774 l 1,5,-1
 827 907 l 1,6,-1
 1025 784 l 1,7,-1
 932 651 l 1,4,-1
1369 328 m 0,8,9
 1369 231 1369 231 1365.5 167 c 128,-1,10
 1362 103 1362 103 1355 67 c 0,11,12
 1352 53 1352 53 1089 20 c 0,13,14
 977 7 977 7 889.5 2.5 c 128,-1,15
 802 -2 802 -2 733 -2 c 0,16,17
 682 -2 682 -2 643 -1 c 128,-1,18
 604 0 604 0 575 2 c 0,19,20
 558 3 558 3 544 3.5 c 128,-1,21
 530 4 530 4 519 4 c 0,22,23
 340 4 340 4 226 79 c 0,24,25
 94 164 94 164 94 333 c 0,26,27
 94 453 94 453 196 608 c 0,28,29
 206 623 206 623 213 633.5 c 128,-1,30
 220 644 220 644 225 650 c 1,31,32
 224 641 224 641 222 631 c 128,-1,33
 220 621 220 621 219 613 c 0,34,35
 218 608 218 608 217.5 606 c 128,-1,36
 217 604 217 604 217 606 c 1,37,38
 204 568 204 568 204 503 c 0,39,40
 204 435 204 435 225.5 384.5 c 128,-1,41
 247 334 247 334 293.5 300 c 128,-1,42
 340 266 340 266 413.5 249 c 128,-1,43
 487 232 487 232 592 232 c 2,44,-1
 646 232 l 1,45,-1
 674 232 l 1,46,-1
 689 232 l 2,47,48
 698 232 698 232 703 231 c 256,49,50
 708 230 708 230 718 230 c 2,51,-1
 733 230 l 1,52,-1
 765 230 l 1,53,-1
 830 230 l 2,54,55
 918 230 918 230 1012.5 234.5 c 128,-1,56
 1107 239 1107 239 1210 256 c 1,57,-1
 1221 272 l 1,58,59
 1213 299 1213 299 1203 326.5 c 128,-1,60
 1193 354 1193 354 1177 383 c 128,-1,61
 1161 412 1161 412 1138.5 443.5 c 128,-1,62
 1116 475 1116 475 1083 510 c 1,63,-1
 1221 695 l 1,64,-1
 1222 696 l 1,65,66
 1222 697 1222 697 1223.5 696 c 128,-1,67
 1225 695 1225 695 1227 693 c 0,68,69
 1369 545 1369 545 1369 328 c 0,8,9
EndSplineSet
EndChar

StartChar: tehfinal
Encoding: 65174 65174 109
Width: 1299
Flags: W
AnchorPoint: "ArabicBelow" 649 -249 basechar 0
AnchorPoint: "ArabicAbove" 649 1081 basechar 0
LayerCount: 2
Fore
SplineSet
860 596 m 1,0,-1
 692 693 l 1,1,-1
 673 688 l 1,2,-1
 604 584 l 1,3,-1
 405 692 l 1,4,-1
 492 822 l 1,5,-1
 675 718 l 1,6,-1
 693 722 l 1,7,-1
 761 831 l 1,8,-1
 943 728 l 1,9,-1
 860 596 l 1,0,-1
1306 1 m 1,10,-1
 437 1 l 1,11,-1
 315 8 l 1,12,-1
 314 8 l 2,13,14
 237 8 237 8 125 81 c 1,15,16
 31 169 31 169 31 337 c 0,17,18
 31 457 31 457 132 612 c 0,19,20
 143 627 143 627 150 637.5 c 128,-1,21
 157 648 157 648 162 654 c 1,22,23
 161 645 161 645 159 635 c 128,-1,24
 157 625 157 625 156 617 c 0,25,26
 155 612 155 612 154.5 610 c 128,-1,27
 154 608 154 608 154 610 c 1,28,29
 141 574 141 574 141 507 c 0,30,31
 141 444 141 444 160.5 394 c 128,-1,32
 180 344 180 344 223 309.5 c 128,-1,33
 266 275 266 275 333.5 257 c 128,-1,34
 401 239 401 239 497 239 c 2,35,-1
 1138 239 l 1,36,-1
 1150 259 l 1,37,-1
 1017 512 l 1,38,-1
 1158 699 l 1,39,-1
 1159 701 l 1,40,-1
 1162 698 l 1,41,-1
 1306 250 l 1,42,-1
 1306 1 l 1,10,-1
EndSplineSet
EndChar

StartChar: tehinitial
Encoding: 65175 65175 110
Width: 734
Flags: W
AnchorPoint: "ArabicBelow" 367 -249 basechar 0
AnchorPoint: "ArabicAbove" 367 1351 basechar 0
LayerCount: 2
Fore
SplineSet
493 841 m 1,0,-1
 361 958 l 1,1,-1
 341 956 l 1,2,-1
 244 841 l 1,3,-1
 103 967 l 1,4,-1
 213 1101 l 1,5,-1
 350 985 l 1,6,-1
 369 987 l 1,7,-1
 461 1101 l 1,8,-1
 608 977 l 1,9,-1
 493 841 l 1,0,-1
687 105 m 2,10,11
 687 65 687 65 686 39 c 128,-1,12
 685 13 685 13 685 11 c 1,13,14
 681 3 681 3 669.5 2 c 128,-1,15
 658 1 658 1 637 1 c 2,16,-1
 52 1 l 1,17,18
 51 2 51 2 43 2 c 2,19,-1
 34 2 l 1,20,-1
 -80 2 l 1,21,-1
 -80 234 l 1,22,-1
 508 234 l 1,23,-1
 520 252 l 1,24,25
 500 315 500 315 469 375 c 128,-1,26
 438 435 438 435 395 489 c 1,27,-1
 520 691 l 1,28,-1
 520 692 l 1,29,30
 522 697 522 697 525 698 c 1,31,32
 525 697 525 697 529 693 c 1,33,34
 687 475 687 475 687 165 c 2,35,-1
 687 105 l 2,10,11
EndSplineSet
EndChar

StartChar: tehmedial
Encoding: 65176 65176 111
Width: 699
Flags: W
AnchorPoint: "ArabicBelow" 349 -249 basechar 0
AnchorPoint: "ArabicAbove" 349 1351 basechar 0
LayerCount: 2
Fore
SplineSet
493 841 m 1,0,-1
 361 958 l 1,1,-1
 341 956 l 1,2,-1
 244 841 l 1,3,-1
 103 967 l 1,4,-1
 213 1101 l 1,5,-1
 350 985 l 1,6,-1
 369 987 l 1,7,-1
 461 1101 l 1,8,-1
 608 977 l 1,9,-1
 493 841 l 1,0,-1
700 105 m 2,10,11
 700 65 700 65 699 39 c 128,-1,12
 698 13 698 13 698 11 c 1,13,14
 694 3 694 3 682 2 c 128,-1,15
 670 1 670 1 649 1 c 2,16,-1
 -58 1 l 1,17,-1
 -58 238 l 1,18,-1
 520 238 l 1,19,-1
 533 256 l 1,20,21
 513 316 513 316 481.5 375.5 c 128,-1,22
 450 435 450 435 407 489 c 1,23,-1
 533 691 l 1,24,25
 534 695 534 695 537 698 c 1,26,27
 537 697 537 697 541 693 c 1,28,29
 700 474 700 474 700 165 c 2,30,-1
 700 105 l 2,10,11
EndSplineSet
EndChar

StartChar: thehisolated
Encoding: 65177 65177 112
Width: 1634
Flags: W
AnchorPoint: "ArabicBelow" 817 -248 basechar 0
AnchorPoint: "ArabicAbove" 817 1318 basechar 0
LayerCount: 2
Fore
SplineSet
645 837 m 1,0,-1
 470 941 l 1,1,-1
 552 1068 l 1,2,-1
 724 970 l 1,3,-1
 645 837 l 1,0,-1
861 596 m 1,4,-1
 693 693 l 1,5,-1
 674 688 l 1,6,-1
 605 584 l 1,7,-1
 406 692 l 1,8,-1
 493 822 l 1,9,-1
 676 718 l 1,10,-1
 694 722 l 1,11,-1
 762 831 l 1,12,-1
 944 728 l 1,13,-1
 861 596 l 1,4,-1
1307 332 m 0,14,15
 1307 143 1307 143 1292 71 c 0,16,17
 1289 57 1289 57 1027 24 c 0,18,19
 915 11 915 11 827.5 6.5 c 128,-1,20
 740 2 740 2 671 2 c 0,21,22
 620 2 620 2 581 3 c 128,-1,23
 542 4 542 4 513 6 c 0,24,25
 496 7 496 7 482 7.5 c 128,-1,26
 468 8 468 8 457 8 c 0,27,28
 276 8 276 8 164 84 c 0,29,30
 32 169 32 169 32 337 c 0,31,32
 32 457 32 457 133 612 c 0,33,34
 144 627 144 627 151 637.5 c 128,-1,35
 158 648 158 648 163 654 c 1,36,37
 162 645 162 645 160 635 c 128,-1,38
 158 625 158 625 157 617 c 0,39,40
 156 612 156 612 155.5 610 c 128,-1,41
 155 608 155 608 155 610 c 1,42,43
 142 574 142 574 142 507 c 0,44,45
 142 439 142 439 163.5 388.5 c 128,-1,46
 185 338 185 338 231.5 304 c 128,-1,47
 278 270 278 270 351.5 253 c 128,-1,48
 425 236 425 236 530 236 c 2,49,-1
 584 236 l 1,50,-1
 612 236 l 1,51,-1
 627 236 l 2,52,53
 636 236 636 236 641 235 c 256,54,55
 646 234 646 234 656 234 c 2,56,-1
 671 234 l 1,57,-1
 703 234 l 1,58,-1
 768 234 l 2,59,60
 856 234 856 234 950.5 238.5 c 128,-1,61
 1045 243 1045 243 1148 260 c 1,62,-1
 1159 276 l 1,63,64
 1151 303 1151 303 1141 330.5 c 128,-1,65
 1131 358 1131 358 1115 387 c 128,-1,66
 1099 416 1099 416 1076.5 447.5 c 128,-1,67
 1054 479 1054 479 1021 514 c 1,68,-1
 1159 699 l 1,69,-1
 1160 700 l 1,70,71
 1160 701 1160 701 1161.5 700 c 128,-1,72
 1163 699 1163 699 1165 697 c 0,73,74
 1307 549 1307 549 1307 332 c 0,14,15
EndSplineSet
EndChar

StartChar: thehfinal
Encoding: 65178 65178 113
Width: 1299
Flags: W
AnchorPoint: "ArabicBelow" 649 -249 basechar 0
AnchorPoint: "ArabicAbove" 649 1318 basechar 0
LayerCount: 2
Fore
SplineSet
644 837 m 1,0,-1
 469 941 l 1,1,-1
 551 1068 l 1,2,-1
 723 970 l 1,3,-1
 644 837 l 1,0,-1
860 596 m 1,4,-1
 692 693 l 1,5,-1
 673 688 l 1,6,-1
 604 584 l 1,7,-1
 405 692 l 1,8,-1
 492 822 l 1,9,-1
 675 718 l 1,10,-1
 693 722 l 1,11,-1
 761 831 l 1,12,-1
 943 728 l 1,13,-1
 860 596 l 1,4,-1
1306 1 m 1,14,-1
 437 1 l 1,15,-1
 315 8 l 1,16,-1
 314 8 l 2,17,18
 237 8 237 8 125 81 c 1,19,20
 31 169 31 169 31 337 c 0,21,22
 31 457 31 457 132 612 c 0,23,24
 143 627 143 627 150 637.5 c 128,-1,25
 157 648 157 648 162 654 c 1,26,27
 161 645 161 645 159 635 c 128,-1,28
 157 625 157 625 156 617 c 0,29,30
 155 612 155 612 154.5 610 c 128,-1,31
 154 608 154 608 154 610 c 1,32,33
 141 574 141 574 141 507 c 0,34,35
 141 444 141 444 160.5 394 c 128,-1,36
 180 344 180 344 223 309.5 c 128,-1,37
 266 275 266 275 333.5 257 c 128,-1,38
 401 239 401 239 497 239 c 2,39,-1
 1138 239 l 1,40,-1
 1150 259 l 1,41,-1
 1017 512 l 1,42,-1
 1158 699 l 1,43,-1
 1160 701 l 1,44,-1
 1162 698 l 1,45,-1
 1306 250 l 1,46,-1
 1306 1 l 1,14,-1
EndSplineSet
EndChar

StartChar: thehinitial
Encoding: 65179 65179 114
Width: 731
Flags: W
AnchorPoint: "ArabicBelow" 365 -245 basechar 0
AnchorPoint: "ArabicAbove" 365 1509 basechar 0
LayerCount: 2
Fore
SplineSet
269 1028 m 1,0,-1
 94 1132 l 1,1,-1
 176 1259 l 1,2,-1
 348 1160 l 1,3,-1
 269 1028 l 1,0,-1
485 786 m 1,4,-1
 317 883 l 1,5,-1
 298 879 l 1,6,-1
 229 774 l 1,7,-1
 31 882 l 1,8,-1
 117 1012 l 1,9,-1
 300 908 l 1,10,-1
 318 913 l 1,11,-1
 386 1022 l 1,12,-1
 568 919 l 1,13,-1
 485 786 l 1,4,-1
639 110 m 2,14,15
 639 70 639 70 638 43.5 c 128,-1,16
 637 17 637 17 637 15 c 1,17,18
 632 7 632 7 620.5 6 c 128,-1,19
 609 5 609 5 588 5 c 2,20,-1
 61 5 l 1,21,22
 60 6 60 6 -10 6 c 2,23,-1
 -58 6 l 1,24,-1
 -58 238 l 1,25,-1
 459 238 l 1,26,-1
 472 256 l 1,27,28
 452 319 452 319 420.5 379 c 128,-1,29
 389 439 389 439 346 493 c 1,30,-1
 472 695 l 1,31,32
 473 699 473 699 476 702 c 1,33,34
 476 701 476 701 480 697 c 1,35,36
 639 478 639 478 639 169 c 2,37,-1
 639 110 l 2,14,15
EndSplineSet
EndChar

StartChar: thehmedial
Encoding: 65180 65180 115
Width: 689
Flags: W
AnchorPoint: "ArabicBelow" 344 -249 basechar 0
AnchorPoint: "ArabicAbove" 344 1509 basechar 0
LayerCount: 2
Fore
SplineSet
267 1028 m 1,0,-1
 92 1132 l 1,1,-1
 174 1259 l 1,2,-1
 346 1160 l 1,3,-1
 267 1028 l 1,0,-1
483 786 m 1,4,-1
 315 883 l 1,5,-1
 296 879 l 1,6,-1
 227 774 l 1,7,-1
 29 882 l 1,8,-1
 115 1012 l 1,9,-1
 298 908 l 1,10,-1
 316 913 l 1,11,-1
 384 1022 l 1,12,-1
 566 919 l 1,13,-1
 483 786 l 1,4,-1
702 105 m 2,14,15
 702 65 702 65 701 39 c 128,-1,16
 700 13 700 13 700 11 c 1,17,18
 696 3 696 3 684 2 c 128,-1,19
 672 1 672 1 651 1 c 2,20,-1
 -56 1 l 1,21,-1
 -56 238 l 1,22,-1
 522 238 l 1,23,-1
 535 256 l 1,24,25
 515 316 515 316 483.5 375.5 c 128,-1,26
 452 435 452 435 409 489 c 1,27,-1
 535 691 l 1,28,29
 536 695 536 695 539 698 c 1,30,31
 539 697 539 697 543 693 c 1,32,33
 702 474 702 474 702 165 c 2,34,-1
 702 105 l 2,14,15
EndSplineSet
EndChar

StartChar: jeemisolated
Encoding: 65181 65181 116
Width: 1222
Flags: W
AnchorPoint: "ArabicBelow" 611 -984 basechar 0
AnchorPoint: "ArabicAbove" 611 929 basechar 0
LayerCount: 2
Fore
SplineSet
1191 630 m 1,0,1
 1192 628 1192 628 1190 626 c 1,2,3
 1190 627 1190 627 1190.5 627.5 c 128,-1,4
 1191 628 1191 628 1191 630 c 1,0,1
858 -263 m 1,5,-1
 638 -175 l 1,6,-1
 712 -4 l 1,7,-1
 934 -88 l 1,8,-1
 858 -263 l 1,5,-1
1270 -452 m 0,9,10
 1182 -530 1182 -530 1125 -576.5 c 128,-1,11
 1068 -623 1068 -623 1039 -643 c 0,12,13
 894 -734 894 -734 722 -734 c 0,14,15
 531 -734 531 -734 406 -609 c 0,16,17
 261 -464 261 -464 261 -206 c 0,18,19
 261 126 261 126 532 418 c 1,20,-1
 521 440 l 1,21,-1
 511 440 l 2,22,23
 491 441 491 441 472.5 441.5 c 128,-1,24
 454 442 454 442 438 442 c 0,25,26
 412 442 412 442 392 441 c 128,-1,27
 372 440 372 440 359 438 c 0,28,29
 314 431 314 431 277 413.5 c 128,-1,30
 240 396 240 396 208 368 c 0,31,32
 192 352 192 352 184 352 c 1,33,-1
 184 360 l 2,34,35
 184 366 184 366 192 396 c 0,36,37
 291 679 291 679 484 679 c 0,38,39
 527 679 527 679 589.5 672.5 c 128,-1,40
 652 666 652 666 740 653 c 256,41,42
 828 640 828 640 892.5 633 c 128,-1,43
 957 626 957 626 1002 626 c 2,44,-1
 1184 626 l 1,45,-1
 1190 626 l 1,46,47
 1189 626 1189 626 1189 625 c 1,48,-1
 1188 624 l 1,49,-1
 1078 401 l 1,50,51
 1004 398 1004 398 928 392.5 c 128,-1,52
 852 387 852 387 759 379 c 2,53,-1
 756 379 l 1,54,55
 622 340 622 340 495 205 c 0,56,57
 354 53 354 53 354 -106 c 0,58,59
 354 -499 354 -499 811 -499 c 0,60,61
 980 -499 980 -499 1252 -424 c 0,62,63
 1271 -420 1271 -420 1281 -418 c 128,-1,64
 1291 -416 1291 -416 1293 -416 c 0,65,66
 1301 -416 1301 -416 1302 -415 c 1,67,68
 1301 -420 1301 -420 1292.5 -429 c 128,-1,69
 1284 -438 1284 -438 1270 -452 c 0,9,10
EndSplineSet
EndChar

StartChar: jeemfinal
Encoding: 65182 65182 117
Width: 1442
Flags: W
AnchorPoint: "ArabicBelow" 721 -1000 basechar 0
AnchorPoint: "ArabicAbove" 721 924 basechar 0
LayerCount: 2
Fore
SplineSet
802 -304 m 1,0,-1
 582 -216 l 1,1,-1
 656 -45 l 1,2,-1
 878 -128 l 1,3,-1
 802 -304 l 1,0,-1
1159 1 m 2,4,5
 1030 1 1030 1 952 33 c 0,6,7
 869 74 869 74 869 196 c 0,8,9
 869 217 869 217 873.5 265.5 c 128,-1,10
 878 314 878 314 888 395 c 1,11,-1
 874 410 l 1,12,13
 666 390 666 390 520 250 c 0,14,15
 374 101 374 101 374 -106 c 0,16,17
 374 -512 374 -512 881 -512 c 0,18,19
 1127 -512 1127 -512 1322 -454 c 0,20,21
 1368 -446 1368 -446 1364 -446 c 1,22,-1
 1374 -446 l 1,23,24
 1374 -457 1374 -457 1341 -479 c 0,25,26
 1212 -570 1212 -570 1147 -617.5 c 128,-1,27
 1082 -665 1082 -665 1069 -672 c 0,28,29
 934 -750 934 -750 762 -750 c 0,30,31
 576 -750 576 -750 436 -616 c 0,32,33
 280 -465 280 -465 280 -206 c 0,34,35
 280 -40 280 -40 363 141 c 1,36,-1
 363 142 l 1,37,38
 437 302 437 302 561 440 c 1,39,-1
 551 462 l 1,40,-1
 548 462 l 2,41,42
 534 463 534 463 520 463.5 c 128,-1,43
 506 464 506 464 494 464 c 0,44,45
 330 464 330 464 218 368 c 0,46,47
 202 352 202 352 191 352 c 0,48,49
 188 352 188 352 187 353 c 256,50,51
 186 354 186 354 186 359 c 0,52,53
 186 365 186 365 189.5 373.5 c 128,-1,54
 193 382 193 382 201 393 c 0,55,56
 247 464 247 464 283.5 511.5 c 128,-1,57
 320 559 320 559 346 585 c 0,58,59
 441 674 441 674 560 674 c 0,60,61
 597 674 597 674 657.5 666.5 c 128,-1,62
 718 659 718 659 809 645 c 0,63,64
 987 615 987 615 1061 615 c 2,65,-1
 1062 615 l 2,66,67
 1082 616 1082 616 1094.5 617 c 128,-1,68
 1107 618 1107 618 1122 619 c 128,-1,69
 1137 620 1137 620 1160 621.5 c 128,-1,70
 1183 623 1183 623 1224 626 c 2,71,-1
 1228 626 l 1,72,-1
 1228 625 l 1,73,-1
 1226 619 l 1,74,-1
 1162 442 l 1,75,-1
 1155 442 l 2,76,77
 1092 442 1092 442 1042.5 437 c 128,-1,78
 993 432 993 432 953 423 c 1,79,-1
 943 411 l 1,80,81
 937 379 937 379 937 355 c 0,82,83
 937 237 937 237 1137 237 c 2,84,-1
 1445 237 l 1,85,-1
 1445 1 l 1,86,-1
 1159 1 l 2,4,5
EndSplineSet
EndChar

StartChar: jeeminitial
Encoding: 65183 65183 118
Width: 1257
Flags: W
AnchorPoint: "ArabicBelow" 628 -798 basechar 0
AnchorPoint: "ArabicAbove" 628 917 basechar 0
LayerCount: 2
Fore
SplineSet
649 -548 m 1,0,-1
 429 -460 l 1,1,-1
 503 -289 l 1,2,-1
 725 -373 l 1,3,-1
 649 -548 l 1,0,-1
1206 31 m 2,4,5
 1206 17 1206 17 1195 11 c 128,-1,6
 1184 5 1184 5 1161 3 c 0,7,8
 1126 0 1126 0 1057 0 c 2,9,-1
 78 0 l 1,10,-1
 -44 1 l 2,11,12
 -92 1 -92 1 -92 49 c 2,13,-1
 -92 239 l 1,14,-1
 829 239 l 1,15,-1
 839 261 l 1,16,17
 782 331 782 331 727.5 379 c 128,-1,18
 673 427 673 427 620.5 457 c 128,-1,19
 568 487 568 487 518 500 c 128,-1,20
 468 513 468 513 421 513 c 0,21,22
 371 513 371 513 245 471 c 0,23,24
 231 465 231 465 222 465 c 0,25,26
 212 465 212 465 212 472 c 0,27,28
 212 486 212 486 225 502 c 1,29,-1
 226 502 l 1,30,31
 346 667 346 667 513 667 c 0,32,33
 661 667 661 667 802 559 c 0,34,35
 813 551 813 551 865 500 c 128,-1,36
 917 449 917 449 1017 352 c 0,37,38
 1135 237 1135 237 1206 237 c 1,39,-1
 1206 31 l 2,4,5
EndSplineSet
EndChar

StartChar: jeemmedial
Encoding: 65184 65184 119
Width: 1233
Flags: W
AnchorPoint: "ArabicBelow" 616 -798 basechar 0
AnchorPoint: "ArabicAbove" 616 917 basechar 0
LayerCount: 2
Fore
SplineSet
1239 -7 m 1,0,-1
 1239 -6 l 1,1,-1
 1239 -7 l 1,0,-1
680 -548 m 1,2,-1
 460 -460 l 1,3,-1
 535 -289 l 1,4,-1
 757 -373 l 1,5,-1
 680 -548 l 1,2,-1
1239 -6 m 1,6,7
 1233 -1 1233 -1 1165.5 -0.5 c 128,-1,8
 1098 0 1098 0 961 0 c 2,9,-1
 -12 0 l 2,10,11
 -60 1 -60 1 -60 49 c 2,12,-1
 -60 239 l 1,13,-1
 861 239 l 1,14,-1
 871 261 l 1,15,16
 814 331 814 331 759.5 379 c 128,-1,17
 705 427 705 427 652.5 457 c 128,-1,18
 600 487 600 487 550 500 c 128,-1,19
 500 513 500 513 452 513 c 0,20,21
 403 513 403 513 277 471 c 0,22,23
 263 465 263 465 254 465 c 0,24,25
 243 465 243 465 243 472 c 0,26,27
 243 485 243 485 257 502 c 1,28,-1
 258 502 l 1,29,30
 376 667 376 667 545 667 c 0,31,32
 692 667 692 667 833 559 c 0,33,34
 854 544 854 544 1049 352 c 0,35,36
 1167 237 1167 237 1239 237 c 1,37,-1
 1239 -6 l 1,6,7
EndSplineSet
EndChar

StartChar: hahisolated
Encoding: 65185 65185 120
Width: 1222
Flags: W
AnchorPoint: "ArabicBelow" 611 -984 basechar 0
AnchorPoint: "ArabicAbove" 611 929 basechar 0
LayerCount: 2
Fore
SplineSet
1270 -452 m 0,0,1
 1182 -530 1182 -530 1125 -576.5 c 128,-1,2
 1068 -623 1068 -623 1039 -643 c 0,3,4
 894 -734 894 -734 722 -734 c 0,5,6
 531 -734 531 -734 406 -609 c 0,7,8
 261 -464 261 -464 261 -206 c 0,9,10
 261 126 261 126 532 418 c 1,11,-1
 521 440 l 1,12,-1
 511 440 l 2,13,14
 491 441 491 441 472.5 441.5 c 128,-1,15
 454 442 454 442 438 442 c 0,16,17
 412 442 412 442 392 441 c 128,-1,18
 372 440 372 440 359 438 c 0,19,20
 314 431 314 431 277 413.5 c 128,-1,21
 240 396 240 396 208 368 c 0,22,23
 192 352 192 352 184 352 c 1,24,-1
 184 360 l 2,25,26
 184 366 184 366 192 396 c 0,27,28
 291 679 291 679 484 679 c 0,29,30
 527 679 527 679 589.5 672.5 c 128,-1,31
 652 666 652 666 740 653 c 256,32,33
 828 640 828 640 892.5 633 c 128,-1,34
 957 626 957 626 1002 626 c 2,35,-1
 1184 626 l 1,36,-1
 1189 626 l 1,37,-1
 1078 401 l 1,38,39
 1004 398 1004 398 928 392.5 c 128,-1,40
 852 387 852 387 759 379 c 2,41,-1
 756 379 l 1,42,43
 622 340 622 340 495 205 c 0,44,45
 354 53 354 53 354 -106 c 0,46,47
 354 -499 354 -499 811 -499 c 0,48,49
 980 -499 980 -499 1252 -424 c 0,50,51
 1271 -420 1271 -420 1281 -418 c 128,-1,52
 1291 -416 1291 -416 1293 -416 c 0,53,54
 1301 -416 1301 -416 1302 -415 c 1,55,56
 1301 -420 1301 -420 1292.5 -429 c 128,-1,57
 1284 -438 1284 -438 1270 -452 c 0,0,1
EndSplineSet
EndChar

StartChar: hahfinal
Encoding: 65186 65186 121
Width: 1429
Flags: W
AnchorPoint: "ArabicBelow" 714 -1000 basechar 0
AnchorPoint: "ArabicAbove" 714 924 basechar 0
LayerCount: 2
Fore
SplineSet
1150 1 m 2,0,1
 1021 1 1021 1 943 33 c 0,2,3
 860 74 860 74 860 196 c 0,4,5
 860 217 860 217 864.5 265.5 c 128,-1,6
 869 314 869 314 879 395 c 1,7,-1
 865 410 l 1,8,9
 657 390 657 390 511 250 c 0,10,11
 365 101 365 101 365 -106 c 0,12,13
 365 -512 365 -512 872 -512 c 0,14,15
 1117 -512 1117 -512 1313 -454 c 0,16,17
 1359 -446 1359 -446 1355 -446 c 1,18,-1
 1365 -446 l 1,19,20
 1365 -457 1365 -457 1332 -479 c 0,21,22
 1203 -570 1203 -570 1138 -617.5 c 128,-1,23
 1073 -665 1073 -665 1060 -672 c 0,24,25
 925 -750 925 -750 753 -750 c 0,26,27
 564 -750 564 -750 427 -616 c 0,28,29
 271 -465 271 -465 271 -206 c 0,30,31
 271 -29 271 -29 353 141 c 1,32,-1
 353 142 l 1,33,34
 390 221 390 221 439 295.5 c 128,-1,35
 488 370 488 370 552 440 c 1,36,-1
 542 462 l 1,37,-1
 539 462 l 2,38,39
 524 463 524 463 510.5 463.5 c 128,-1,40
 497 464 497 464 485 464 c 0,41,42
 321 464 321 464 209 368 c 0,43,44
 193 352 193 352 182 352 c 0,45,46
 179 352 179 352 178 353 c 256,47,48
 177 354 177 354 177 359 c 0,49,50
 177 370 177 370 191 393 c 0,51,52
 236 462 236 462 272.5 510.5 c 128,-1,53
 309 559 309 559 337 585 c 0,54,55
 432 674 432 674 551 674 c 0,56,57
 588 674 588 674 648.5 666.5 c 128,-1,58
 709 659 709 659 800 645 c 0,59,60
 888 630 888 630 948 622.5 c 128,-1,61
 1008 615 1008 615 1053 615 c 1,62,63
 1065 617 1065 617 1101.5 616 c 128,-1,64
 1138 615 1138 615 1215 626 c 1,65,-1
 1219 626 l 1,66,67
 1218 625 1218 625 1218 623 c 2,68,-1
 1218 622 l 1,69,-1
 1153 442 l 1,70,-1
 1146 442 l 2,71,72
 1083 442 1083 442 1033.5 437 c 128,-1,73
 984 432 984 432 944 423 c 1,74,-1
 934 411 l 1,75,76
 928 379 928 379 928 355 c 0,77,78
 928 237 928 237 1127 237 c 2,79,-1
 1436 237 l 1,80,-1
 1436 1 l 1,81,-1
 1150 1 l 2,0,1
EndSplineSet
EndChar

StartChar: hahinitial
Encoding: 65187 65187 122
Width: 1333
Flags: W
AnchorPoint: "ArabicBelow" 666 -250 basechar 0
AnchorPoint: "ArabicAbove" 666 917 basechar 0
LayerCount: 2
Fore
SplineSet
1271 31 m 2,0,1
 1271 17 1271 17 1260 11 c 128,-1,2
 1249 5 1249 5 1226 3 c 0,3,4
 1191 0 1191 0 1122 0 c 2,5,-1
 144 0 l 1,6,-1
 21 1 l 2,7,8
 -26 1 -26 1 -26 49 c 2,9,-1
 -26 239 l 1,10,-1
 894 239 l 1,11,-1
 904 261 l 1,12,13
 847 331 847 331 792.5 379 c 128,-1,14
 738 427 738 427 685.5 457 c 128,-1,15
 633 487 633 487 583.5 500 c 128,-1,16
 534 513 534 513 486 513 c 0,17,18
 435 513 435 513 311 471 c 0,19,20
 296 465 296 465 287 465 c 0,21,22
 277 465 277 465 277 472 c 0,23,24
 277 486 277 486 290 502 c 1,25,-1
 291 502 l 1,26,27
 411 667 411 667 578 667 c 0,28,29
 726 667 726 667 867 559 c 0,30,31
 878 551 878 551 930.5 500 c 128,-1,32
 983 449 983 449 1083 352 c 0,33,34
 1201 237 1201 237 1271 237 c 1,35,-1
 1271 31 l 2,0,1
EndSplineSet
EndChar

StartChar: hahmedial
Encoding: 65188 65188 123
Width: 1233
Flags: W
AnchorPoint: "ArabicBelow" 616 -250 basechar 0
AnchorPoint: "ArabicAbove" 616 918 basechar 0
LayerCount: 2
Fore
SplineSet
-13 0 m 2,0,1
 -61 1 -61 1 -61 50 c 2,2,-1
 -61 240 l 1,3,-1
 860 240 l 1,4,-1
 870 262 l 1,5,6
 813 332 813 332 758 380 c 128,-1,7
 703 428 703 428 650.5 458 c 128,-1,8
 598 488 598 488 548 501 c 128,-1,9
 498 514 498 514 451 514 c 0,10,11
 402 514 402 514 276 472 c 0,12,13
 269 470 269 470 263.5 468 c 128,-1,14
 258 466 258 466 253 466 c 0,15,16
 242 466 242 466 242 473 c 0,17,18
 242 486 242 486 256 503 c 1,19,-1
 257 503 l 1,20,21
 375 668 375 668 544 668 c 0,22,23
 691 668 691 668 832 560 c 0,24,25
 853 545 853 545 1048 353 c 0,26,27
 1166 238 1166 238 1238 238 c 1,28,-1
 1238 0 l 1,29,-1
 -13 0 l 2,0,1
EndSplineSet
EndChar

StartChar: khahisolated
Encoding: 65189 65189 124
Width: 1222
Flags: W
AnchorPoint: "ArabicBelow" 611 -984 basechar 0
AnchorPoint: "ArabicAbove" 611 1392 basechar 0
LayerCount: 2
Fore
SplineSet
786 883 m 1,0,-1
 566 971 l 1,1,-1
 641 1142 l 1,2,-1
 863 1058 l 1,3,-1
 786 883 l 1,0,-1
1270 -452 m 0,4,5
 1182 -530 1182 -530 1125 -576.5 c 128,-1,6
 1068 -623 1068 -623 1039 -643 c 0,7,8
 894 -734 894 -734 722 -734 c 0,9,10
 531 -734 531 -734 406 -609 c 0,11,12
 261 -464 261 -464 261 -206 c 0,13,14
 261 126 261 126 532 418 c 1,15,-1
 521 440 l 1,16,-1
 511 440 l 2,17,18
 491 441 491 441 472.5 441.5 c 128,-1,19
 454 442 454 442 438 442 c 0,20,21
 412 442 412 442 392 441 c 128,-1,22
 372 440 372 440 359 438 c 0,23,24
 314 431 314 431 277 413.5 c 128,-1,25
 240 396 240 396 208 368 c 0,26,27
 192 352 192 352 184 352 c 1,28,-1
 184 360 l 2,29,30
 184 366 184 366 192 396 c 0,31,32
 291 679 291 679 484 679 c 0,33,34
 527 679 527 679 589.5 672.5 c 128,-1,35
 652 666 652 666 740 653 c 256,36,37
 828 640 828 640 892.5 633 c 128,-1,38
 957 626 957 626 1002 626 c 2,39,-1
 1184 626 l 1,40,-1
 1189 626 l 1,41,-1
 1078 401 l 1,42,43
 1004 398 1004 398 928 392.5 c 128,-1,44
 852 387 852 387 759 379 c 2,45,-1
 756 379 l 1,46,47
 622 340 622 340 495 205 c 0,48,49
 354 53 354 53 354 -106 c 0,50,51
 354 -499 354 -499 811 -499 c 0,52,53
 980 -499 980 -499 1252 -424 c 0,54,55
 1271 -420 1271 -420 1281 -418 c 128,-1,56
 1291 -416 1291 -416 1293 -416 c 0,57,58
 1301 -416 1301 -416 1302 -415 c 1,59,60
 1301 -420 1301 -420 1292.5 -429 c 128,-1,61
 1284 -438 1284 -438 1270 -452 c 0,4,5
EndSplineSet
EndChar

StartChar: khahfinal
Encoding: 65190 65190 125
Width: 1435
Flags: W
AnchorPoint: "ArabicBelow" 717 -1000 basechar 0
AnchorPoint: "ArabicAbove" 717 1392 basechar 0
LayerCount: 2
Fore
SplineSet
786 883 m 1,0,-1
 566 971 l 1,1,-1
 641 1142 l 1,2,-1
 863 1058 l 1,3,-1
 786 883 l 1,0,-1
1159 1 m 2,4,5
 1030 1 1030 1 952 33 c 0,6,7
 869 74 869 74 869 196 c 0,8,9
 869 217 869 217 873.5 265.5 c 128,-1,10
 878 314 878 314 888 395 c 1,11,-1
 874 410 l 1,12,13
 666 390 666 390 520 250 c 0,14,15
 374 101 374 101 374 -106 c 0,16,17
 374 -512 374 -512 881 -512 c 0,18,19
 1127 -512 1127 -512 1322 -454 c 0,20,21
 1368 -446 1368 -446 1364 -446 c 1,22,-1
 1374 -446 l 1,23,24
 1374 -457 1374 -457 1341 -479 c 0,25,26
 1212 -570 1212 -570 1147 -617.5 c 128,-1,27
 1082 -665 1082 -665 1069 -672 c 0,28,29
 934 -750 934 -750 762 -750 c 0,30,31
 576 -750 576 -750 436 -616 c 0,32,33
 280 -465 280 -465 280 -206 c 0,34,35
 280 -40 280 -40 363 141 c 1,36,-1
 363 142 l 1,37,38
 437 302 437 302 561 440 c 1,39,-1
 551 462 l 1,40,-1
 548 462 l 2,41,42
 534 463 534 463 520 463.5 c 128,-1,43
 506 464 506 464 494 464 c 0,44,45
 330 464 330 464 218 368 c 0,46,47
 202 352 202 352 191 352 c 0,48,49
 188 352 188 352 187 353 c 256,50,51
 186 354 186 354 186 359 c 0,52,53
 186 365 186 365 189.5 373.5 c 128,-1,54
 193 382 193 382 201 393 c 0,55,56
 247 464 247 464 283.5 511.5 c 128,-1,57
 320 559 320 559 346 585 c 0,58,59
 441 674 441 674 560 674 c 0,60,61
 597 674 597 674 657.5 666.5 c 128,-1,62
 718 659 718 659 809 645 c 0,63,64
 897 630 897 630 957 622.5 c 128,-1,65
 1017 615 1017 615 1062 615 c 0,66,67
 1075 616 1075 616 1090 615.5 c 128,-1,68
 1105 615 1105 615 1123.5 615.5 c 128,-1,69
 1142 616 1142 616 1166.5 618 c 128,-1,70
 1191 620 1191 620 1224 626 c 1,71,72
 1227 624 1227 624 1227 623 c 1,73,-1
 1162 442 l 1,74,-1
 1155 442 l 2,75,76
 1092 442 1092 442 1042.5 437 c 128,-1,77
 993 432 993 432 953 423 c 1,78,-1
 943 411 l 1,79,80
 937 379 937 379 937 355 c 0,81,82
 937 240 937 240 1137 240 c 2,83,-1
 1445 240 l 1,84,-1
 1445 1 l 1,85,-1
 1159 1 l 2,4,5
EndSplineSet
EndChar

StartChar: khahinitial
Encoding: 65191 65191 126
Width: 1344
Flags: W
AnchorPoint: "ArabicBelow" 672 -250 basechar 0
AnchorPoint: "ArabicAbove" 672 1277 basechar 0
LayerCount: 2
Fore
SplineSet
629 768 m 1,0,-1
 409 856 l 1,1,-1
 484 1027 l 1,2,-1
 706 943 l 1,3,-1
 629 768 l 1,0,-1
1276 31 m 2,4,5
 1276 17 1276 17 1265 11 c 128,-1,6
 1254 5 1254 5 1231 3 c 0,7,8
 1196 0 1196 0 1127 0 c 2,9,-1
 149 0 l 1,10,-1
 26 1 l 2,11,12
 -21 1 -21 1 -21 49 c 2,13,-1
 -21 239 l 1,14,-1
 899 239 l 1,15,-1
 910 261 l 1,16,17
 853 331 853 331 798 379 c 128,-1,18
 743 427 743 427 690.5 457 c 128,-1,19
 638 487 638 487 588 500 c 128,-1,20
 538 513 538 513 491 513 c 0,21,22
 440 513 440 513 316 471 c 0,23,24
 302 465 302 465 292 465 c 256,25,26
 282 465 282 465 282 472 c 0,27,28
 282 486 282 486 295 502 c 1,29,-1
 296 502 l 1,30,31
 416 667 416 667 584 667 c 0,32,33
 731 667 731 667 872 559 c 0,34,35
 883 551 883 551 935.5 500 c 128,-1,36
 988 449 988 449 1088 352 c 0,37,38
 1206 237 1206 237 1276 237 c 1,39,-1
 1276 31 l 2,4,5
EndSplineSet
EndChar

StartChar: khahmedial
Encoding: 65192 65192 127
Width: 1215
Flags: W
AnchorPoint: "ArabicBelow" 607 -250 basechar 0
AnchorPoint: "ArabicAbove" 607 1276 basechar 0
LayerCount: 2
Fore
SplineSet
573 767 m 1,0,-1
 353 855 l 1,1,-1
 428 1026 l 1,2,-1
 650 942 l 1,3,-1
 573 767 l 1,0,-1
-25 0 m 2,4,5
 -73 1 -73 1 -73 50 c 2,6,-1
 -73 240 l 1,7,-1
 847 240 l 1,8,-1
 858 262 l 1,9,10
 801 332 801 332 746 380 c 128,-1,11
 691 428 691 428 638.5 458 c 128,-1,12
 586 488 586 488 536 501 c 128,-1,13
 486 514 486 514 439 514 c 0,14,15
 388 514 388 514 264 472 c 0,16,17
 257 470 257 470 251 468 c 128,-1,18
 245 466 245 466 240 466 c 0,19,20
 230 466 230 466 230 473 c 0,21,22
 230 487 230 487 243 503 c 1,23,-1
 244 503 l 1,24,25
 364 668 364 668 532 668 c 0,26,27
 679 668 679 668 820 560 c 0,28,29
 831 552 831 552 883.5 501 c 128,-1,30
 936 450 936 450 1036 353 c 0,31,32
 1154 239 1154 239 1226 239 c 1,33,-1
 1226 0 l 1,34,-1
 -25 0 l 2,4,5
EndSplineSet
EndChar

StartChar: dalisolated
Encoding: 65193 65193 128
Width: 843
Flags: W
AnchorPoint: "ArabicBelow" 421 -251 basechar 0
AnchorPoint: "ArabicAbove" 421 1082 basechar 0
LayerCount: 2
Fore
SplineSet
666 831 m 1,0,1
 666 832 666 832 667 832 c 1,2,-1
 666 831 l 1,0,1
729 41 m 2,3,4
 728 22 728 22 683 13 c 0,5,6
 666 10 666 10 633 8 c 128,-1,7
 600 6 600 6 549 4 c 0,8,9
 494 2 494 2 449 0.5 c 128,-1,10
 404 -1 404 -1 368 -1 c 0,11,12
 330 -1 330 -1 302.5 0.5 c 128,-1,13
 275 2 275 2 258 4 c 0,14,15
 115 24 115 24 115 164 c 0,16,17
 115 175 115 175 116 188 c 128,-1,18
 117 201 117 201 119 215 c 0,19,20
 125 264 125 264 152 350 c 0,21,22
 182 448 182 448 192 451 c 1,23,-1
 192 446 l 2,24,25
 192 438 192 438 189 425 c 1,26,-1
 189 424 l 2,27,28
 187 409 187 409 185.5 396.5 c 128,-1,29
 184 384 184 384 184 373 c 0,30,31
 184 253 184 253 315 235 c 0,32,33
 344 231 344 231 382 228.5 c 128,-1,34
 420 226 420 226 471 226 c 0,35,36
 602 226 602 226 635 244 c 1,37,-1
 641 257 l 1,38,39
 626 475 626 475 530 652 c 1,40,-1
 664 828 l 1,41,-1
 665 829 l 1,42,43
 665 830 665 830 665.5 830.5 c 128,-1,44
 666 831 666 831 666.5 830.5 c 128,-1,45
 667 830 667 830 668 828 c 0,46,47
 700 771 700 771 720.5 692 c 128,-1,48
 741 613 741 613 753 507 c 0,49,50
 758 455 758 455 760.5 411.5 c 128,-1,51
 763 368 763 368 763 331 c 0,52,53
 763 306 763 306 762 285 c 128,-1,54
 761 264 761 264 758 243 c 2,55,-1
 729 42 l 1,56,-1
 729 41 l 2,3,4
EndSplineSet
EndChar

StartChar: dalfinal
Encoding: 65194 65194 129
Width: 655
Flags: W
AnchorPoint: "ArabicBelow" 327 -250 basechar 0
AnchorPoint: "ArabicAbove" 327 1082 basechar 0
LayerCount: 2
Fore
SplineSet
566 831 m 1,0,1
 566 832 566 832 567 832 c 1,2,-1
 566 831 l 1,0,1
640 93 m 2,3,4
 636 63 636 63 633 43 c 128,-1,5
 630 23 630 23 628 0 c 1,6,-1
 241 0 l 2,7,8
 213 0 213 0 192 1 c 128,-1,9
 171 2 171 2 157 4 c 0,10,11
 15 23 15 23 15 164 c 0,12,13
 15 175 15 175 16 188 c 128,-1,14
 17 201 17 201 19 215 c 0,15,16
 22 241 22 241 30.5 274.5 c 128,-1,17
 39 308 39 308 52 350 c 0,18,19
 67 401 67 401 77.5 425 c 128,-1,20
 88 449 88 449 93 451 c 1,21,-1
 93 446 l 2,22,23
 93 437 93 437 92 427.5 c 128,-1,24
 91 418 91 418 89 408 c 0,25,26
 85 395 85 395 85 373 c 0,27,28
 85 253 85 253 215 235 c 0,29,30
 245 231 245 231 282.5 228.5 c 128,-1,31
 320 226 320 226 371 226 c 0,32,33
 502 226 502 226 535 244 c 1,34,-1
 541 257 l 1,35,36
 534 366 534 366 506 463.5 c 128,-1,37
 478 561 478 561 430 652 c 1,38,-1
 564 828 l 1,39,-1
 565 829 l 1,40,41
 565 830 565 830 565.5 830.5 c 128,-1,42
 566 831 566 831 566.5 830.5 c 128,-1,43
 567 830 567 830 568 828 c 0,44,45
 631 715 631 715 653 507 c 0,46,47
 658 455 658 455 660.5 411.5 c 128,-1,48
 663 368 663 368 663 331 c 0,49,50
 663 306 663 306 662 285 c 128,-1,51
 661 264 661 264 658 243 c 2,52,-1
 640 93 l 2,3,4
EndSplineSet
EndChar

StartChar: thalisolated
Encoding: 65195 65195 130
Width: 843
Flags: W
AnchorPoint: "ArabicBelow" 421 -252 basechar 0
AnchorPoint: "ArabicAbove" 421 1392 basechar 0
LayerCount: 2
Fore
SplineSet
626 830 m 1,0,1
 626 831 626 831 627 831 c 1,2,-1
 626 830 l 1,0,1
546 903 m 1,3,-1
 355 979 l 1,4,-1
 423 1142 l 1,5,-1
 616 1070 l 1,6,-1
 546 903 l 1,3,-1
690 40 m 1,7,8
 687 21 687 21 644 12 c 0,9,10
 627 9 627 9 593.5 7 c 128,-1,11
 560 5 560 5 509 3 c 0,12,13
 454 1 454 1 409 -0.5 c 128,-1,14
 364 -2 364 -2 328 -2 c 0,15,16
 290 -2 290 -2 262.5 -0.5 c 128,-1,17
 235 1 235 1 218 3 c 0,18,19
 75 23 75 23 75 163 c 0,20,21
 75 174 75 174 76 187 c 128,-1,22
 77 200 77 200 79 214 c 0,23,24
 86 263 86 263 112 349 c 0,25,26
 127 400 127 400 137.5 424 c 128,-1,27
 148 448 148 448 153 450 c 1,28,-1
 153 445 l 2,29,30
 153 437 153 437 150 424 c 1,31,-1
 150 423 l 2,32,33
 148 408 148 408 146.5 395.5 c 128,-1,34
 145 383 145 383 145 372 c 0,35,36
 145 252 145 252 275 234 c 0,37,38
 305 230 305 230 342.5 227.5 c 128,-1,39
 380 225 380 225 431 225 c 0,40,41
 562 225 562 225 595 243 c 1,42,-1
 601 256 l 1,43,44
 594 365 594 365 566 462.5 c 128,-1,45
 538 560 538 560 490 651 c 1,46,-1
 624 827 l 1,47,-1
 625 828 l 1,48,49
 625 829 625 829 625.5 829.5 c 128,-1,50
 626 830 626 830 626.5 829.5 c 128,-1,51
 627 829 627 829 628 827 c 0,52,53
 691 714 691 714 713 506 c 0,54,55
 718 454 718 454 720.5 410.5 c 128,-1,56
 723 367 723 367 723 330 c 0,57,58
 723 305 723 305 722 284 c 128,-1,59
 721 263 721 263 718 242 c 2,60,-1
 690 41 l 1,61,-1
 690 40 l 1,7,8
EndSplineSet
EndChar

StartChar: thalfinal
Encoding: 65196 65196 131
Width: 655
Flags: W
AnchorPoint: "ArabicBelow" 327 -250 basechar 0
AnchorPoint: "ArabicAbove" 327 1392 basechar 0
LayerCount: 2
Fore
SplineSet
566 831 m 1,0,1
 566 832 566 832 567 832 c 1,2,-1
 566 831 l 1,0,1
515 903 m 1,3,-1
 325 979 l 1,4,-1
 392 1142 l 1,5,-1
 586 1070 l 1,6,-1
 515 903 l 1,3,-1
640 93 m 2,7,8
 636 63 636 63 633 43 c 128,-1,9
 630 23 630 23 628 0 c 1,10,-1
 241 0 l 2,11,12
 213 0 213 0 192 1 c 128,-1,13
 171 2 171 2 157 4 c 0,14,15
 15 23 15 23 15 164 c 0,16,17
 15 175 15 175 16 188 c 128,-1,18
 17 201 17 201 19 215 c 0,19,20
 22 241 22 241 30.5 274.5 c 128,-1,21
 39 308 39 308 52 350 c 0,22,23
 67 401 67 401 77.5 425 c 128,-1,24
 88 449 88 449 93 451 c 1,25,-1
 93 446 l 2,26,27
 93 437 93 437 92 427.5 c 128,-1,28
 91 418 91 418 89 408 c 0,29,30
 85 395 85 395 85 373 c 0,31,32
 85 253 85 253 215 235 c 0,33,34
 245 231 245 231 282.5 228.5 c 128,-1,35
 320 226 320 226 371 226 c 0,36,37
 502 226 502 226 535 244 c 1,38,-1
 541 257 l 1,39,40
 534 366 534 366 506 463.5 c 128,-1,41
 478 561 478 561 430 652 c 1,42,-1
 564 828 l 1,43,-1
 565 829 l 1,44,45
 565 830 565 830 565.5 830.5 c 128,-1,46
 566 831 566 831 566.5 830.5 c 128,-1,47
 567 830 567 830 568 828 c 0,48,49
 631 715 631 715 653 507 c 0,50,51
 658 455 658 455 660.5 411.5 c 128,-1,52
 663 368 663 368 663 331 c 0,53,54
 663 306 663 306 662 285 c 128,-1,55
 661 264 661 264 658 243 c 2,56,-1
 640 93 l 2,7,8
EndSplineSet
EndChar

StartChar: rehisolated
Encoding: 65197 65197 132
Width: 868
Flags: W
AnchorPoint: "ArabicBelow" 434 -854 basechar 0
AnchorPoint: "ArabicAbove" 434 715 basechar 0
LayerCount: 2
Fore
SplineSet
21 -256 m 1,0,1
 20 -255 20 -255 18 -255 c 1,2,-1
 19 -254 l 1,3,4
 20 -254 20 -254 21 -253 c 1,5,-1
 21 -256 l 1,0,1
841 78 m 0,6,7
 841 -48 841 -48 813.5 -157.5 c 128,-1,8
 786 -267 786 -267 726 -370 c 0,9,10
 594 -604 594 -604 390 -604 c 0,11,12
 299 -604 299 -604 184 -495 c 0,13,14
 133 -447 133 -447 96 -398 c 128,-1,15
 59 -349 59 -349 36 -295 c 1,16,-1
 36 -294 l 1,17,18
 23 -267 23 -267 21 -256 c 1,19,20
 26 -258 26 -258 33.5 -262 c 128,-1,21
 41 -266 41 -266 51 -273 c 0,22,23
 118 -319 118 -319 186.5 -342.5 c 128,-1,24
 255 -366 255 -366 330 -366 c 0,25,26
 474 -366 474 -366 593 -259 c 0,27,28
 699 -162 699 -162 742 -15 c 1,29,-1
 742 -7 l 1,30,31
 719 56 719 56 672.5 119.5 c 128,-1,32
 626 183 626 183 556 249 c 1,33,-1
 654 465 l 1,34,35
 841 341 841 341 841 78 c 0,6,7
EndSplineSet
EndChar

StartChar: rehfinal
Encoding: 65198 65198 133
Width: 819
Flags: W
AnchorPoint: "ArabicBelow" 409 -854 basechar 0
AnchorPoint: "ArabicAbove" 409 715 basechar 0
LayerCount: 2
Fore
SplineSet
19 -256 m 1,0,1
 18 -255 18 -255 16 -255 c 1,2,-1
 17 -254 l 1,3,4
 18 -254 18 -254 19 -253 c 1,5,-1
 19 -256 l 1,0,1
839 78 m 0,6,7
 839 -48 839 -48 811.5 -157.5 c 128,-1,8
 784 -267 784 -267 724 -370 c 0,9,10
 592 -604 592 -604 388 -604 c 0,11,12
 297 -604 297 -604 182 -495 c 0,13,14
 131 -447 131 -447 94 -398 c 128,-1,15
 57 -349 57 -349 34 -295 c 1,16,-1
 34 -294 l 1,17,18
 21 -267 21 -267 19 -256 c 1,19,20
 24 -258 24 -258 31.5 -262 c 128,-1,21
 39 -266 39 -266 49 -273 c 0,22,23
 182 -366 182 -366 328 -366 c 0,24,25
 472 -366 472 -366 591 -259 c 0,26,27
 697 -162 697 -162 740 -15 c 1,28,-1
 740 -7 l 1,29,30
 717 56 717 56 670.5 119.5 c 128,-1,31
 624 183 624 183 554 249 c 1,32,-1
 652 465 l 1,33,34
 839 341 839 341 839 78 c 0,6,7
EndSplineSet
EndChar

StartChar: zainisolated
Encoding: 65199 65199 134
Width: 939
Flags: W
AnchorPoint: "ArabicBelow" 469 -854 basechar 0
AnchorPoint: "ArabicAbove" 469 1280 basechar 0
LayerCount: 2
Fore
SplineSet
93 -256 m 1,0,1
 92 -255 92 -255 90 -255 c 1,2,-1
 91 -254 l 1,3,4
 92 -254 92 -254 93 -253 c 1,5,-1
 93 -256 l 1,0,1
661 771 m 1,6,-1
 441 859 l 1,7,-1
 515 1030 l 1,8,-1
 737 946 l 1,9,-1
 661 771 l 1,6,-1
913 78 m 0,10,11
 913 -164 913 -164 797 -370 c 0,12,13
 665 -604 665 -604 461 -604 c 0,14,15
 368 -604 368 -604 256 -495 c 0,16,17
 155 -400 155 -400 107 -295 c 1,18,-1
 107 -294 l 1,19,20
 101 -280 101 -280 97.5 -271 c 128,-1,21
 94 -262 94 -262 93 -256 c 1,22,23
 102 -259 102 -259 122 -273 c 0,24,25
 189 -319 189 -319 258.5 -342.5 c 128,-1,26
 328 -366 328 -366 401 -366 c 0,27,28
 548 -366 548 -366 664 -259 c 0,29,30
 769 -163 769 -163 814 -15 c 1,31,-1
 814 -7 l 1,32,33
 767 117 767 117 627 249 c 1,34,-1
 725 465 l 1,35,36
 913 339 913 339 913 78 c 0,10,11
EndSplineSet
EndChar

StartChar: zainfinal
Encoding: 65200 65200 135
Width: 819
Flags: W
AnchorPoint: "ArabicBelow" 409 -854 basechar 0
AnchorPoint: "ArabicAbove" 409 1280 basechar 0
LayerCount: 2
Fore
SplineSet
19 -256 m 1,0,1
 18 -255 18 -255 16 -255 c 1,2,-1
 17 -254 l 1,3,4
 18 -254 18 -254 19 -253 c 1,5,-1
 19 -256 l 1,0,1
659 771 m 1,6,-1
 439 859 l 1,7,-1
 513 1030 l 1,8,-1
 735 946 l 1,9,-1
 659 771 l 1,6,-1
839 78 m 0,10,11
 839 -48 839 -48 811.5 -157.5 c 128,-1,12
 784 -267 784 -267 724 -370 c 0,13,14
 592 -604 592 -604 388 -604 c 0,15,16
 297 -604 297 -604 182 -495 c 0,17,18
 131 -447 131 -447 94 -398 c 128,-1,19
 57 -349 57 -349 34 -295 c 1,20,-1
 34 -294 l 1,21,22
 21 -267 21 -267 19 -256 c 1,23,24
 24 -258 24 -258 31.5 -262 c 128,-1,25
 39 -266 39 -266 49 -273 c 0,26,27
 182 -366 182 -366 328 -366 c 0,28,29
 472 -366 472 -366 591 -259 c 0,30,31
 697 -162 697 -162 740 -15 c 1,32,-1
 740 -7 l 1,33,34
 717 56 717 56 670.5 119.5 c 128,-1,35
 624 183 624 183 554 249 c 1,36,-1
 652 465 l 1,37,38
 839 341 839 341 839 78 c 0,10,11
EndSplineSet
EndChar

StartChar: seenisolated
Encoding: 65201 65201 136
Width: 2042
Flags: W
AnchorPoint: "ArabicBelow" 1021 -759 basechar 0
AnchorPoint: "ArabicAbove" 1021 866 basechar 0
LayerCount: 2
Fore
SplineSet
2003 44 m 2,0,1
 2002 -2 2002 -2 1853 -2 c 0,2,3
 1736 -2 1736 -2 1636 29 c 1,4,-1
 1635 30 l 1,5,6
 1530 58 1530 58 1474 90 c 1,7,-1
 1458 88 l 1,8,9
 1436 64 1436 64 1412 48 c 128,-1,10
 1388 32 1388 32 1362 22 c 1,11,-1
 1361 22 l 1,12,13
 1305 1 1305 1 1173 1 c 1,14,-1
 1160 -9 l 1,15,16
 1147 -69 1147 -69 1125 -127 c 128,-1,17
 1103 -185 1103 -185 1072 -246 c 0,18,19
 1046 -300 1046 -300 1024 -333.5 c 128,-1,20
 1002 -367 1002 -367 982 -384 c 0,21,22
 919 -441 919 -441 795 -477 c 0,23,24
 679 -509 679 -509 587 -509 c 0,25,26
 184 -509 184 -509 184 -74 c 0,27,28
 184 147 184 147 310 332 c 0,29,30
 323 351 323 351 332.5 364 c 128,-1,31
 342 377 342 377 349 383 c 1,32,33
 347 374 347 374 341 360 c 128,-1,34
 335 346 335 346 327 327 c 1,35,-1
 327 326 l 1,36,37
 241 136 241 136 241 13 c 0,38,39
 241 -278 241 -278 606 -278 c 0,40,41
 719 -278 719 -278 834 -247 c 0,42,43
 973 -213 973 -213 1042 -148 c 1,44,-1
 1046 -139 l 1,45,46
 1046 84 1046 84 898 334 c 1,47,48
 946 400 946 400 974.5 439 c 128,-1,49
 1003 478 1003 478 1018 498.5 c 128,-1,50
 1033 519 1033 519 1037.5 525.5 c 128,-1,51
 1042 532 1042 532 1042 533 c 128,-1,52
 1042 534 1042 534 1043.5 532 c 128,-1,53
 1045 530 1045 530 1047 526 c 2,54,-1
 1048 523 l 1,55,56
 1082 475 1082 475 1108 407.5 c 128,-1,57
 1134 340 1134 340 1154 246 c 1,58,-1
 1167 236 l 1,59,60
 1215 237 1215 237 1275.5 241.5 c 128,-1,61
 1336 246 1336 246 1417 257 c 1,62,-1
 1426 263 l 1,63,64
 1451 300 1451 300 1451 359 c 0,65,66
 1451 386 1451 386 1442 415 c 1,67,-1
 1588 574 l 1,68,69
 1594 559 1594 559 1594 508 c 0,70,71
 1594 395 1594 395 1545 294 c 1,72,-1
 1549 278 l 1,73,74
 1632 216 1632 216 1773 216 c 0,75,76
 1858 216 1858 216 1886 241 c 1,77,-1
 1890 253 l 1,78,79
 1885 358 1885 358 1831 457 c 1,80,-1
 1969 616 l 1,81,82
 2015 537 2015 537 2015 281 c 2,83,-1
 2015 245 l 2,84,85
 2015 241 2015 241 2018 244 c 1,86,-1
 2014 236 l 1,87,-1
 2003 44 l 2,0,1
EndSplineSet
EndChar

StartChar: seenfinal
Encoding: 65202 65202 137
Width: 2000
Flags: W
AnchorPoint: "ArabicBelow" 1000 -759 basechar 0
AnchorPoint: "ArabicAbove" 1000 866 basechar 0
LayerCount: 2
Fore
SplineSet
2003 44 m 2,0,1
 2002 -2 2002 -2 1853 -2 c 0,2,3
 1736 -2 1736 -2 1636 29 c 1,4,-1
 1635 30 l 1,5,6
 1530 58 1530 58 1474 90 c 1,7,-1
 1458 88 l 1,8,9
 1436 64 1436 64 1412 48 c 128,-1,10
 1388 32 1388 32 1362 22 c 1,11,-1
 1361 22 l 1,12,13
 1305 1 1305 1 1173 1 c 1,14,-1
 1160 -9 l 1,15,16
 1147 -69 1147 -69 1125 -127 c 128,-1,17
 1103 -185 1103 -185 1072 -246 c 0,18,19
 1046 -300 1046 -300 1024 -333.5 c 128,-1,20
 1002 -367 1002 -367 982 -384 c 0,21,22
 919 -441 919 -441 795 -477 c 0,23,24
 679 -509 679 -509 587 -509 c 0,25,26
 184 -509 184 -509 184 -74 c 0,27,28
 184 147 184 147 310 332 c 0,29,30
 323 351 323 351 332.5 364 c 128,-1,31
 342 377 342 377 349 383 c 1,32,33
 347 374 347 374 341 360 c 128,-1,34
 335 346 335 346 327 327 c 1,35,-1
 327 326 l 1,36,37
 241 136 241 136 241 13 c 0,38,39
 241 -278 241 -278 606 -278 c 0,40,41
 719 -278 719 -278 834 -247 c 0,42,43
 973 -213 973 -213 1042 -148 c 1,44,-1
 1046 -139 l 1,45,46
 1046 84 1046 84 898 334 c 1,47,48
 946 400 946 400 974.5 439 c 128,-1,49
 1003 478 1003 478 1018 498.5 c 128,-1,50
 1033 519 1033 519 1037.5 525.5 c 128,-1,51
 1042 532 1042 532 1042 533 c 128,-1,52
 1042 534 1042 534 1043.5 532 c 128,-1,53
 1045 530 1045 530 1047 526 c 2,54,-1
 1048 523 l 1,55,56
 1082 475 1082 475 1108 407.5 c 128,-1,57
 1134 340 1134 340 1154 246 c 1,58,-1
 1167 236 l 1,59,60
 1215 237 1215 237 1275.5 241.5 c 128,-1,61
 1336 246 1336 246 1417 257 c 1,62,-1
 1426 263 l 1,63,64
 1451 300 1451 300 1451 359 c 0,65,66
 1451 386 1451 386 1442 415 c 1,67,-1
 1588 574 l 1,68,69
 1594 559 1594 559 1594 508 c 0,70,71
 1594 395 1594 395 1545 294 c 1,72,-1
 1549 278 l 1,73,74
 1632 216 1632 216 1773 216 c 0,75,76
 1858 216 1858 216 1886 241 c 1,77,-1
 1890 253 l 1,78,79
 1885 358 1885 358 1831 457 c 1,80,-1
 1969 616 l 1,81,82
 2015 537 2015 537 2015 281 c 2,83,-1
 2015 245 l 2,84,85
 2015 241 2015 241 2018 244 c 1,86,-1
 2014 236 l 1,87,-1
 2003 44 l 2,0,1
EndSplineSet
EndChar

StartChar: seeninitial
Encoding: 65203 65203 138
Width: 1537
Flags: W
AnchorPoint: "ArabicBelow" 768 -252 basechar 0
AnchorPoint: "ArabicAbove" 768 866 basechar 0
LayerCount: 2
Fore
SplineSet
1494 44 m 2,0,1
 1493 -2 1493 -2 1343 -2 c 0,2,3
 1228 -2 1228 -2 1126 29 c 1,4,-1
 1125 30 l 1,5,6
 1019 59 1019 59 964 90 c 1,7,-1
 949 88 l 1,8,9
 903 42 903 42 848 23 c 0,10,11
 782 1 782 1 664 1 c 0,12,13
 405 1 405 1 319 51 c 1,14,-1
 306 51 l 1,15,16
 226 1 226 1 86 1 c 2,17,-1
 -44 1 l 2,18,19
 -61 1 -61 1 -76.5 16 c 128,-1,20
 -92 31 -92 31 -92 49 c 2,21,-1
 -92 237 l 1,22,-1
 133 237 l 2,23,24
 283 237 283 237 326 265 c 1,25,-1
 331 272 l 1,26,27
 341 299 341 299 341 339 c 0,28,29
 341 374 341 374 327 427 c 1,30,-1
 467 586 l 1,31,32
 475 562 475 562 475 499 c 0,33,34
 475 448 475 448 462.5 393 c 128,-1,35
 450 338 450 338 427 275 c 1,36,-1
 435 258 l 1,37,38
 464 247 464 247 528 242 c 128,-1,39
 592 237 592 237 692 237 c 0,40,41
 783 237 783 237 839 242 c 128,-1,42
 895 247 895 247 921 258 c 1,43,-1
 928 264 l 1,44,45
 947 301 947 301 947 345 c 0,46,47
 947 392 947 392 934 417 c 1,48,-1
 1079 574 l 1,49,50
 1085 559 1085 559 1085 508 c 0,51,52
 1085 454 1085 454 1072.5 401 c 128,-1,53
 1060 348 1060 348 1036 294 c 1,54,-1
 1040 278 l 1,55,56
 1123 216 1123 216 1264 216 c 0,57,58
 1349 216 1349 216 1377 241 c 1,59,-1
 1381 253 l 1,60,61
 1376 358 1376 358 1322 457 c 1,62,-1
 1459 616 l 1,63,64
 1505 537 1505 537 1505 281 c 2,65,-1
 1505 245 l 2,66,67
 1505 241 1505 241 1508 244 c 1,68,-1
 1504 236 l 1,69,-1
 1494 44 l 2,0,1
EndSplineSet
EndChar

